<?xml version="1.0" encoding="UTF-8"?>
<svg width="48px" height="48px" viewBox="0 0 48 48" version="1.1" xmlns="http://www.w3.org/2000/svg" xmlns:xlink="http://www.w3.org/1999/xlink">
    <title>B53F826A-D0A4-44E7-9227-8B92E3AEF28F</title>
    <g id="Page-1" stroke="none" stroke-width="1" fill="none" fill-rule="evenodd">
        <g id="desktop-ads-new_ad_1" transform="translate(-488.000000, -800.000000)">
            <g id="Group" transform="translate(284.000000, 768.000000)">
                <g id="Group-2" transform="translate(96.000000, 32.000000)">
                    <g id="icon/XL/photo/" transform="translate(108.000000, 0.000000)">
                        <g id="icon">
                            <g id="Group">
                                <rect id="Rectangle" x="0" y="0" width="48" height="48"></rect>
                                <path d="M28.4677677,8 L19.5322323,8 C18.3259318,8 17.8035598,8.04287865 17.2630781,8.1674463 C16.7800495,8.27877246 16.3526504,8.45580695 15.9323781,8.7186403 C15.4621172,9.01273591 15.0624246,9.35178891 14.2094414,10.2047722 L13.1385139,11.2756997 C12.1988962,12.2153174 11.6932585,12.6236126 11.1280931,12.9770604 C10.5147564,13.360634 9.89101899,13.6189944 9.18609693,13.7814615 C8.53653937,13.9311685 7.89029116,14 6.56147111,14 L5.57055335,14 C4.80293517,14 4.38196791,14.0816191 4.0063303,14.2825123 C3.69428754,14.4493946 3.44939455,14.6942875 3.28251225,15.0063303 C3.08161906,15.3819679 3,15.8029352 3,16.5705534 L3,37.1541722 C3,38.2082531 3.07440488,38.6045427 3.28251225,38.9936697 C3.44939455,39.3057125 3.69428754,39.5506054 4.0063303,39.7174877 C4.39545726,39.9255951 4.79174691,40 5.8458278,40 L42.1541722,40 C43.2082531,40 43.6045427,39.9255951 43.9936697,39.7174877 C44.3057125,39.5506054 44.5506054,39.3057125 44.7174877,38.9936697 C44.9255951,38.6045427 45,38.2082531 45,37.1541722 L45,16.5705534 C45,15.8029352 44.9183809,15.3819679 44.7174877,15.0063303 C44.5506054,14.6942875 44.3057125,14.4493946 43.9936697,14.2825123 C43.6180321,14.0816191 43.1970648,14 42.4294466,14 L41.4385289,14 C40.1097088,14 39.4634606,13.9311685 38.8139031,13.7814615 C38.108981,13.6189944 37.4852436,13.360634 36.8719069,12.9770604 C36.3067415,12.6236126 35.8011038,12.2153174 34.8614861,11.2756997 L33.7905586,10.2047722 C32.9375754,9.35178891 32.5378828,9.01273591 32.0676219,8.7186403 C31.6473496,8.45580695 31.2199505,8.27877246 30.7369219,8.1674463 C30.1964402,8.04287865 29.6740682,8 28.4677677,8 Z" id="Rectangle" stroke="#909099" stroke-width="2"></path>
                                <circle id="Oval" stroke="#909099" stroke-width="2" cx="24" cy="25" r="10"></circle>
                                <rect id="Rectangle" fill="#909099" x="23" y="20" width="2" height="10"></rect>
                                <rect id="Rectangle" fill="#909099" x="19" y="24" width="10" height="2"></rect>
                            </g>
                        </g>
                    </g>
                </g>
            </g>
        </g>
    </g>
</svg>