<svg xmlns="http://www.w3.org/2000/svg" width="16" height="16" viewBox="0 0 16 16">
    <g fill="none" fill-rule="evenodd">
        <path d="M0 0H16V16H0z"/>
        <path stroke="#909099" d="M7.543 3.275c-.075.255-.133.446-.191.634-.549 1.752-1.114 2.82-2.061 3.498l-.13.093H4c-.828 0-1.5.672-1.5 1.5v3c0 .828.672 1.5 1.5 1.5h7.396c.703 0 1.311-.488 1.464-1.175l1.111-5c.024-.106.036-.216.036-.325 0-.828-.672-1.5-1.5-1.5H9.76l.275-.686C11.258 1.76 10.88.5 9 .5c-.461 0-.8.57-1.277 2.166l-.18.61z"/>
    </g>
</svg>
