<?xml version="1.0" encoding="UTF-8"?>
<svg width="188px" height="32px" viewBox="0 0 188 32" version="1.1" xmlns="http://www.w3.org/2000/svg" xmlns:xlink="http://www.w3.org/1999/xlink">
    <!-- Generator: sketchtool 61.2 (101010) - https://sketch.com -->
    <title>ABCBE58A-007D-4E3C-AA9D-3856FF358D1E</title>
    <desc>Created with sketchtool.</desc>
    <g id="Page-1" stroke="none" stroke-width="1" fill="none" fill-rule="evenodd">
        <g id="desktop-header-page-1280" transform="translate(-80.000000, -20.000000)">
            <g id="Group-2">
                <g id="Logo2-Copy-3" transform="translate(80.000000, 20.000000)">
                    <g id="Group-4">
                        <g id="Group-3">
                            <g id="Group-2" fill="#909099">
                                <polygon id="Rectangle" points="20 11.6363636 50 0 50 20.3636364 20 32"></polygon>
                                <polygon id="Rectangle" points="0 11.6363636 30 0 30 20.3636364 0 32"></polygon>
                            </g>
                            <g id="Group" transform="translate(14.000000, 5.000000)">
                                <circle id="Oval" fill="#FFFFFF" cx="11" cy="11" r="11"></circle>
                                <circle id="Oval" fill="#D52B1E" cx="11" cy="11" r="6"></circle>
                            </g>
                        </g>
                    </g>
                    <polygon id="Path" fill="#909099" fill-rule="nonzero" points="64.8318584 22.004 64.8318584 12.5754286 69.1681416 12.5754286 69.1681416 22.004 72 22.004 72 10.004 62 10.004 62 22.004"></polygon>
                    <path d="M93.7830651,9.97 C95.5331746,9.97 96.8059816,10.3460684 97.6014859,11.0982051 C98.3969902,11.8332479 98.7859035,12.7905128 98.7859035,13.935812 C98.7859035,15.0469231 98.3616345,16.004188 97.5307744,16.7905128 C96.6999143,17.5597436 95.5862082,17.952906 94.2073341,17.952906 C93.7432899,17.952906 93.3687399,17.9432906 93.0836842,17.9240598 L92.8284599,17.9016239 L92.8284599,21.97 L90,21.97 L90,10.004188 L91.1718733,9.99640742 L91.1718733,9.99640742 L93.3358803,9.97063311 L93.3358803,9.97063311 L93.7830651,9.97 Z M94.0659111,12.5341026 L92.8284599,12.5682906 L92.8284599,15.3033333 C93.2704067,15.3546154 93.7123536,15.3888034 94.1189447,15.3888034 C95.0205163,15.3888034 95.7806649,14.961453 95.7806649,13.9187179 C95.7806649,12.995641 95.2149729,12.5341026 94.0659111,12.5341026 Z" id="Shape" fill="#909099"></path>
                    <path d="M80.9628579,9.8 C82.8381267,9.8 84.3693095,10.3651934 85.5564063,11.4955801 C86.7607074,12.6259669 87.3628579,14.1331492 87.3628579,16 C87.3628579,17.7983425 86.7607074,19.2883978 85.539202,20.4530387 C84.3349009,21.6176796 82.8037181,22.2 80.9628579,22.2 C79.0875891,22.2 77.5564063,21.6348066 76.3521052,20.5044199 C75.1650085,19.3740331 74.5628579,17.8668508 74.5628579,16 C74.5628579,14.2359116 75.1478042,12.7629834 76.3349009,11.5812155 C77.5219977,10.3994475 79.0703848,9.8 80.9628579,9.8 Z M80.9628579,12.3690608 C79.9478042,12.3690608 79.1219977,12.7116022 78.4682343,13.379558 C77.8144708,14.0475138 77.4875891,14.9209945 77.4875891,16 C77.4875891,17.0276243 77.8316751,17.8839779 78.5026429,18.5861878 C79.1736106,19.2883978 79.9994171,19.6309392 80.9628579,19.6309392 C82.0639332,19.6309392 82.9241482,19.2883978 83.5262988,18.620442 C84.1284493,17.9353591 84.4381267,17.0618785 84.4381267,16 C84.4381267,14.9209945 84.111245,14.0475138 83.4402773,13.379558 C82.7693095,12.7116022 81.9435031,12.3690608 80.9628579,12.3690608 Z" id="Combined-Shape" fill="#909099"></path>
                    <polygon id="Path" fill="#909099" points="108.017241 22.004 108.017241 12.5754286 112 12.5754286 112 10.004 101 10.004 101 12.5754286 104.982759 12.5754286 104.982759 22.004"></polygon>
                    <path d="M131.191011,14.8027551 L131.455859,12.5565293 L134.17496,12.5565293 L134.17496,21.9158034 L137,21.9158034 L137,10.004 L128.807384,10.004 L128.630819,12.3863607 C128.436597,14.9218731 128.136437,16.7426773 127.800963,17.6956216 C127.642055,18.1550769 127.46549,18.512431 127.253612,18.7676839 C126.829856,19.2441561 126.529695,19.2781898 126.05297,19.1931055 L126,21.9158034 C128.930979,22.3922755 130.431782,21.0649603 131.191011,14.8027551 Z" id="Path" fill="#909099"></path>
                    <path d="M119.342621,10.004 L124.4,22.004 L121.428138,22.004 L120.420138,19.484 L115.606069,19.484 L114.598069,22.004 L111.8,22.004 L116.857379,10.004 L119.342621,10.004 Z M118.021793,13.5182857 L116.648828,16.9125714 L119.377379,16.9125714 L118.021793,13.5182857 Z" id="Combined-Shape" fill="#909099"></path>
                    <polygon id="Path" fill="#909099" points="179.923588 22.004 179.923588 16.4 184.290698 22.004 188 22.004 182.810631 15.5411429 187.616279 10.004 184.107973 10.004 179.923588 15.2325714 179.923588 10.004 177 10.004 177 22.004"></polygon>
                    <polygon id="Path" fill="#909099" points="163.84153 21.904 163.84153 14.373 167.286885 18.963 167.695355 18.963 171.15847 14.322 171.15847 21.904 174 21.904 174 10.004 171.318306 10.004 167.695355 15.019 163.85929 10.004 161 10.004 161 21.904"></polygon>
                    <path d="M151.962858,9.8 C153.838127,9.8 155.36931,10.3651934 156.556406,11.4955801 C157.760707,12.6259669 158.362858,14.1331492 158.362858,16 C158.362858,17.7983425 157.760707,19.2883978 156.539202,20.4530387 C155.334901,21.6176796 153.803718,22.2 151.962858,22.2 C150.087589,22.2 148.556406,21.6348066 147.352105,20.5044199 C146.165008,19.3740331 145.562858,17.8668508 145.562858,16 C145.562858,14.2359116 146.147804,12.7629834 147.334901,11.5812155 C148.521998,10.3994475 150.070385,9.8 151.962858,9.8 Z M151.962858,12.3690608 C150.947804,12.3690608 150.121998,12.7116022 149.468234,13.379558 C148.814471,14.0475138 148.487589,14.9209945 148.487589,16 C148.487589,17.0276243 148.831675,17.8839779 149.502643,18.5861878 C150.173611,19.2883978 150.999417,19.6309392 151.962858,19.6309392 C153.063933,19.6309392 153.924148,19.2883978 154.526299,18.620442 C155.128449,17.9353591 155.438127,17.0618785 155.438127,16 C155.438127,14.9209945 155.111245,14.0475138 154.440277,13.379558 C153.76931,12.7116022 152.943503,12.3690608 151.962858,12.3690608 Z" id="Combined-Shape" fill="#909099"></path>
                </g>
            </g>
        </g>
    </g>
</svg>