<svg xmlns="http://www.w3.org/2000/svg" width="32" height="32" viewBox="0 0 32 32">
    <g fill="none" fill-rule="evenodd">
        <path d="M0 0H32V32H0z"/>
        <path stroke="#909099" stroke-linecap="round" stroke-linejoin="round" stroke-width="1.7" d="M19 25c-2.761 0-5-1.79-5-4M9 25c2.761 0 5-1.79 5-4"/>
        <path fill="#909099" fill-rule="nonzero" d="M1.186 8.244c-.184-.614.348-1.189.956-1.082l.102.024 6.812 2.042.428-.187c1.169-.482 2.412-.775 3.693-.863l.428-.022L14 8.15c.068 0 .135 0 .202.002L14.2 8c0 .635.06 1.256.176 1.858-.125-.006-.25-.008-.376-.008-1.583 0-3.112.362-4.498 1.049-.155.076-.328.103-.497.08l-.125-.028-5.612-1.683 1.683 5.612c.062.206.043.429-.052.622C4.212 16.888 3.85 18.417 3.85 20c0 5.606 4.544 10.15 10.15 10.15 5.606 0 10.15-4.544 10.15-10.15 0-.756-.083-1.492-.24-2.2H24c.552 0 1.093-.046 1.62-.133.151.754.23 1.534.23 2.333 0 6.545-5.305 11.85-11.85 11.85S2.15 26.545 2.15 20c0-1.439.257-2.841.75-4.157l.155-.392.173-.395-2.042-6.812z"/>
        <path fill="#909099" d="M24 0c4.418 0 8 3.582 8 8s-3.582 8-8 8-8-3.582-8-8 3.582-8 8-8zm0 10.6c-.773 0-1.4.627-1.4 1.4 0 .773.627 1.4 1.4 1.4.773 0 1.4-.627 1.4-1.4 0-.773-.627-1.4-1.4-1.4zm.707-7.6l-1.455.002c-.245.02-.433.213-.456.45v.09L23.25 9h1.5l.457-5.5c0-.245-.177-.45-.41-.492L24.706 3z"/>
        <circle cx="9.5" cy="17.5" r="1.5" fill="#909099"/>
        <circle cx="18.5" cy="17.5" r="1.5" fill="#909099"/>
    </g>
</svg>
