<?xml version="1.0" encoding="UTF-8"?>
<svg width="16px" height="16px" viewBox="0 0 16 16" version="1.1" xmlns="http://www.w3.org/2000/svg" xmlns:xlink="http://www.w3.org/1999/xlink">
    <title>BCD34487-62FF-40C5-BF5B-3C2DA8543DEA</title>
    <g id="Page-1" stroke="none" stroke-width="1" fill="none" fill-rule="evenodd">
        <g id="desktop-header-usermenu-1280" transform="translate(-998.000000, -174.000000)">
            <g id="Group-22" transform="translate(900.000000, 0.000000)">
                <g id="Group-8-Copy-6" transform="translate(98.000000, 172.000000)">
                    <g id="Group-9">
                        <g id="Group-16">
                            <g id="icon/S/Search/Place-Copy" transform="translate(0.000000, 2.000000)">
                                <g id="icon">
                                    <g id="Group">
                                        <rect id="Rectangle" x="0" y="0" width="16" height="16"></rect>
                                        <path d="M8,0 C10.7614237,0 13,2.23857625 13,5 C13,6.84094917 11.3333333,10.5076158 8,16 C4.66666667,10.5076158 3,6.84094917 3,5 C3,2.23857625 5.23857625,0 8,0 Z M8,3 C6.8954305,3 6,3.8954305 6,5 C6,6.1045695 6.8954305,7 8,7 C9.1045695,7 10,6.1045695 10,5 C10,3.8954305 9.1045695,3 8,3 Z" id="Combined-Shape" fill="#909099"></path>
                                    </g>
                                </g>
                            </g>
                        </g>
                    </g>
                </g>
            </g>
        </g>
    </g>
</svg>