<svg xmlns="http://www.w3.org/2000/svg" xmlns:xlink="http://www.w3.org/1999/xlink" width="48" height="48" viewBox="0 0 48 48">
    <defs>
        <circle id="prefix__a" cx="24" cy="24" r="24"/>
    </defs>
    <g fill="none" fill-rule="evenodd">
        <mask id="prefix__b" fill="#fff">
            <use xlink:href="#prefix__a"/>
        </mask>
        <g stroke-width="2">
            <circle cx="24" cy="24" r="23" fill="#1DB85B" stroke="#22D66A" stroke-linejoin="square"/>
            <circle cx="24" cy="24" r="25" stroke="#FFF"/>
        </g>
        <path fill="#FFF" d="M35.414 32.414l7.172 7.172c.78.78.78 2.047 0 2.828l-.172.172c-.78.78-2.047.78-2.828 0l-7.172-7.172c-.78-.78-.78-2.047 0-2.828l.172-.172c.78-.78 2.047-.78 2.828 0z" mask="url(#prefix__b)"/>
        <circle cx="24" cy="24" r="9" fill="#22D66A" stroke="#FFF" stroke-width="2"/>
        <path fill="#FFF" fill-rule="nonzero" d="M24 18c.552 0 1 .448 1 1s-.448 1-1 1c-2.21 0-4 1.79-4 4 0 .552-.448 1-1 1s-1-.448-1-1c0-3.314 2.686-6 6-6z"/>
        <path stroke="#FFF" stroke-linecap="square" stroke-width="2" d="M34.5 34.5L31.5 31.5"/>
    </g>
</svg>
