<svg xmlns="http://www.w3.org/2000/svg" width="16" height="17" viewBox="0 0 16 17">
    <g fill="none" fill-rule="evenodd">
        <path d="M0 0H16V16H0z" transform="translate(0 1)"/>
        <path fill="#909099" fill-rule="nonzero" d="M6.64 8.387l.823.824.545.531c.851.81 1.523 1.334 1.812 1.159l.016-.012.94-.817c.087-.073.177-.147.273-.22.337-.293 1.357-.203 2.051.457l1.241 1.24c.488.487.655 1.013.659 1.466-.001.265-.096.523-.282.738-.089.102-.187.203-.294.298l-.065.055-.14.11c-1.398.89-2.393.877-3.625.664-.953-.164-2.48-1.025-3.123-1.407l-.3-.182-.298-.22c-.487-.364-1.463-1.112-2.079-1.71l-.156-.155c-.48-.495-1.056-1.22-1.453-1.74l-.478-.64-.122-.2c-.343-.57-1.292-2.215-1.465-3.22l-.045-.28C.91 4.019.963 3.072 1.784 1.78l.11-.14c.109-.133.23-.253.353-.359.215-.186.473-.281.738-.282.453.004.98.171 1.467.659l1.2 1.2c.695.695.795 1.749.496 2.092-.073.096-.147.186-.22.272l-.817.94c-.239.32.493 1.17 1.53 2.224z" transform="translate(0 1)"/>
    </g>
</svg>
