<?xml version="1.0" encoding="UTF-8"?>
<svg width="16px" height="16px" viewBox="0 0 16 16" version="1.1" xmlns="http://www.w3.org/2000/svg" xmlns:xlink="http://www.w3.org/1999/xlink">
    <title>Artboard</title>
    <g id="Artboard" stroke="none" stroke-width="1" fill="none" fill-rule="evenodd">
        <path d="M8,0 C12.418278,0 16,3.581722 16,8 C16,12.418278 12.418278,16 8,16 C3.581722,16 0,12.418278 0,8 C0,3.581722 3.581722,0 8,0 Z M4.42220182,11.1930121 L4.24,11.3669787 L5.44208153,12.5690602 C6.818343,11.1927988 9.02021754,11.1453415 10.4534178,12.4266884 L10.603961,12.5690602 L11.8060426,11.3669787 C9.77643203,9.33736819 6.52181284,9.27937931 4.42220182,11.1930121 Z M11,4.5 C10.1715729,4.5 9.5,5.17157288 9.5,6 C9.5,6.82842712 10.1715729,7.5 11,7.5 C11.8284271,7.5 12.5,6.82842712 12.5,6 C12.5,5.17157288 11.8284271,4.5 11,4.5 Z M5,4.5 C4.17157288,4.5 3.5,5.17157288 3.5,6 C3.5,6.82842712 4.17157288,7.5 5,7.5 C5.82842712,7.5 6.5,6.82842712 6.5,6 C6.5,5.17157288 5.82842712,4.5 5,4.5 Z" id="Combined-Shape" fill="#FFFFFF"></path>
    </g>
</svg>