<?xml version="1.0" encoding="UTF-8"?>
<svg width="183px" height="183px" viewBox="0 0 183 183" version="1.1" xmlns="http://www.w3.org/2000/svg" xmlns:xlink="http://www.w3.org/1999/xlink">
    <!-- Generator: sketchtool 61.2 (101010) - https://sketch.com -->
    <title>5245E385-6D74-486A-8884-166209D38ACE</title>
    <desc>Created with sketchtool.</desc>
    <g id="Page-1" stroke="none" stroke-width="1" fill="none" fill-rule="evenodd">
        <g id="graphics-PS_Practice_Cat" transform="translate(-528.000000, -80.000000)">
            <g id="01m" transform="translate(528.000000, 80.000000)">
                <rect id="Rectangle" fill="#3D3D4D" x="0" y="0" width="183" height="183"></rect>
                <path d="M112,82 L125,88 L114,94 L113.333,90 L106.828,90 L93.999,102.829 L94,152 L90,152 L90,101.171573 L105.171573,86 L112.667,86 L112,82 Z M93.9974133,24 L93.9974133,74.8284271 L78.8258404,90 L70.667,90 L70,94 L59,88 L72,82 L71.333,86 L77.1694133,86 L89.9984133,73.171 L89.9974133,24 L93.9974133,24 Z" id="Shape" fill="#F65145" fill-rule="nonzero"></path>
                <path d="M176.75,102 L177.25,106 L137.25,106 L143,152 L139,152 L132.75,102 L176.75,102 Z M51.25,102 L45,152 L41,152 L46.75,106 L6.75,106 L7.25,102 L51.25,102 Z M135.75,94 L136.25,98 L132.25,98 L131.75,94 L135.75,94 Z M52.25,94 L51.75,98 L47.75,98 L48.25,94 L52.25,94 Z M134.75,86 L135.25,90 L131.25,90 L130.75,86 L134.75,86 Z M53.25,86 L52.75,90 L48.75,90 L49.25,86 L53.25,86 Z M133.75,78 L134.25,82 L130.25,82 L129.75,78 L133.75,78 Z M54.25,78 L53.75,82 L49.75,82 L50.25,78 L54.25,78 Z M127,24 L132.75,70 L172.75,70 L173.25,74 L129.25,74 L123,24 L127,24 Z M61,24 L54.75,74 L10.75,74 L11.25,70 L51.25,70 L57,24 L61,24 Z" id="Shape" fill="#FFFFFF"></path>
            </g>
        </g>
    </g>
</svg>