<?xml version="1.0" encoding="UTF-8"?>
<svg width="352px" height="168px" viewBox="0 0 352 168" version="1.1" xmlns="http://www.w3.org/2000/svg" xmlns:xlink="http://www.w3.org/1999/xlink">
    <!-- Generator: sketchtool 61.2 (101010) - https://sketch.com -->
    <title>6001A7CF-E685-4DBB-845B-75FEAC9B80F6</title>
    <desc>Created with sketchtool.</desc>
    <defs>
        <rect id="path-1" x="0" y="0" width="352" height="168"></rect>
    </defs>
    <g id="Page-1" stroke="none" stroke-width="1" fill="none" fill-rule="evenodd">
        <g id="graphics-PS_Practice_Cat" transform="translate(-80.000000, -296.000000)">
            <g id="02d" transform="translate(80.000000, 296.000000)">
                <mask id="mask-2" fill="white">
                    <use xlink:href="#path-1"></use>
                </mask>
                <use id="Mask" fill="#BCF2D2" xlink:href="#path-1"></use>
                <path d="M165.558482,93 C166.365539,93 167.087708,93.4841545 167.399136,94.2176009 L167.455848,94.3675445 L174.683772,116.051317 C174.87262,116.617861 175.40281,117 176,117 C176.551253,117 177.045416,116.674391 177.266713,116.178694 L177.316228,116.051317 L184.544152,94.3675445 C184.799366,93.601903 185.487045,93.0698959 186.281335,93.0063858 L186.441518,93 L194.558482,93 C195.365539,93 196.087708,93.4841545 196.399136,94.2176009 L196.455848,94.3675445 L204,117 L208,117 C210.209139,117 212,118.790861 212,121 L212,177 C212,179.209139 210.209139,181 208,181 L144,181 C141.790861,181 140,179.209139 140,177 L140,121 C140,118.790861 141.790861,117 144,117 L147.999,117 L155.544152,94.3675445 C155.799366,93.601903 156.487045,93.0698959 157.281335,93.0063858 L157.441518,93 L165.558482,93 Z M210,153 L142,153 L142,161 L210,161 L210,153 Z M210,137 L142,137 L142,145 L210,145 L210,137 Z M198,53 C199.104569,53 200,53.8954305 200,55 L200,60.6754447 C200,60.8904089 199.965344,61.1039673 199.897367,61.3079002 L196.455848,71.6324555 C196.18362,72.4491398 195.419342,73 194.558482,73 L182.441518,73 C181.580658,73 180.81638,72.4491398 180.544152,71.6324555 L177.316228,61.9486833 C177.12738,61.3821388 176.59719,61 176,61 C175.40281,61 174.87262,61.3821388 174.683772,61.9486833 L171.455848,71.6324555 C171.18362,72.4491398 170.419342,73 169.558482,73 L157.441518,73 C156.580658,73 155.81638,72.4491398 155.544152,71.6324555 L152.102633,61.3079002 C152.034656,61.1039673 152,60.8904089 152,60.6754447 L152,55 C152,53.8954305 152.895431,53 154,53 L198,53 Z M210,60.9999701 C211.104574,60.9999866 212,61.8954257 212,63 C212,64.0543478 211.184133,64.9181397 210.149287,64.9944879 L210,64.9999735 L200.666,64.99985 L201.897367,61.3079002 C201.930922,61.2072327 201.956359,61.1042197 201.973515,60.99985 L210,60.9999701 Z M150.026485,60.99985 L150.058409,61.1552634 L150.058409,61.1552634 L150.102633,61.3079002 L151.334,64.99985 L142,64.9999735 L141.850713,64.9944879 C140.815867,64.9181397 140,64.0543478 140,63 C140,61.9456336 140.815873,61.0818222 141.850737,61.005458 L142,60.9999701 L150.026485,60.99985 Z M200,41 C202.209139,41 204,42.790861 204,45 C204,47.209139 202.209139,49 200,49 L152,49 C149.790861,49 148,47.209139 148,45 C148,42.790861 149.790861,41 152,41 L200,41 Z M182.000975,16.0002548 C192.229155,18.6056384 199.818313,27.715179 199.996785,38.6072807 L200,39 L152,39 C152,27.9342995 159.648649,18.6362915 170.000026,16 L170,29.0419726 C170,32.3556811 172.686292,35.0419726 176,35.0419726 C179.238397,35.0419726 181.877572,32.4763977 181.995862,29.2669109 L182,29.0419726 L182.000975,16.0002548 Z M176.000174,13 C177.360373,13 178.69618,13.1044948 180,13.3058964 L179.999465,29.0003357 C179.99939,31.2093114 178.20864,33 175.999664,33 C173.857742,33 172.109081,31.316246 172.005068,29.2001243 L172.000174,29.0003357 L172.000855,13.3058151 C173.304508,13.1044667 174.640139,13 176.000174,13 Z" id="Shape" fill="#22D66A" mask="url(#mask-2)"></path>
                <g id="Group-6" mask="url(#mask-2)">
                    <g transform="translate(114.000000, 135.000000)"></g>
                </g>
            </g>
        </g>
    </g>
</svg>