<?xml version="1.0" encoding="UTF-8"?>
<svg width="183px" height="183px" viewBox="0 0 183 183" version="1.1" xmlns="http://www.w3.org/2000/svg" xmlns:xlink="http://www.w3.org/1999/xlink">
    <!-- Generator: sketchtool 61.2 (101010) - https://sketch.com -->
    <title>26D46F27-AB54-4679-8D77-36499353E63C</title>
    <desc>Created with sketchtool.</desc>
    <defs>
        <rect id="path-1" x="0" y="0" width="183" height="183"></rect>
    </defs>
    <g id="Page-1" stroke="none" stroke-width="1" fill="none" fill-rule="evenodd">
        <g id="graphics-PS_Practice_Cat" transform="translate(-528.000000, -296.000000)">
            <g id="02m" transform="translate(528.000000, 296.000000)">
                <mask id="mask-2" fill="white">
                    <use xlink:href="#path-1"></use>
                </mask>
                <use id="Mask" fill="#BCF2D2" xlink:href="#path-1"></use>
                <path d="M81.5584816,96 C82.3655386,96 83.0877081,96.4841545 83.3991357,97.2176009 L83.4558482,97.3675445 L90.6837722,119.051317 C90.8726204,119.617861 91.4028097,120 92,120 C92.5512526,120 93.0454156,119.674391 93.266713,119.178694 L93.3162278,119.051317 L100.544152,97.3675445 C100.799366,96.601903 101.487045,96.0698959 102.281335,96.0063858 L102.441518,96 L110.558482,96 C111.365539,96 112.087708,96.4841545 112.399136,97.2176009 L112.455848,97.3675445 L120,120 L124,120 C126.209139,120 128,121.790861 128,124 L128,183 L56,183 L56,124 C56,121.790861 57.790861,120 60,120 L63.999,120 L71.5441518,97.3675445 C71.7993657,96.601903 72.487045,96.0698959 73.2813354,96.0063858 L73.4415184,96 L81.5584816,96 Z M126,156 L58,156 L58,164 L126,164 L126,156 Z M126,140 L58,140 L58,148 L126,148 L126,140 Z M114,56 C115.104569,56 116,56.8954305 116,58 L116,63.6754447 C116,63.8904089 115.965344,64.1039673 115.897367,64.3079002 L112.455848,74.6324555 C112.18362,75.4491398 111.419342,76 110.558482,76 L98.4415184,76 C97.5806576,76 96.8163799,75.4491398 96.5441518,74.6324555 L93.3162278,64.9486833 C93.1273796,64.3821388 92.5971903,64 92,64 C91.4028097,64 90.8726204,64.3821388 90.6837722,64.9486833 L87.4558482,74.6324555 C87.1836201,75.4491398 86.4193424,76 85.5584816,76 L73.4415184,76 C72.5806576,76 71.8163799,75.4491398 71.5441518,74.6324555 L68.1026334,64.3079002 C68.0346558,64.1039673 68,63.8904089 68,63.6754447 L68,58 C68,56.8954305 68.8954305,56 70,56 L114,56 Z M126,63.9999701 C127.104574,63.9999866 128,64.8954257 128,66 C128,67.0543478 127.184133,67.9181397 126.149287,67.9944879 L126,67.9999735 L116.666,67.99985 L117.897367,64.3079002 C117.930922,64.2072327 117.956359,64.1042197 117.973515,63.99985 L126,63.9999701 Z M66.0264851,63.99985 L66.0584094,64.1552634 L66.0584094,64.1552634 L66.1026334,64.3079002 L67.334,67.99985 L58,67.9999735 L57.8507132,67.9944879 C56.815867,67.9181397 56,67.0543478 56,66 C56,64.9456336 56.8158734,64.0818222 57.8507371,64.005458 L58,63.9999701 L66.0264851,63.99985 Z M116,44 C118.209139,44 120,45.790861 120,48 C120,50.209139 118.209139,52 116,52 L68,52 C65.790861,52 64,50.209139 64,48 C64,45.790861 65.790861,44 68,44 L116,44 Z M98.0009745,19.0002548 C108.229155,21.6056384 115.818313,30.715179 115.996785,41.6072807 L116,42 L68,42 C68,30.9342995 75.6486494,21.6362915 86.0000256,19 L86,32.0419726 C86,35.3556811 88.6862915,38.0419726 92,38.0419726 C95.2383969,38.0419726 97.8775718,35.4763977 97.9958615,32.2669109 L98,32.0419726 L98.0009745,19.0002548 Z M92.0001736,16 C93.3603726,16 94.69618,16.1044948 96,16.3058964 L95.9994649,32.0003357 C95.9993896,34.2093114 94.2086399,36 91.9996643,36 C89.8577416,36 88.1090809,34.316246 88.0050683,32.2001243 L88.0001736,32.0003357 L88.0008548,16.3058151 C89.3045079,16.1044667 90.6401388,16 92.0001736,16 Z" id="Shape" fill="#22D66A" mask="url(#mask-2)"></path>
            </g>
        </g>
    </g>
</svg>