<?xml version="1.0" encoding="UTF-8"?>
<svg width="352px" height="168px" viewBox="0 0 352 168" version="1.1" xmlns="http://www.w3.org/2000/svg" xmlns:xlink="http://www.w3.org/1999/xlink">
    <!-- Generator: sketchtool 61.2 (101010) - https://sketch.com -->
    <title>BF881E24-A67B-48C7-9418-5A614D330D62</title>
    <desc>Created with sketchtool.</desc>
    <g id="Page-1" stroke="none" stroke-width="1" fill="none" fill-rule="evenodd">
        <g id="graphics-PS_Practice_Cat" transform="translate(-80.000000, -512.000000)">
            <g id="03d" transform="translate(80.000000, 512.000000)">
                <rect id="Rectangle" fill="#E6E6EB" x="0" y="0" width="352" height="168"></rect>
                <path d="M160,138 L158.110432,155.006116 C158.047563,155.571936 157.569302,156 157,156 C156.430698,156 155.952437,155.571936 155.889568,155.006116 L154,138 L160,138 Z M296,138 L294.110432,155.006116 C294.047563,155.571936 293.569302,156 293,156 C292.430698,156 291.952437,155.571936 291.889568,155.006116 L290,138 L296,138 Z M62,132 L60.0830455,155.003454 C60.0361055,155.566734 59.5652321,156 59,156 C58.4347679,156 57.9638945,155.566734 57.9169545,155.003454 L56,132 L62,132 Z M134,132 L132.083045,155.003454 C132.036106,155.566734 131.565232,156 131,156 C130.434768,156 129.963894,155.566734 129.916955,155.003454 L128,132 L134,132 Z M295,24 C297.761424,24 300,26.2385763 300,29 L300,131 C300,133.761424 297.761424,136 295,136 L155,136 C152.238576,136 150,133.761424 150,131 L150,29 C150,26.2385763 152.238576,24 155,24 L295,24 Z M295,26 L155,26 C153.343146,26 152,27.3431458 152,29 L152,131 C152,132.656854 153.343146,134 155,134 L295,134 C296.656854,134 298,132.656854 298,131 L298,29 C298,27.3431458 296.656854,26 295,26 Z M186,28 C187.104569,28 188,28.8954305 188,30 L188,130 C188,131.104569 187.104569,132 186,132 L156,132 C154.895431,132 154,131.104569 154,130 L154,30 C154,28.8954305 154.895431,28 156,28 L186,28 Z M222,28 C223.104569,28 224,28.8954305 224,30 L224,130 C224,131.104569 223.104569,132 222,132 L192,132 C190.895431,132 190,131.104569 190,130 L190,30 C190,28.8954305 190.895431,28 192,28 L222,28 Z M294,28 C295.104569,28 296,28.8954305 296,30 L296,130 C296,131.104569 295.104569,132 294,132 L264,132 C262.895431,132 262,131.104569 262,130 L262,30 C262,28.8954305 262.895431,28 264,28 L294,28 Z M258,28 C259.104569,28 260,28.8954305 260,30 L260,130 C260,131.104569 259.104569,132 258,132 L228,132 C226.895431,132 226,131.104569 226,130 L226,30 C226,28.8954305 226.895431,28 228,28 L258,28 Z M137,128 C137.552285,128 138,128.447715 138,129 C138,129.552285 137.552285,130 137,130 L53,130 C52.4477153,130 52,129.552285 52,129 C52,128.447715 52.4477153,128 53,128 L137,128 Z M159,126 C158.447715,126 158,126.447715 158,127 C158,127.552285 158.447715,128 159,128 C159.552285,128 160,127.552285 160,127 C160,126.447715 159.552285,126 159,126 Z M195,126 C194.447715,126 194,126.447715 194,127 C194,127.552285 194.447715,128 195,128 C195.552285,128 196,127.552285 196,127 C196,126.447715 195.552285,126 195,126 Z M199,126 C198.447715,126 198,126.447715 198,127 C198,127.552285 198.447715,128 199,128 C199.552285,128 200,127.552285 200,127 C200,126.447715 199.552285,126 199,126 Z M203,126 C202.447715,126 202,126.447715 202,127 C202,127.552285 202.447715,128 203,128 C203.552285,128 204,127.552285 204,127 C204,126.447715 203.552285,126 203,126 Z M207,126 C206.447715,126 206,126.447715 206,127 C206,127.552285 206.447715,128 207,128 C207.552285,128 208,127.552285 208,127 C208,126.447715 207.552285,126 207,126 Z M211,126 C210.447715,126 210,126.447715 210,127 C210,127.552285 210.447715,128 211,128 C211.552285,128 212,127.552285 212,127 C212,126.447715 211.552285,126 211,126 Z M215,126 C214.447715,126 214,126.447715 214,127 C214,127.552285 214.447715,128 215,128 C215.552285,128 216,127.552285 216,127 C216,126.447715 215.552285,126 215,126 Z M219,126 C218.447715,126 218,126.447715 218,127 C218,127.552285 218.447715,128 219,128 C219.552285,128 220,127.552285 220,127 C220,126.447715 219.552285,126 219,126 Z M183,126 C182.447715,126 182,126.447715 182,127 C182,127.552285 182.447715,128 183,128 C183.552285,128 184,127.552285 184,127 C184,126.447715 183.552285,126 183,126 Z M251,126 C250.447715,126 250,126.447715 250,127 C250,127.552285 250.447715,128 251,128 C251.552285,128 252,127.552285 252,127 C252,126.447715 251.552285,126 251,126 Z M163,126 C162.447715,126 162,126.447715 162,127 C162,127.552285 162.447715,128 163,128 C163.552285,128 164,127.552285 164,127 C164,126.447715 163.552285,126 163,126 Z M247,126 C246.447715,126 246,126.447715 246,127 C246,127.552285 246.447715,128 247,128 C247.552285,128 248,127.552285 248,127 C248,126.447715 247.552285,126 247,126 Z M243,126 C242.447715,126 242,126.447715 242,127 C242,127.552285 242.447715,128 243,128 C243.552285,128 244,127.552285 244,127 C244,126.447715 243.552285,126 243,126 Z M239,126 C238.447715,126 238,126.447715 238,127 C238,127.552285 238.447715,128 239,128 C239.552285,128 240,127.552285 240,127 C240,126.447715 239.552285,126 239,126 Z M235,126 C234.447715,126 234,126.447715 234,127 C234,127.552285 234.447715,128 235,128 C235.552285,128 236,127.552285 236,127 C236,126.447715 235.552285,126 235,126 Z M231,126 C230.447715,126 230,126.447715 230,127 C230,127.552285 230.447715,128 231,128 C231.552285,128 232,127.552285 232,127 C232,126.447715 231.552285,126 231,126 Z M255,126 C254.447715,126 254,126.447715 254,127 C254,127.552285 254.447715,128 255,128 C255.552285,128 256,127.552285 256,127 C256,126.447715 255.552285,126 255,126 Z M267,126 C266.447715,126 266,126.447715 266,127 C266,127.552285 266.447715,128 267,128 C267.552285,128 268,127.552285 268,127 C268,126.447715 267.552285,126 267,126 Z M271,126 C270.447715,126 270,126.447715 270,127 C270,127.552285 270.447715,128 271,128 C271.552285,128 272,127.552285 272,127 C272,126.447715 271.552285,126 271,126 Z M275,126 C274.447715,126 274,126.447715 274,127 C274,127.552285 274.447715,128 275,128 C275.552285,128 276,127.552285 276,127 C276,126.447715 275.552285,126 275,126 Z M279,126 C278.447715,126 278,126.447715 278,127 C278,127.552285 278.447715,128 279,128 C279.552285,128 280,127.552285 280,127 C280,126.447715 279.552285,126 279,126 Z M283,126 C282.447715,126 282,126.447715 282,127 C282,127.552285 282.447715,128 283,128 C283.552285,128 284,127.552285 284,127 C284,126.447715 283.552285,126 283,126 Z M175,126 C174.447715,126 174,126.447715 174,127 C174,127.552285 174.447715,128 175,128 C175.552285,128 176,127.552285 176,127 C176,126.447715 175.552285,126 175,126 Z M287,126 C286.447715,126 286,126.447715 286,127 C286,127.552285 286.447715,128 287,128 C287.552285,128 288,127.552285 288,127 C288,126.447715 287.552285,126 287,126 Z M291,126 C290.447715,126 290,126.447715 290,127 C290,127.552285 290.447715,128 291,128 C291.552285,128 292,127.552285 292,127 C292,126.447715 291.552285,126 291,126 Z M167,126 C166.447715,126 166,126.447715 166,127 C166,127.552285 166.447715,128 167,128 C167.552285,128 168,127.552285 168,127 C168,126.447715 167.552285,126 167,126 Z M171,126 C170.447715,126 170,126.447715 170,127 C170,127.552285 170.447715,128 171,128 C171.552285,128 172,127.552285 172,127 C172,126.447715 171.552285,126 171,126 Z M179,126 C178.447715,126 178,126.447715 178,127 C178,127.552285 178.447715,128 179,128 C179.552285,128 180,127.552285 180,127 C180,126.447715 179.552285,126 179,126 Z M213,124 C212.447715,124 212,124.447715 212,125 C212,125.552285 212.447715,126 213,126 C213.552285,126 214,125.552285 214,125 C214,124.447715 213.552285,124 213,124 Z M209,124 C208.447715,124 208,124.447715 208,125 C208,125.552285 208.447715,126 209,126 C209.552285,126 210,125.552285 210,125 C210,124.447715 209.552285,124 209,124 Z M205,124 C204.447715,124 204,124.447715 204,125 C204,125.552285 204.447715,126 205,126 C205.552285,126 206,125.552285 206,125 C206,124.447715 205.552285,124 205,124 Z M201,124 C200.447715,124 200,124.447715 200,125 C200,125.552285 200.447715,126 201,126 C201.552285,126 202,125.552285 202,125 C202,124.447715 201.552285,124 201,124 Z M197,124 C196.447715,124 196,124.447715 196,125 C196,125.552285 196.447715,126 197,126 C197.552285,126 198,125.552285 198,125 C198,124.447715 197.552285,124 197,124 Z M217,124 C216.447715,124 216,124.447715 216,125 C216,125.552285 216.447715,126 217,126 C217.552285,126 218,125.552285 218,125 C218,124.447715 217.552285,124 217,124 Z M177,124 C176.447715,124 176,124.447715 176,125 C176,125.552285 176.447715,126 177,126 C177.552285,126 178,125.552285 178,125 C178,124.447715 177.552285,124 177,124 Z M181,124 C180.447715,124 180,124.447715 180,125 C180,125.552285 180.447715,126 181,126 C181.552285,126 182,125.552285 182,125 C182,124.447715 181.552285,124 181,124 Z M241,124 C240.447715,124 240,124.447715 240,125 C240,125.552285 240.447715,126 241,126 C241.552285,126 242,125.552285 242,125 C242,124.447715 241.552285,124 241,124 Z M237,124 C236.447715,124 236,124.447715 236,125 C236,125.552285 236.447715,126 237,126 C237.552285,126 238,125.552285 238,125 C238,124.447715 237.552285,124 237,124 Z M233,124 C232.447715,124 232,124.447715 232,125 C232,125.552285 232.447715,126 233,126 C233.552285,126 234,125.552285 234,125 C234,124.447715 233.552285,124 233,124 Z M161,124 C160.447715,124 160,124.447715 160,125 C160,125.552285 160.447715,126 161,126 C161.552285,126 162,125.552285 162,125 C162,124.447715 161.552285,124 161,124 Z M165,124 C164.447715,124 164,124.447715 164,125 C164,125.552285 164.447715,126 165,126 C165.552285,126 166,125.552285 166,125 C166,124.447715 165.552285,124 165,124 Z M169,124 C168.447715,124 168,124.447715 168,125 C168,125.552285 168.447715,126 169,126 C169.552285,126 170,125.552285 170,125 C170,124.447715 169.552285,124 169,124 Z M173,124 C172.447715,124 172,124.447715 172,125 C172,125.552285 172.447715,126 173,126 C173.552285,126 174,125.552285 174,125 C174,124.447715 173.552285,124 173,124 Z M289,124 C288.447715,124 288,124.447715 288,125 C288,125.552285 288.447715,126 289,126 C289.552285,126 290,125.552285 290,125 C290,124.447715 289.552285,124 289,124 Z M285,124 C284.447715,124 284,124.447715 284,125 C284,125.552285 284.447715,126 285,126 C285.552285,126 286,125.552285 286,125 C286,124.447715 285.552285,124 285,124 Z M281,124 C280.447715,124 280,124.447715 280,125 C280,125.552285 280.447715,126 281,126 C281.552285,126 282,125.552285 282,125 C282,124.447715 281.552285,124 281,124 Z M277,124 C276.447715,124 276,124.447715 276,125 C276,125.552285 276.447715,126 277,126 C277.552285,126 278,125.552285 278,125 C278,124.447715 277.552285,124 277,124 Z M273,124 C272.447715,124 272,124.447715 272,125 C272,125.552285 272.447715,126 273,126 C273.552285,126 274,125.552285 274,125 C274,124.447715 273.552285,124 273,124 Z M269,124 C268.447715,124 268,124.447715 268,125 C268,125.552285 268.447715,126 269,126 C269.552285,126 270,125.552285 270,125 C270,124.447715 269.552285,124 269,124 Z M249,124 C248.447715,124 248,124.447715 248,125 C248,125.552285 248.447715,126 249,126 C249.552285,126 250,125.552285 250,125 C250,124.447715 249.552285,124 249,124 Z M253,124 C252.447715,124 252,124.447715 252,125 C252,125.552285 252.447715,126 253,126 C253.552285,126 254,125.552285 254,125 C254,124.447715 253.552285,124 253,124 Z M136,122 C137.104569,122 138,122.895431 138,124 C138,125.104569 137.104569,126 136,126 L54,126 C52.8954305,126 52,125.104569 52,124 C52,122.895431 52.8954305,122 54,122 L136,122 Z M245,124 C244.447715,124 244,124.447715 244,125 C244,125.552285 244.447715,126 245,126 C245.552285,126 246,125.552285 246,125 C246,124.447715 245.552285,124 245,124 Z M239,122 C238.447715,122 238,122.447715 238,123 C238,123.552285 238.447715,124 239,124 C239.552285,124 240,123.552285 240,123 C240,122.447715 239.552285,122 239,122 Z M235,122 C234.447715,122 234,122.447715 234,123 C234,123.552285 234.447715,124 235,124 C235.552285,124 236,123.552285 236,123 C236,122.447715 235.552285,122 235,122 Z M243,122 C242.447715,122 242,122.447715 242,123 C242,123.552285 242.447715,124 243,124 C243.552285,124 244,123.552285 244,123 C244,122.447715 243.552285,122 243,122 Z M171,122 C170.447715,122 170,122.447715 170,123 C170,123.552285 170.447715,124 171,124 C171.552285,124 172,123.552285 172,123 C172,122.447715 171.552285,122 171,122 Z M215,122 C214.447715,122 214,122.447715 214,123 C214,123.552285 214.447715,124 215,124 C215.552285,124 216,123.552285 216,123 C216,122.447715 215.552285,122 215,122 Z M211,122 C210.447715,122 210,122.447715 210,123 C210,123.552285 210.447715,124 211,124 C211.552285,124 212,123.552285 212,123 C212,122.447715 211.552285,122 211,122 Z M167,122 C166.447715,122 166,122.447715 166,123 C166,123.552285 166.447715,124 167,124 C167.552285,124 168,123.552285 168,123 C168,122.447715 167.552285,122 167,122 Z M267,122 C266.447715,122 266,122.447715 266,123 C266,123.552285 266.447715,124 267,124 C267.552285,124 268,123.552285 268,123 C268,122.447715 267.552285,122 267,122 Z M271,122 C270.447715,122 270,122.447715 270,123 C270,123.552285 270.447715,124 271,124 C271.552285,124 272,123.552285 272,123 C272,122.447715 271.552285,122 271,122 Z M275,122 C274.447715,122 274,122.447715 274,123 C274,123.552285 274.447715,124 275,124 C275.552285,124 276,123.552285 276,123 C276,122.447715 275.552285,122 275,122 Z M279,122 C278.447715,122 278,122.447715 278,123 C278,123.552285 278.447715,124 279,124 C279.552285,124 280,123.552285 280,123 C280,122.447715 279.552285,122 279,122 Z M283,122 C282.447715,122 282,122.447715 282,123 C282,123.552285 282.447715,124 283,124 C283.552285,124 284,123.552285 284,123 C284,122.447715 283.552285,122 283,122 Z M287,122 C286.447715,122 286,122.447715 286,123 C286,123.552285 286.447715,124 287,124 C287.552285,124 288,123.552285 288,123 C288,122.447715 287.552285,122 287,122 Z M291,122 C290.447715,122 290,122.447715 290,123 C290,123.552285 290.447715,124 291,124 C291.552285,124 292,123.552285 292,123 C292,122.447715 291.552285,122 291,122 Z M175,122 C174.447715,122 174,122.447715 174,123 C174,123.552285 174.447715,124 175,124 C175.552285,124 176,123.552285 176,123 C176,122.447715 175.552285,122 175,122 Z M219,122 C218.447715,122 218,122.447715 218,123 C218,123.552285 218.447715,124 219,124 C219.552285,124 220,123.552285 220,123 C220,122.447715 219.552285,122 219,122 Z M195,122 C194.447715,122 194,122.447715 194,123 C194,123.552285 194.447715,124 195,124 C195.552285,124 196,123.552285 196,123 C196,122.447715 195.552285,122 195,122 Z M199,122 C198.447715,122 198,122.447715 198,123 C198,123.552285 198.447715,124 199,124 C199.552285,124 200,123.552285 200,123 C200,122.447715 199.552285,122 199,122 Z M203,122 C202.447715,122 202,122.447715 202,123 C202,123.552285 202.447715,124 203,124 C203.552285,124 204,123.552285 204,123 C204,122.447715 203.552285,122 203,122 Z M207,122 C206.447715,122 206,122.447715 206,123 C206,123.552285 206.447715,124 207,124 C207.552285,124 208,123.552285 208,123 C208,122.447715 207.552285,122 207,122 Z M179,122 C178.447715,122 178,122.447715 178,123 C178,123.552285 178.447715,124 179,124 C179.552285,124 180,123.552285 180,123 C180,122.447715 179.552285,122 179,122 Z M183,122 C182.447715,122 182,122.447715 182,123 C182,123.552285 182.447715,124 183,124 C183.552285,124 184,123.552285 184,123 C184,122.447715 183.552285,122 183,122 Z M159,122 C158.447715,122 158,122.447715 158,123 C158,123.552285 158.447715,124 159,124 C159.552285,124 160,123.552285 160,123 C160,122.447715 159.552285,122 159,122 Z M163,122 C162.447715,122 162,122.447715 162,123 C162,123.552285 162.447715,124 163,124 C163.552285,124 164,123.552285 164,123 C164,122.447715 163.552285,122 163,122 Z M247,122 C246.447715,122 246,122.447715 246,123 C246,123.552285 246.447715,124 247,124 C247.552285,124 248,123.552285 248,123 C248,122.447715 247.552285,122 247,122 Z M251,122 C250.447715,122 250,122.447715 250,123 C250,123.552285 250.447715,124 251,124 C251.552285,124 252,123.552285 252,123 C252,122.447715 251.552285,122 251,122 Z M255,122 C254.447715,122 254,122.447715 254,123 C254,123.552285 254.447715,124 255,124 C255.552285,124 256,123.552285 256,123 C256,122.447715 255.552285,122 255,122 Z M231,122 C230.447715,122 230,122.447715 230,123 C230,123.552285 230.447715,124 231,124 C231.552285,124 232,123.552285 232,123 C232,122.447715 231.552285,122 231,122 Z M136,90 C137.104569,90 138,90.8954305 138,92 L138,118 C138,119.104569 137.104569,120 136,120 L54,120 C52.8954305,120 52,119.104569 52,118 L52,92 C52,90.8954305 52.8954305,90 54,90 L136,90 Z M233,77 C231.343146,77 230,78.3431458 230,80 C230,81.6568542 231.343146,83 233,83 C234.656854,83 236,81.6568542 236,80 C236,78.3431458 234.656854,77 233,77 Z M161,77 C159.343146,77 158,78.3431458 158,80 C158,81.6568542 159.343146,83 161,83 C162.656854,83 164,81.6568542 164,80 C164,78.3431458 162.656854,77 161,77 Z M269,77 C267.343146,77 266,78.3431458 266,80 C266,81.6568542 267.343146,83 269,83 C270.656854,83 272,81.6568542 272,80 C272,78.3431458 270.656854,77 269,77 Z M197,77 C195.343146,77 194,78.3431458 194,80 C194,81.6568542 195.343146,83 197,83 C198.656854,83 200,81.6568542 200,80 C200,78.3431458 198.656854,77 197,77 Z M279,36 C278.447715,36 278,36.4477153 278,37 C278,37.5522847 278.447715,38 279,38 C279.552285,38 280,37.5522847 280,37 C280,36.4477153 279.552285,36 279,36 Z M283,36 C282.447715,36 282,36.4477153 282,37 C282,37.5522847 282.447715,38 283,38 C283.552285,38 284,37.5522847 284,37 C284,36.4477153 283.552285,36 283,36 Z M287,36 C286.447715,36 286,36.4477153 286,37 C286,37.5522847 286.447715,38 287,38 C287.552285,38 288,37.5522847 288,37 C288,36.4477153 287.552285,36 287,36 Z M291,36 C290.447715,36 290,36.4477153 290,37 C290,37.5522847 290.447715,38 291,38 C291.552285,38 292,37.5522847 292,37 C292,36.4477153 291.552285,36 291,36 Z M255,36 C254.447715,36 254,36.4477153 254,37 C254,37.5522847 254.447715,38 255,38 C255.552285,38 256,37.5522847 256,37 C256,36.4477153 255.552285,36 255,36 Z M247,36 C246.447715,36 246,36.4477153 246,37 C246,37.5522847 246.447715,38 247,38 C247.552285,38 248,37.5522847 248,37 C248,36.4477153 247.552285,36 247,36 Z M243,36 C242.447715,36 242,36.4477153 242,37 C242,37.5522847 242.447715,38 243,38 C243.552285,38 244,37.5522847 244,37 C244,36.4477153 243.552285,36 243,36 Z M239,36 C238.447715,36 238,36.4477153 238,37 C238,37.5522847 238.447715,38 239,38 C239.552285,38 240,37.5522847 240,37 C240,36.4477153 239.552285,36 239,36 Z M235,36 C234.447715,36 234,36.4477153 234,37 C234,37.5522847 234.447715,38 235,38 C235.552285,38 236,37.5522847 236,37 C236,36.4477153 235.552285,36 235,36 Z M231,36 C230.447715,36 230,36.4477153 230,37 C230,37.5522847 230.447715,38 231,38 C231.552285,38 232,37.5522847 232,37 C232,36.4477153 231.552285,36 231,36 Z M159,36 C158.447715,36 158,36.4477153 158,37 C158,37.5522847 158.447715,38 159,38 C159.552285,38 160,37.5522847 160,37 C160,36.4477153 159.552285,36 159,36 Z M183,36 C182.447715,36 182,36.4477153 182,37 C182,37.5522847 182.447715,38 183,38 C183.552285,38 184,37.5522847 184,37 C184,36.4477153 183.552285,36 183,36 Z M179,36 C178.447715,36 178,36.4477153 178,37 C178,37.5522847 178.447715,38 179,38 C179.552285,38 180,37.5522847 180,37 C180,36.4477153 179.552285,36 179,36 Z M175,36 C174.447715,36 174,36.4477153 174,37 C174,37.5522847 174.447715,38 175,38 C175.552285,38 176,37.5522847 176,37 C176,36.4477153 175.552285,36 175,36 Z M171,36 C170.447715,36 170,36.4477153 170,37 C170,37.5522847 170.447715,38 171,38 C171.552285,38 172,37.5522847 172,37 C172,36.4477153 171.552285,36 171,36 Z M167,36 C166.447715,36 166,36.4477153 166,37 C166,37.5522847 166.447715,38 167,38 C167.552285,38 168,37.5522847 168,37 C168,36.4477153 167.552285,36 167,36 Z M163,36 C162.447715,36 162,36.4477153 162,37 C162,37.5522847 162.447715,38 163,38 C163.552285,38 164,37.5522847 164,37 C164,36.4477153 163.552285,36 163,36 Z M219,36 C218.447715,36 218,36.4477153 218,37 C218,37.5522847 218.447715,38 219,38 C219.552285,38 220,37.5522847 220,37 C220,36.4477153 219.552285,36 219,36 Z M215,36 C214.447715,36 214,36.4477153 214,37 C214,37.5522847 214.447715,38 215,38 C215.552285,38 216,37.5522847 216,37 C216,36.4477153 215.552285,36 215,36 Z M211,36 C210.447715,36 210,36.4477153 210,37 C210,37.5522847 210.447715,38 211,38 C211.552285,38 212,37.5522847 212,37 C212,36.4477153 211.552285,36 211,36 Z M207,36 C206.447715,36 206,36.4477153 206,37 C206,37.5522847 206.447715,38 207,38 C207.552285,38 208,37.5522847 208,37 C208,36.4477153 207.552285,36 207,36 Z M203,36 C202.447715,36 202,36.4477153 202,37 C202,37.5522847 202.447715,38 203,38 C203.552285,38 204,37.5522847 204,37 C204,36.4477153 203.552285,36 203,36 Z M199,36 C198.447715,36 198,36.4477153 198,37 C198,37.5522847 198.447715,38 199,38 C199.552285,38 200,37.5522847 200,37 C200,36.4477153 199.552285,36 199,36 Z M251,36 C250.447715,36 250,36.4477153 250,37 C250,37.5522847 250.447715,38 251,38 C251.552285,38 252,37.5522847 252,37 C252,36.4477153 251.552285,36 251,36 Z M267,36 C266.447715,36 266,36.4477153 266,37 C266,37.5522847 266.447715,38 267,38 C267.552285,38 268,37.5522847 268,37 C268,36.4477153 267.552285,36 267,36 Z M271,36 C270.447715,36 270,36.4477153 270,37 C270,37.5522847 270.447715,38 271,38 C271.552285,38 272,37.5522847 272,37 C272,36.4477153 271.552285,36 271,36 Z M275,36 C274.447715,36 274,36.4477153 274,37 C274,37.5522847 274.447715,38 275,38 C275.552285,38 276,37.5522847 276,37 C276,36.4477153 275.552285,36 275,36 Z M195,36 C194.447715,36 194,36.4477153 194,37 C194,37.5522847 194.447715,38 195,38 C195.552285,38 196,37.5522847 196,37 C196,36.4477153 195.552285,36 195,36 Z M281,34 C280.447715,34 280,34.4477153 280,35 C280,35.5522847 280.447715,36 281,36 C281.552285,36 282,35.5522847 282,35 C282,34.4477153 281.552285,34 281,34 Z M285,34 C284.447715,34 284,34.4477153 284,35 C284,35.5522847 284.447715,36 285,36 C285.552285,36 286,35.5522847 286,35 C286,34.4477153 285.552285,34 285,34 Z M289,34 C288.447715,34 288,34.4477153 288,35 C288,35.5522847 288.447715,36 289,36 C289.552285,36 290,35.5522847 290,35 C290,34.4477153 289.552285,34 289,34 Z M241,34 C240.447715,34 240,34.4477153 240,35 C240,35.5522847 240.447715,36 241,36 C241.552285,36 242,35.5522847 242,35 C242,34.4477153 241.552285,34 241,34 Z M245,34 C244.447715,34 244,34.4477153 244,35 C244,35.5522847 244.447715,36 245,36 C245.552285,36 246,35.5522847 246,35 C246,34.4477153 245.552285,34 245,34 Z M177,34 C176.447715,34 176,34.4477153 176,35 C176,35.5522847 176.447715,36 177,36 C177.552285,36 178,35.5522847 178,35 C178,34.4477153 177.552285,34 177,34 Z M249,34 C248.447715,34 248,34.4477153 248,35 C248,35.5522847 248.447715,36 249,36 C249.552285,36 250,35.5522847 250,35 C250,34.4477153 249.552285,34 249,34 Z M253,34 C252.447715,34 252,34.4477153 252,35 C252,35.5522847 252.447715,36 253,36 C253.552285,36 254,35.5522847 254,35 C254,34.4477153 253.552285,34 253,34 Z M233,34 C232.447715,34 232,34.4477153 232,35 C232,35.5522847 232.447715,36 233,36 C233.552285,36 234,35.5522847 234,35 C234,34.4477153 233.552285,34 233,34 Z M181,34 C180.447715,34 180,34.4477153 180,35 C180,35.5522847 180.447715,36 181,36 C181.552285,36 182,35.5522847 182,35 C182,34.4477153 181.552285,34 181,34 Z M277,34 C276.447715,34 276,34.4477153 276,35 C276,35.5522847 276.447715,36 277,36 C277.552285,36 278,35.5522847 278,35 C278,34.4477153 277.552285,34 277,34 Z M165,34 C164.447715,34 164,34.4477153 164,35 C164,35.5522847 164.447715,36 165,36 C165.552285,36 166,35.5522847 166,35 C166,34.4477153 165.552285,34 165,34 Z M169,34 C168.447715,34 168,34.4477153 168,35 C168,35.5522847 168.447715,36 169,36 C169.552285,36 170,35.5522847 170,35 C170,34.4477153 169.552285,34 169,34 Z M173,34 C172.447715,34 172,34.4477153 172,35 C172,35.5522847 172.447715,36 173,36 C173.552285,36 174,35.5522847 174,35 C174,34.4477153 173.552285,34 173,34 Z M217,34 C216.447715,34 216,34.4477153 216,35 C216,35.5522847 216.447715,36 217,36 C217.552285,36 218,35.5522847 218,35 C218,34.4477153 217.552285,34 217,34 Z M213,34 C212.447715,34 212,34.4477153 212,35 C212,35.5522847 212.447715,36 213,36 C213.552285,36 214,35.5522847 214,35 C214,34.4477153 213.552285,34 213,34 Z M197,34 C196.447715,34 196,34.4477153 196,35 C196,35.5522847 196.447715,36 197,36 C197.552285,36 198,35.5522847 198,35 C198,34.4477153 197.552285,34 197,34 Z M205,34 C204.447715,34 204,34.4477153 204,35 C204,35.5522847 204.447715,36 205,36 C205.552285,36 206,35.5522847 206,35 C206,34.4477153 205.552285,34 205,34 Z M209,34 C208.447715,34 208,34.4477153 208,35 C208,35.5522847 208.447715,36 209,36 C209.552285,36 210,35.5522847 210,35 C210,34.4477153 209.552285,34 209,34 Z M237,34 C236.447715,34 236,34.4477153 236,35 C236,35.5522847 236.447715,36 237,36 C237.552285,36 238,35.5522847 238,35 C238,34.4477153 237.552285,34 237,34 Z M201,34 C200.447715,34 200,34.4477153 200,35 C200,35.5522847 200.447715,36 201,36 C201.552285,36 202,35.5522847 202,35 C202,34.4477153 201.552285,34 201,34 Z M269,34 C268.447715,34 268,34.4477153 268,35 C268,35.5522847 268.447715,36 269,36 C269.552285,36 270,35.5522847 270,35 C270,34.4477153 269.552285,34 269,34 Z M273,34 C272.447715,34 272,34.4477153 272,35 C272,35.5522847 272.447715,36 273,36 C273.552285,36 274,35.5522847 274,35 C274,34.4477153 273.552285,34 273,34 Z M161,34 C160.447715,34 160,34.4477153 160,35 C160,35.5522847 160.447715,36 161,36 C161.552285,36 162,35.5522847 162,35 C162,34.4477153 161.552285,34 161,34 Z M167,32 C166.447715,32 166,32.4477153 166,33 C166,33.5522847 166.447715,34 167,34 C167.552285,34 168,33.5522847 168,33 C168,32.4477153 167.552285,32 167,32 Z M171,32 C170.447715,32 170,32.4477153 170,33 C170,33.5522847 170.447715,34 171,34 C171.552285,34 172,33.5522847 172,33 C172,32.4477153 171.552285,32 171,32 Z M163,32 C162.447715,32 162,32.4477153 162,33 C162,33.5522847 162.447715,34 163,34 C163.552285,34 164,33.5522847 164,33 C164,32.4477153 163.552285,32 163,32 Z M179,32 C178.447715,32 178,32.4477153 178,33 C178,33.5522847 178.447715,34 179,34 C179.552285,34 180,33.5522847 180,33 C180,32.4477153 179.552285,32 179,32 Z M215,32 C214.447715,32 214,32.4477153 214,33 C214,33.5522847 214.447715,34 215,34 C215.552285,34 216,33.5522847 216,33 C216,32.4477153 215.552285,32 215,32 Z M211,32 C210.447715,32 210,32.4477153 210,33 C210,33.5522847 210.447715,34 211,34 C211.552285,34 212,33.5522847 212,33 C212,32.4477153 211.552285,32 211,32 Z M203,32 C202.447715,32 202,32.4477153 202,33 C202,33.5522847 202.447715,34 203,34 C203.552285,34 204,33.5522847 204,33 C204,32.4477153 203.552285,32 203,32 Z M207,32 C206.447715,32 206,32.4477153 206,33 C206,33.5522847 206.447715,34 207,34 C207.552285,34 208,33.5522847 208,33 C208,32.4477153 207.552285,32 207,32 Z M255,32 C254.447715,32 254,32.4477153 254,33 C254,33.5522847 254.447715,34 255,34 C255.552285,34 256,33.5522847 256,33 C256,32.4477153 255.552285,32 255,32 Z M231,32 C230.447715,32 230,32.4477153 230,33 C230,33.5522847 230.447715,34 231,34 C231.552285,34 232,33.5522847 232,33 C232,32.4477153 231.552285,32 231,32 Z M235,32 C234.447715,32 234,32.4477153 234,33 C234,33.5522847 234.447715,34 235,34 C235.552285,34 236,33.5522847 236,33 C236,32.4477153 235.552285,32 235,32 Z M239,32 C238.447715,32 238,32.4477153 238,33 C238,33.5522847 238.447715,34 239,34 C239.552285,34 240,33.5522847 240,33 C240,32.4477153 239.552285,32 239,32 Z M243,32 C242.447715,32 242,32.4477153 242,33 C242,33.5522847 242.447715,34 243,34 C243.552285,34 244,33.5522847 244,33 C244,32.4477153 243.552285,32 243,32 Z M247,32 C246.447715,32 246,32.4477153 246,33 C246,33.5522847 246.447715,34 247,34 C247.552285,34 248,33.5522847 248,33 C248,32.4477153 247.552285,32 247,32 Z M251,32 C250.447715,32 250,32.4477153 250,33 C250,33.5522847 250.447715,34 251,34 C251.552285,34 252,33.5522847 252,33 C252,32.4477153 251.552285,32 251,32 Z M195,32 C194.447715,32 194,32.4477153 194,33 C194,33.5522847 194.447715,34 195,34 C195.552285,34 196,33.5522847 196,33 C196,32.4477153 195.552285,32 195,32 Z M287,32 C286.447715,32 286,32.4477153 286,33 C286,33.5522847 286.447715,34 287,34 C287.552285,34 288,33.5522847 288,33 C288,32.4477153 287.552285,32 287,32 Z M283,32 C282.447715,32 282,32.4477153 282,33 C282,33.5522847 282.447715,34 283,34 C283.552285,34 284,33.5522847 284,33 C284,32.4477153 283.552285,32 283,32 Z M279,32 C278.447715,32 278,32.4477153 278,33 C278,33.5522847 278.447715,34 279,34 C279.552285,34 280,33.5522847 280,33 C280,32.4477153 279.552285,32 279,32 Z M275,32 C274.447715,32 274,32.4477153 274,33 C274,33.5522847 274.447715,34 275,34 C275.552285,34 276,33.5522847 276,33 C276,32.4477153 275.552285,32 275,32 Z M271,32 C270.447715,32 270,32.4477153 270,33 C270,33.5522847 270.447715,34 271,34 C271.552285,34 272,33.5522847 272,33 C272,32.4477153 271.552285,32 271,32 Z M267,32 C266.447715,32 266,32.4477153 266,33 C266,33.5522847 266.447715,34 267,34 C267.552285,34 268,33.5522847 268,33 C268,32.4477153 267.552285,32 267,32 Z M291,32 C290.447715,32 290,32.4477153 290,33 C290,33.5522847 290.447715,34 291,34 C291.552285,34 292,33.5522847 292,33 C292,32.4477153 291.552285,32 291,32 Z M219,32 C218.447715,32 218,32.4477153 218,33 C218,33.5522847 218.447715,34 219,34 C219.552285,34 220,33.5522847 220,33 C220,32.4477153 219.552285,32 219,32 Z M199,32 C198.447715,32 198,32.4477153 198,33 C198,33.5522847 198.447715,34 199,34 C199.552285,34 200,33.5522847 200,33 C200,32.4477153 199.552285,32 199,32 Z M159,32 C158.447715,32 158,32.4477153 158,33 C158,33.5522847 158.447715,34 159,34 C159.552285,34 160,33.5522847 160,33 C160,32.4477153 159.552285,32 159,32 Z M183,32 C182.447715,32 182,32.4477153 182,33 C182,33.5522847 182.447715,34 183,34 C183.552285,34 184,33.5522847 184,33 C184,32.4477153 183.552285,32 183,32 Z M175,32 C174.447715,32 174,32.4477153 174,33 C174,33.5522847 174.447715,34 175,34 C175.552285,34 176,33.5522847 176,33 C176,32.4477153 175.552285,32 175,32 Z" id="Shape" fill="#909099" fill-rule="nonzero"></path>
                <g id="Group-20" transform="translate(52.000000, 24.000000)"></g>
            </g>
        </g>
    </g>
</svg>