<?xml version="1.0" encoding="UTF-8"?>
<svg width="183px" height="183px" viewBox="0 0 183 183" version="1.1" xmlns="http://www.w3.org/2000/svg" xmlns:xlink="http://www.w3.org/1999/xlink">
    <!-- Generator: sketchtool 61.2 (101010) - https://sketch.com -->
    <title>8C316F4F-9324-4A00-980C-F140639EBB38</title>
    <desc>Created with sketchtool.</desc>
    <defs>
        <rect id="path-1" x="0" y="0" width="183" height="183"></rect>
    </defs>
    <g id="Page-1" stroke="none" stroke-width="1" fill="none" fill-rule="evenodd">
        <g id="graphics-PS_Practice_Cat" transform="translate(-528.000000, -512.000000)">
            <g id="03m" transform="translate(528.000000, 512.000000)">
                <mask id="mask-2" fill="white">
                    <use xlink:href="#path-1"></use>
                </mask>
                <use id="Mask" fill="#E6E6EB" xlink:href="#path-1"></use>
                <path d="M132,146 L130.110432,163.006116 C130.047563,163.571936 129.569302,164 129,164 C128.430698,164 127.952437,163.571936 127.889568,163.006116 L126,146 L132,146 Z M268,146 L266.110432,163.006116 C266.047563,163.571936 265.569302,164 265,164 C264.430698,164 263.952437,163.571936 263.889568,163.006116 L262,146 L268,146 Z M34,140 L32.0830455,163.003454 C32.0361055,163.566734 31.5652321,164 31,164 C30.4347679,164 29.9638945,163.566734 29.9169545,163.003454 L28,140 L34,140 Z M106,140 L104.083045,163.003454 C104.036106,163.566734 103.565232,164 103,164 C102.434768,164 101.963894,163.566734 101.916955,163.003454 L100,140 L106,140 Z M267,32 C269.761424,32 272,34.2385763 272,37 L272,139 C272,141.761424 269.761424,144 267,144 L127,144 C124.238576,144 122,141.761424 122,139 L122,37 C122,34.2385763 124.238576,32 127,32 L267,32 Z M267,34 L127,34 C125.343146,34 124,35.3431458 124,37 L124,139 C124,140.656854 125.343146,142 127,142 L267,142 C268.656854,142 270,140.656854 270,139 L270,37 C270,35.3431458 268.656854,34 267,34 Z M158,36 C159.104569,36 160,36.8954305 160,38 L160,138 C160,139.104569 159.104569,140 158,140 L128,140 C126.895431,140 126,139.104569 126,138 L126,38 C126,36.8954305 126.895431,36 128,36 L158,36 Z M194,36 C195.104569,36 196,36.8954305 196,38 L196,138 C196,139.104569 195.104569,140 194,140 L164,140 C162.895431,140 162,139.104569 162,138 L162,38 C162,36.8954305 162.895431,36 164,36 L194,36 Z M266,36 C267.104569,36 268,36.8954305 268,38 L268,138 C268,139.104569 267.104569,140 266,140 L236,140 C234.895431,140 234,139.104569 234,138 L234,38 C234,36.8954305 234.895431,36 236,36 L266,36 Z M230,36 C231.104569,36 232,36.8954305 232,38 L232,138 C232,139.104569 231.104569,140 230,140 L200,140 C198.895431,140 198,139.104569 198,138 L198,38 C198,36.8954305 198.895431,36 200,36 L230,36 Z M109,136 C109.552285,136 110,136.447715 110,137 C110,137.552285 109.552285,138 109,138 L25,138 C24.4477153,138 24,137.552285 24,137 C24,136.447715 24.4477153,136 25,136 L109,136 Z M131,134 C130.447715,134 130,134.447715 130,135 C130,135.552285 130.447715,136 131,136 C131.552285,136 132,135.552285 132,135 C132,134.447715 131.552285,134 131,134 Z M167,134 C166.447715,134 166,134.447715 166,135 C166,135.552285 166.447715,136 167,136 C167.552285,136 168,135.552285 168,135 C168,134.447715 167.552285,134 167,134 Z M171,134 C170.447715,134 170,134.447715 170,135 C170,135.552285 170.447715,136 171,136 C171.552285,136 172,135.552285 172,135 C172,134.447715 171.552285,134 171,134 Z M175,134 C174.447715,134 174,134.447715 174,135 C174,135.552285 174.447715,136 175,136 C175.552285,136 176,135.552285 176,135 C176,134.447715 175.552285,134 175,134 Z M179,134 C178.447715,134 178,134.447715 178,135 C178,135.552285 178.447715,136 179,136 C179.552285,136 180,135.552285 180,135 C180,134.447715 179.552285,134 179,134 Z M183,134 C182.447715,134 182,134.447715 182,135 C182,135.552285 182.447715,136 183,136 C183.552285,136 184,135.552285 184,135 C184,134.447715 183.552285,134 183,134 Z M187,134 C186.447715,134 186,134.447715 186,135 C186,135.552285 186.447715,136 187,136 C187.552285,136 188,135.552285 188,135 C188,134.447715 187.552285,134 187,134 Z M191,134 C190.447715,134 190,134.447715 190,135 C190,135.552285 190.447715,136 191,136 C191.552285,136 192,135.552285 192,135 C192,134.447715 191.552285,134 191,134 Z M155,134 C154.447715,134 154,134.447715 154,135 C154,135.552285 154.447715,136 155,136 C155.552285,136 156,135.552285 156,135 C156,134.447715 155.552285,134 155,134 Z M223,134 C222.447715,134 222,134.447715 222,135 C222,135.552285 222.447715,136 223,136 C223.552285,136 224,135.552285 224,135 C224,134.447715 223.552285,134 223,134 Z M135,134 C134.447715,134 134,134.447715 134,135 C134,135.552285 134.447715,136 135,136 C135.552285,136 136,135.552285 136,135 C136,134.447715 135.552285,134 135,134 Z M219,134 C218.447715,134 218,134.447715 218,135 C218,135.552285 218.447715,136 219,136 C219.552285,136 220,135.552285 220,135 C220,134.447715 219.552285,134 219,134 Z M215,134 C214.447715,134 214,134.447715 214,135 C214,135.552285 214.447715,136 215,136 C215.552285,136 216,135.552285 216,135 C216,134.447715 215.552285,134 215,134 Z M211,134 C210.447715,134 210,134.447715 210,135 C210,135.552285 210.447715,136 211,136 C211.552285,136 212,135.552285 212,135 C212,134.447715 211.552285,134 211,134 Z M207,134 C206.447715,134 206,134.447715 206,135 C206,135.552285 206.447715,136 207,136 C207.552285,136 208,135.552285 208,135 C208,134.447715 207.552285,134 207,134 Z M203,134 C202.447715,134 202,134.447715 202,135 C202,135.552285 202.447715,136 203,136 C203.552285,136 204,135.552285 204,135 C204,134.447715 203.552285,134 203,134 Z M227,134 C226.447715,134 226,134.447715 226,135 C226,135.552285 226.447715,136 227,136 C227.552285,136 228,135.552285 228,135 C228,134.447715 227.552285,134 227,134 Z M239,134 C238.447715,134 238,134.447715 238,135 C238,135.552285 238.447715,136 239,136 C239.552285,136 240,135.552285 240,135 C240,134.447715 239.552285,134 239,134 Z M243,134 C242.447715,134 242,134.447715 242,135 C242,135.552285 242.447715,136 243,136 C243.552285,136 244,135.552285 244,135 C244,134.447715 243.552285,134 243,134 Z M247,134 C246.447715,134 246,134.447715 246,135 C246,135.552285 246.447715,136 247,136 C247.552285,136 248,135.552285 248,135 C248,134.447715 247.552285,134 247,134 Z M251,134 C250.447715,134 250,134.447715 250,135 C250,135.552285 250.447715,136 251,136 C251.552285,136 252,135.552285 252,135 C252,134.447715 251.552285,134 251,134 Z M255,134 C254.447715,134 254,134.447715 254,135 C254,135.552285 254.447715,136 255,136 C255.552285,136 256,135.552285 256,135 C256,134.447715 255.552285,134 255,134 Z M147,134 C146.447715,134 146,134.447715 146,135 C146,135.552285 146.447715,136 147,136 C147.552285,136 148,135.552285 148,135 C148,134.447715 147.552285,134 147,134 Z M259,134 C258.447715,134 258,134.447715 258,135 C258,135.552285 258.447715,136 259,136 C259.552285,136 260,135.552285 260,135 C260,134.447715 259.552285,134 259,134 Z M263,134 C262.447715,134 262,134.447715 262,135 C262,135.552285 262.447715,136 263,136 C263.552285,136 264,135.552285 264,135 C264,134.447715 263.552285,134 263,134 Z M139,134 C138.447715,134 138,134.447715 138,135 C138,135.552285 138.447715,136 139,136 C139.552285,136 140,135.552285 140,135 C140,134.447715 139.552285,134 139,134 Z M143,134 C142.447715,134 142,134.447715 142,135 C142,135.552285 142.447715,136 143,136 C143.552285,136 144,135.552285 144,135 C144,134.447715 143.552285,134 143,134 Z M151,134 C150.447715,134 150,134.447715 150,135 C150,135.552285 150.447715,136 151,136 C151.552285,136 152,135.552285 152,135 C152,134.447715 151.552285,134 151,134 Z M185,132 C184.447715,132 184,132.447715 184,133 C184,133.552285 184.447715,134 185,134 C185.552285,134 186,133.552285 186,133 C186,132.447715 185.552285,132 185,132 Z M181,132 C180.447715,132 180,132.447715 180,133 C180,133.552285 180.447715,134 181,134 C181.552285,134 182,133.552285 182,133 C182,132.447715 181.552285,132 181,132 Z M177,132 C176.447715,132 176,132.447715 176,133 C176,133.552285 176.447715,134 177,134 C177.552285,134 178,133.552285 178,133 C178,132.447715 177.552285,132 177,132 Z M173,132 C172.447715,132 172,132.447715 172,133 C172,133.552285 172.447715,134 173,134 C173.552285,134 174,133.552285 174,133 C174,132.447715 173.552285,132 173,132 Z M169,132 C168.447715,132 168,132.447715 168,133 C168,133.552285 168.447715,134 169,134 C169.552285,134 170,133.552285 170,133 C170,132.447715 169.552285,132 169,132 Z M189,132 C188.447715,132 188,132.447715 188,133 C188,133.552285 188.447715,134 189,134 C189.552285,134 190,133.552285 190,133 C190,132.447715 189.552285,132 189,132 Z M149,132 C148.447715,132 148,132.447715 148,133 C148,133.552285 148.447715,134 149,134 C149.552285,134 150,133.552285 150,133 C150,132.447715 149.552285,132 149,132 Z M153,132 C152.447715,132 152,132.447715 152,133 C152,133.552285 152.447715,134 153,134 C153.552285,134 154,133.552285 154,133 C154,132.447715 153.552285,132 153,132 Z M213,132 C212.447715,132 212,132.447715 212,133 C212,133.552285 212.447715,134 213,134 C213.552285,134 214,133.552285 214,133 C214,132.447715 213.552285,132 213,132 Z M209,132 C208.447715,132 208,132.447715 208,133 C208,133.552285 208.447715,134 209,134 C209.552285,134 210,133.552285 210,133 C210,132.447715 209.552285,132 209,132 Z M205,132 C204.447715,132 204,132.447715 204,133 C204,133.552285 204.447715,134 205,134 C205.552285,134 206,133.552285 206,133 C206,132.447715 205.552285,132 205,132 Z M133,132 C132.447715,132 132,132.447715 132,133 C132,133.552285 132.447715,134 133,134 C133.552285,134 134,133.552285 134,133 C134,132.447715 133.552285,132 133,132 Z M137,132 C136.447715,132 136,132.447715 136,133 C136,133.552285 136.447715,134 137,134 C137.552285,134 138,133.552285 138,133 C138,132.447715 137.552285,132 137,132 Z M141,132 C140.447715,132 140,132.447715 140,133 C140,133.552285 140.447715,134 141,134 C141.552285,134 142,133.552285 142,133 C142,132.447715 141.552285,132 141,132 Z M145,132 C144.447715,132 144,132.447715 144,133 C144,133.552285 144.447715,134 145,134 C145.552285,134 146,133.552285 146,133 C146,132.447715 145.552285,132 145,132 Z M261,132 C260.447715,132 260,132.447715 260,133 C260,133.552285 260.447715,134 261,134 C261.552285,134 262,133.552285 262,133 C262,132.447715 261.552285,132 261,132 Z M257,132 C256.447715,132 256,132.447715 256,133 C256,133.552285 256.447715,134 257,134 C257.552285,134 258,133.552285 258,133 C258,132.447715 257.552285,132 257,132 Z M253,132 C252.447715,132 252,132.447715 252,133 C252,133.552285 252.447715,134 253,134 C253.552285,134 254,133.552285 254,133 C254,132.447715 253.552285,132 253,132 Z M249,132 C248.447715,132 248,132.447715 248,133 C248,133.552285 248.447715,134 249,134 C249.552285,134 250,133.552285 250,133 C250,132.447715 249.552285,132 249,132 Z M245,132 C244.447715,132 244,132.447715 244,133 C244,133.552285 244.447715,134 245,134 C245.552285,134 246,133.552285 246,133 C246,132.447715 245.552285,132 245,132 Z M241,132 C240.447715,132 240,132.447715 240,133 C240,133.552285 240.447715,134 241,134 C241.552285,134 242,133.552285 242,133 C242,132.447715 241.552285,132 241,132 Z M221,132 C220.447715,132 220,132.447715 220,133 C220,133.552285 220.447715,134 221,134 C221.552285,134 222,133.552285 222,133 C222,132.447715 221.552285,132 221,132 Z M225,132 C224.447715,132 224,132.447715 224,133 C224,133.552285 224.447715,134 225,134 C225.552285,134 226,133.552285 226,133 C226,132.447715 225.552285,132 225,132 Z M108,130 C109.104569,130 110,130.895431 110,132 C110,133.104569 109.104569,134 108,134 L26,134 C24.8954305,134 24,133.104569 24,132 C24,130.895431 24.8954305,130 26,130 L108,130 Z M217,132 C216.447715,132 216,132.447715 216,133 C216,133.552285 216.447715,134 217,134 C217.552285,134 218,133.552285 218,133 C218,132.447715 217.552285,132 217,132 Z M211,130 C210.447715,130 210,130.447715 210,131 C210,131.552285 210.447715,132 211,132 C211.552285,132 212,131.552285 212,131 C212,130.447715 211.552285,130 211,130 Z M207,130 C206.447715,130 206,130.447715 206,131 C206,131.552285 206.447715,132 207,132 C207.552285,132 208,131.552285 208,131 C208,130.447715 207.552285,130 207,130 Z M215,130 C214.447715,130 214,130.447715 214,131 C214,131.552285 214.447715,132 215,132 C215.552285,132 216,131.552285 216,131 C216,130.447715 215.552285,130 215,130 Z M143,130 C142.447715,130 142,130.447715 142,131 C142,131.552285 142.447715,132 143,132 C143.552285,132 144,131.552285 144,131 C144,130.447715 143.552285,130 143,130 Z M187,130 C186.447715,130 186,130.447715 186,131 C186,131.552285 186.447715,132 187,132 C187.552285,132 188,131.552285 188,131 C188,130.447715 187.552285,130 187,130 Z M183,130 C182.447715,130 182,130.447715 182,131 C182,131.552285 182.447715,132 183,132 C183.552285,132 184,131.552285 184,131 C184,130.447715 183.552285,130 183,130 Z M139,130 C138.447715,130 138,130.447715 138,131 C138,131.552285 138.447715,132 139,132 C139.552285,132 140,131.552285 140,131 C140,130.447715 139.552285,130 139,130 Z M239,130 C238.447715,130 238,130.447715 238,131 C238,131.552285 238.447715,132 239,132 C239.552285,132 240,131.552285 240,131 C240,130.447715 239.552285,130 239,130 Z M243,130 C242.447715,130 242,130.447715 242,131 C242,131.552285 242.447715,132 243,132 C243.552285,132 244,131.552285 244,131 C244,130.447715 243.552285,130 243,130 Z M247,130 C246.447715,130 246,130.447715 246,131 C246,131.552285 246.447715,132 247,132 C247.552285,132 248,131.552285 248,131 C248,130.447715 247.552285,130 247,130 Z M251,130 C250.447715,130 250,130.447715 250,131 C250,131.552285 250.447715,132 251,132 C251.552285,132 252,131.552285 252,131 C252,130.447715 251.552285,130 251,130 Z M255,130 C254.447715,130 254,130.447715 254,131 C254,131.552285 254.447715,132 255,132 C255.552285,132 256,131.552285 256,131 C256,130.447715 255.552285,130 255,130 Z M259,130 C258.447715,130 258,130.447715 258,131 C258,131.552285 258.447715,132 259,132 C259.552285,132 260,131.552285 260,131 C260,130.447715 259.552285,130 259,130 Z M263,130 C262.447715,130 262,130.447715 262,131 C262,131.552285 262.447715,132 263,132 C263.552285,132 264,131.552285 264,131 C264,130.447715 263.552285,130 263,130 Z M147,130 C146.447715,130 146,130.447715 146,131 C146,131.552285 146.447715,132 147,132 C147.552285,132 148,131.552285 148,131 C148,130.447715 147.552285,130 147,130 Z M191,130 C190.447715,130 190,130.447715 190,131 C190,131.552285 190.447715,132 191,132 C191.552285,132 192,131.552285 192,131 C192,130.447715 191.552285,130 191,130 Z M167,130 C166.447715,130 166,130.447715 166,131 C166,131.552285 166.447715,132 167,132 C167.552285,132 168,131.552285 168,131 C168,130.447715 167.552285,130 167,130 Z M171,130 C170.447715,130 170,130.447715 170,131 C170,131.552285 170.447715,132 171,132 C171.552285,132 172,131.552285 172,131 C172,130.447715 171.552285,130 171,130 Z M175,130 C174.447715,130 174,130.447715 174,131 C174,131.552285 174.447715,132 175,132 C175.552285,132 176,131.552285 176,131 C176,130.447715 175.552285,130 175,130 Z M179,130 C178.447715,130 178,130.447715 178,131 C178,131.552285 178.447715,132 179,132 C179.552285,132 180,131.552285 180,131 C180,130.447715 179.552285,130 179,130 Z M151,130 C150.447715,130 150,130.447715 150,131 C150,131.552285 150.447715,132 151,132 C151.552285,132 152,131.552285 152,131 C152,130.447715 151.552285,130 151,130 Z M155,130 C154.447715,130 154,130.447715 154,131 C154,131.552285 154.447715,132 155,132 C155.552285,132 156,131.552285 156,131 C156,130.447715 155.552285,130 155,130 Z M131,130 C130.447715,130 130,130.447715 130,131 C130,131.552285 130.447715,132 131,132 C131.552285,132 132,131.552285 132,131 C132,130.447715 131.552285,130 131,130 Z M135,130 C134.447715,130 134,130.447715 134,131 C134,131.552285 134.447715,132 135,132 C135.552285,132 136,131.552285 136,131 C136,130.447715 135.552285,130 135,130 Z M219,130 C218.447715,130 218,130.447715 218,131 C218,131.552285 218.447715,132 219,132 C219.552285,132 220,131.552285 220,131 C220,130.447715 219.552285,130 219,130 Z M223,130 C222.447715,130 222,130.447715 222,131 C222,131.552285 222.447715,132 223,132 C223.552285,132 224,131.552285 224,131 C224,130.447715 223.552285,130 223,130 Z M227,130 C226.447715,130 226,130.447715 226,131 C226,131.552285 226.447715,132 227,132 C227.552285,132 228,131.552285 228,131 C228,130.447715 227.552285,130 227,130 Z M203,130 C202.447715,130 202,130.447715 202,131 C202,131.552285 202.447715,132 203,132 C203.552285,132 204,131.552285 204,131 C204,130.447715 203.552285,130 203,130 Z M108,98 C109.104569,98 110,98.8954305 110,100 L110,126 C110,127.104569 109.104569,128 108,128 L26,128 C24.8954305,128 24,127.104569 24,126 L24,100 C24,98.8954305 24.8954305,98 26,98 L108,98 Z M205,85 C203.343146,85 202,86.3431458 202,88 C202,89.6568542 203.343146,91 205,91 C206.656854,91 208,89.6568542 208,88 C208,86.3431458 206.656854,85 205,85 Z M133,85 C131.343146,85 130,86.3431458 130,88 C130,89.6568542 131.343146,91 133,91 C134.656854,91 136,89.6568542 136,88 C136,86.3431458 134.656854,85 133,85 Z M241,85 C239.343146,85 238,86.3431458 238,88 C238,89.6568542 239.343146,91 241,91 C242.656854,91 244,89.6568542 244,88 C244,86.3431458 242.656854,85 241,85 Z M169,85 C167.343146,85 166,86.3431458 166,88 C166,89.6568542 167.343146,91 169,91 C170.656854,91 172,89.6568542 172,88 C172,86.3431458 170.656854,85 169,85 Z M251,44 C250.447715,44 250,44.4477153 250,45 C250,45.5522847 250.447715,46 251,46 C251.552285,46 252,45.5522847 252,45 C252,44.4477153 251.552285,44 251,44 Z M255,44 C254.447715,44 254,44.4477153 254,45 C254,45.5522847 254.447715,46 255,46 C255.552285,46 256,45.5522847 256,45 C256,44.4477153 255.552285,44 255,44 Z M259,44 C258.447715,44 258,44.4477153 258,45 C258,45.5522847 258.447715,46 259,46 C259.552285,46 260,45.5522847 260,45 C260,44.4477153 259.552285,44 259,44 Z M263,44 C262.447715,44 262,44.4477153 262,45 C262,45.5522847 262.447715,46 263,46 C263.552285,46 264,45.5522847 264,45 C264,44.4477153 263.552285,44 263,44 Z M227,44 C226.447715,44 226,44.4477153 226,45 C226,45.5522847 226.447715,46 227,46 C227.552285,46 228,45.5522847 228,45 C228,44.4477153 227.552285,44 227,44 Z M219,44 C218.447715,44 218,44.4477153 218,45 C218,45.5522847 218.447715,46 219,46 C219.552285,46 220,45.5522847 220,45 C220,44.4477153 219.552285,44 219,44 Z M215,44 C214.447715,44 214,44.4477153 214,45 C214,45.5522847 214.447715,46 215,46 C215.552285,46 216,45.5522847 216,45 C216,44.4477153 215.552285,44 215,44 Z M211,44 C210.447715,44 210,44.4477153 210,45 C210,45.5522847 210.447715,46 211,46 C211.552285,46 212,45.5522847 212,45 C212,44.4477153 211.552285,44 211,44 Z M207,44 C206.447715,44 206,44.4477153 206,45 C206,45.5522847 206.447715,46 207,46 C207.552285,46 208,45.5522847 208,45 C208,44.4477153 207.552285,44 207,44 Z M203,44 C202.447715,44 202,44.4477153 202,45 C202,45.5522847 202.447715,46 203,46 C203.552285,46 204,45.5522847 204,45 C204,44.4477153 203.552285,44 203,44 Z M131,44 C130.447715,44 130,44.4477153 130,45 C130,45.5522847 130.447715,46 131,46 C131.552285,46 132,45.5522847 132,45 C132,44.4477153 131.552285,44 131,44 Z M155,44 C154.447715,44 154,44.4477153 154,45 C154,45.5522847 154.447715,46 155,46 C155.552285,46 156,45.5522847 156,45 C156,44.4477153 155.552285,44 155,44 Z M151,44 C150.447715,44 150,44.4477153 150,45 C150,45.5522847 150.447715,46 151,46 C151.552285,46 152,45.5522847 152,45 C152,44.4477153 151.552285,44 151,44 Z M147,44 C146.447715,44 146,44.4477153 146,45 C146,45.5522847 146.447715,46 147,46 C147.552285,46 148,45.5522847 148,45 C148,44.4477153 147.552285,44 147,44 Z M143,44 C142.447715,44 142,44.4477153 142,45 C142,45.5522847 142.447715,46 143,46 C143.552285,46 144,45.5522847 144,45 C144,44.4477153 143.552285,44 143,44 Z M139,44 C138.447715,44 138,44.4477153 138,45 C138,45.5522847 138.447715,46 139,46 C139.552285,46 140,45.5522847 140,45 C140,44.4477153 139.552285,44 139,44 Z M135,44 C134.447715,44 134,44.4477153 134,45 C134,45.5522847 134.447715,46 135,46 C135.552285,46 136,45.5522847 136,45 C136,44.4477153 135.552285,44 135,44 Z M191,44 C190.447715,44 190,44.4477153 190,45 C190,45.5522847 190.447715,46 191,46 C191.552285,46 192,45.5522847 192,45 C192,44.4477153 191.552285,44 191,44 Z M187,44 C186.447715,44 186,44.4477153 186,45 C186,45.5522847 186.447715,46 187,46 C187.552285,46 188,45.5522847 188,45 C188,44.4477153 187.552285,44 187,44 Z M183,44 C182.447715,44 182,44.4477153 182,45 C182,45.5522847 182.447715,46 183,46 C183.552285,46 184,45.5522847 184,45 C184,44.4477153 183.552285,44 183,44 Z M179,44 C178.447715,44 178,44.4477153 178,45 C178,45.5522847 178.447715,46 179,46 C179.552285,46 180,45.5522847 180,45 C180,44.4477153 179.552285,44 179,44 Z M175,44 C174.447715,44 174,44.4477153 174,45 C174,45.5522847 174.447715,46 175,46 C175.552285,46 176,45.5522847 176,45 C176,44.4477153 175.552285,44 175,44 Z M171,44 C170.447715,44 170,44.4477153 170,45 C170,45.5522847 170.447715,46 171,46 C171.552285,46 172,45.5522847 172,45 C172,44.4477153 171.552285,44 171,44 Z M223,44 C222.447715,44 222,44.4477153 222,45 C222,45.5522847 222.447715,46 223,46 C223.552285,46 224,45.5522847 224,45 C224,44.4477153 223.552285,44 223,44 Z M239,44 C238.447715,44 238,44.4477153 238,45 C238,45.5522847 238.447715,46 239,46 C239.552285,46 240,45.5522847 240,45 C240,44.4477153 239.552285,44 239,44 Z M243,44 C242.447715,44 242,44.4477153 242,45 C242,45.5522847 242.447715,46 243,46 C243.552285,46 244,45.5522847 244,45 C244,44.4477153 243.552285,44 243,44 Z M247,44 C246.447715,44 246,44.4477153 246,45 C246,45.5522847 246.447715,46 247,46 C247.552285,46 248,45.5522847 248,45 C248,44.4477153 247.552285,44 247,44 Z M167,44 C166.447715,44 166,44.4477153 166,45 C166,45.5522847 166.447715,46 167,46 C167.552285,46 168,45.5522847 168,45 C168,44.4477153 167.552285,44 167,44 Z M253,42 C252.447715,42 252,42.4477153 252,43 C252,43.5522847 252.447715,44 253,44 C253.552285,44 254,43.5522847 254,43 C254,42.4477153 253.552285,42 253,42 Z M257,42 C256.447715,42 256,42.4477153 256,43 C256,43.5522847 256.447715,44 257,44 C257.552285,44 258,43.5522847 258,43 C258,42.4477153 257.552285,42 257,42 Z M261,42 C260.447715,42 260,42.4477153 260,43 C260,43.5522847 260.447715,44 261,44 C261.552285,44 262,43.5522847 262,43 C262,42.4477153 261.552285,42 261,42 Z M213,42 C212.447715,42 212,42.4477153 212,43 C212,43.5522847 212.447715,44 213,44 C213.552285,44 214,43.5522847 214,43 C214,42.4477153 213.552285,42 213,42 Z M217,42 C216.447715,42 216,42.4477153 216,43 C216,43.5522847 216.447715,44 217,44 C217.552285,44 218,43.5522847 218,43 C218,42.4477153 217.552285,42 217,42 Z M149,42 C148.447715,42 148,42.4477153 148,43 C148,43.5522847 148.447715,44 149,44 C149.552285,44 150,43.5522847 150,43 C150,42.4477153 149.552285,42 149,42 Z M221,42 C220.447715,42 220,42.4477153 220,43 C220,43.5522847 220.447715,44 221,44 C221.552285,44 222,43.5522847 222,43 C222,42.4477153 221.552285,42 221,42 Z M225,42 C224.447715,42 224,42.4477153 224,43 C224,43.5522847 224.447715,44 225,44 C225.552285,44 226,43.5522847 226,43 C226,42.4477153 225.552285,42 225,42 Z M205,42 C204.447715,42 204,42.4477153 204,43 C204,43.5522847 204.447715,44 205,44 C205.552285,44 206,43.5522847 206,43 C206,42.4477153 205.552285,42 205,42 Z M153,42 C152.447715,42 152,42.4477153 152,43 C152,43.5522847 152.447715,44 153,44 C153.552285,44 154,43.5522847 154,43 C154,42.4477153 153.552285,42 153,42 Z M249,42 C248.447715,42 248,42.4477153 248,43 C248,43.5522847 248.447715,44 249,44 C249.552285,44 250,43.5522847 250,43 C250,42.4477153 249.552285,42 249,42 Z M137,42 C136.447715,42 136,42.4477153 136,43 C136,43.5522847 136.447715,44 137,44 C137.552285,44 138,43.5522847 138,43 C138,42.4477153 137.552285,42 137,42 Z M141,42 C140.447715,42 140,42.4477153 140,43 C140,43.5522847 140.447715,44 141,44 C141.552285,44 142,43.5522847 142,43 C142,42.4477153 141.552285,42 141,42 Z M145,42 C144.447715,42 144,42.4477153 144,43 C144,43.5522847 144.447715,44 145,44 C145.552285,44 146,43.5522847 146,43 C146,42.4477153 145.552285,42 145,42 Z M189,42 C188.447715,42 188,42.4477153 188,43 C188,43.5522847 188.447715,44 189,44 C189.552285,44 190,43.5522847 190,43 C190,42.4477153 189.552285,42 189,42 Z M185,42 C184.447715,42 184,42.4477153 184,43 C184,43.5522847 184.447715,44 185,44 C185.552285,44 186,43.5522847 186,43 C186,42.4477153 185.552285,42 185,42 Z M169,42 C168.447715,42 168,42.4477153 168,43 C168,43.5522847 168.447715,44 169,44 C169.552285,44 170,43.5522847 170,43 C170,42.4477153 169.552285,42 169,42 Z M177,42 C176.447715,42 176,42.4477153 176,43 C176,43.5522847 176.447715,44 177,44 C177.552285,44 178,43.5522847 178,43 C178,42.4477153 177.552285,42 177,42 Z M181,42 C180.447715,42 180,42.4477153 180,43 C180,43.5522847 180.447715,44 181,44 C181.552285,44 182,43.5522847 182,43 C182,42.4477153 181.552285,42 181,42 Z M209,42 C208.447715,42 208,42.4477153 208,43 C208,43.5522847 208.447715,44 209,44 C209.552285,44 210,43.5522847 210,43 C210,42.4477153 209.552285,42 209,42 Z M173,42 C172.447715,42 172,42.4477153 172,43 C172,43.5522847 172.447715,44 173,44 C173.552285,44 174,43.5522847 174,43 C174,42.4477153 173.552285,42 173,42 Z M241,42 C240.447715,42 240,42.4477153 240,43 C240,43.5522847 240.447715,44 241,44 C241.552285,44 242,43.5522847 242,43 C242,42.4477153 241.552285,42 241,42 Z M245,42 C244.447715,42 244,42.4477153 244,43 C244,43.5522847 244.447715,44 245,44 C245.552285,44 246,43.5522847 246,43 C246,42.4477153 245.552285,42 245,42 Z M133,42 C132.447715,42 132,42.4477153 132,43 C132,43.5522847 132.447715,44 133,44 C133.552285,44 134,43.5522847 134,43 C134,42.4477153 133.552285,42 133,42 Z M139,40 C138.447715,40 138,40.4477153 138,41 C138,41.5522847 138.447715,42 139,42 C139.552285,42 140,41.5522847 140,41 C140,40.4477153 139.552285,40 139,40 Z M143,40 C142.447715,40 142,40.4477153 142,41 C142,41.5522847 142.447715,42 143,42 C143.552285,42 144,41.5522847 144,41 C144,40.4477153 143.552285,40 143,40 Z M135,40 C134.447715,40 134,40.4477153 134,41 C134,41.5522847 134.447715,42 135,42 C135.552285,42 136,41.5522847 136,41 C136,40.4477153 135.552285,40 135,40 Z M151,40 C150.447715,40 150,40.4477153 150,41 C150,41.5522847 150.447715,42 151,42 C151.552285,42 152,41.5522847 152,41 C152,40.4477153 151.552285,40 151,40 Z M187,40 C186.447715,40 186,40.4477153 186,41 C186,41.5522847 186.447715,42 187,42 C187.552285,42 188,41.5522847 188,41 C188,40.4477153 187.552285,40 187,40 Z M183,40 C182.447715,40 182,40.4477153 182,41 C182,41.5522847 182.447715,42 183,42 C183.552285,42 184,41.5522847 184,41 C184,40.4477153 183.552285,40 183,40 Z M175,40 C174.447715,40 174,40.4477153 174,41 C174,41.5522847 174.447715,42 175,42 C175.552285,42 176,41.5522847 176,41 C176,40.4477153 175.552285,40 175,40 Z M179,40 C178.447715,40 178,40.4477153 178,41 C178,41.5522847 178.447715,42 179,42 C179.552285,42 180,41.5522847 180,41 C180,40.4477153 179.552285,40 179,40 Z M227,40 C226.447715,40 226,40.4477153 226,41 C226,41.5522847 226.447715,42 227,42 C227.552285,42 228,41.5522847 228,41 C228,40.4477153 227.552285,40 227,40 Z M203,40 C202.447715,40 202,40.4477153 202,41 C202,41.5522847 202.447715,42 203,42 C203.552285,42 204,41.5522847 204,41 C204,40.4477153 203.552285,40 203,40 Z M207,40 C206.447715,40 206,40.4477153 206,41 C206,41.5522847 206.447715,42 207,42 C207.552285,42 208,41.5522847 208,41 C208,40.4477153 207.552285,40 207,40 Z M211,40 C210.447715,40 210,40.4477153 210,41 C210,41.5522847 210.447715,42 211,42 C211.552285,42 212,41.5522847 212,41 C212,40.4477153 211.552285,40 211,40 Z M215,40 C214.447715,40 214,40.4477153 214,41 C214,41.5522847 214.447715,42 215,42 C215.552285,42 216,41.5522847 216,41 C216,40.4477153 215.552285,40 215,40 Z M219,40 C218.447715,40 218,40.4477153 218,41 C218,41.5522847 218.447715,42 219,42 C219.552285,42 220,41.5522847 220,41 C220,40.4477153 219.552285,40 219,40 Z M223,40 C222.447715,40 222,40.4477153 222,41 C222,41.5522847 222.447715,42 223,42 C223.552285,42 224,41.5522847 224,41 C224,40.4477153 223.552285,40 223,40 Z M167,40 C166.447715,40 166,40.4477153 166,41 C166,41.5522847 166.447715,42 167,42 C167.552285,42 168,41.5522847 168,41 C168,40.4477153 167.552285,40 167,40 Z M259,40 C258.447715,40 258,40.4477153 258,41 C258,41.5522847 258.447715,42 259,42 C259.552285,42 260,41.5522847 260,41 C260,40.4477153 259.552285,40 259,40 Z M255,40 C254.447715,40 254,40.4477153 254,41 C254,41.5522847 254.447715,42 255,42 C255.552285,42 256,41.5522847 256,41 C256,40.4477153 255.552285,40 255,40 Z M251,40 C250.447715,40 250,40.4477153 250,41 C250,41.5522847 250.447715,42 251,42 C251.552285,42 252,41.5522847 252,41 C252,40.4477153 251.552285,40 251,40 Z M247,40 C246.447715,40 246,40.4477153 246,41 C246,41.5522847 246.447715,42 247,42 C247.552285,42 248,41.5522847 248,41 C248,40.4477153 247.552285,40 247,40 Z M243,40 C242.447715,40 242,40.4477153 242,41 C242,41.5522847 242.447715,42 243,42 C243.552285,42 244,41.5522847 244,41 C244,40.4477153 243.552285,40 243,40 Z M239,40 C238.447715,40 238,40.4477153 238,41 C238,41.5522847 238.447715,42 239,42 C239.552285,42 240,41.5522847 240,41 C240,40.4477153 239.552285,40 239,40 Z M263,40 C262.447715,40 262,40.4477153 262,41 C262,41.5522847 262.447715,42 263,42 C263.552285,42 264,41.5522847 264,41 C264,40.4477153 263.552285,40 263,40 Z M191,40 C190.447715,40 190,40.4477153 190,41 C190,41.5522847 190.447715,42 191,42 C191.552285,42 192,41.5522847 192,41 C192,40.4477153 191.552285,40 191,40 Z M171,40 C170.447715,40 170,40.4477153 170,41 C170,41.5522847 170.447715,42 171,42 C171.552285,42 172,41.5522847 172,41 C172,40.4477153 171.552285,40 171,40 Z M131,40 C130.447715,40 130,40.4477153 130,41 C130,41.5522847 130.447715,42 131,42 C131.552285,42 132,41.5522847 132,41 C132,40.4477153 131.552285,40 131,40 Z M155,40 C154.447715,40 154,40.4477153 154,41 C154,41.5522847 154.447715,42 155,42 C155.552285,42 156,41.5522847 156,41 C156,40.4477153 155.552285,40 155,40 Z M147,40 C146.447715,40 146,40.4477153 146,41 C146,41.5522847 146.447715,42 147,42 C147.552285,42 148,41.5522847 148,41 C148,40.4477153 147.552285,40 147,40 Z" id="Shape" fill="#909099" fill-rule="nonzero" mask="url(#mask-2)"></path>
            </g>
        </g>
    </g>
</svg>