<?xml version="1.0" encoding="UTF-8"?>
<svg width="352px" height="168px" viewBox="0 0 352 168" version="1.1" xmlns="http://www.w3.org/2000/svg" xmlns:xlink="http://www.w3.org/1999/xlink">
    <!-- Generator: sketchtool 61.2 (101010) - https://sketch.com -->
    <title>030DE13D-FBBB-4A75-8668-B5BBDE05969D</title>
    <desc>Created with sketchtool.</desc>
    <g id="Page-1" stroke="none" stroke-width="1" fill="none" fill-rule="evenodd">
        <g id="graphics-PS_Practice_Cat" transform="translate(-80.000000, -728.000000)">
            <g id="04d" transform="translate(80.000000, 728.000000)">
                <rect id="Rectangle" fill="#F8D7D5" x="0" y="0" width="352" height="168"></rect>
                <path d="M156.824696,32.9111272 L179.377319,41.1196107 C180.415274,41.4973957 180.950449,42.6450804 180.572664,43.6830362 L147.73873,133.893528 C147.360945,134.931484 146.21326,135.466658 145.175304,135.088873 L122.622681,126.880389 C121.584726,126.502604 121.049551,125.35492 121.427336,124.316964 L154.26127,34.1064722 C154.639055,33.0685164 155.78674,32.5333422 156.824696,32.9111272 Z M286,34 C288.209139,34 290,35.790861 290,38 L290,130 C290,132.209139 288.209139,134 286,134 L216,134 C213.790861,134 212,132.209139 212,130 L212,38 C212,35.790861 213.790861,34 216,34 L286,34 Z M208,34 C209.104569,34 210,34.8954305 210,36 L210,132 C210,133.104569 209.104569,134 208,134 L184,134 C182.895431,134 182,133.104569 182,132 L182,36 C182,34.8954305 182.895431,34 184,34 L208,34 Z M118,34 C119.104569,34 120,34.8954305 120,36 L120,132 C120,133.104569 119.104569,134 118,134 L94,134 C92.8954305,134 92,133.104569 92,132 L92,36 C92,34.8954305 92.8954305,34 94,34 L118,34 Z M88,34 C89.1045695,34 90,34.8954305 90,36 L90,132 C90,133.104569 89.1045695,134 88,134 L64,134 C62.8954305,134 62,133.104569 62,132 L62,36 C62,34.8954305 62.8954305,34 64,34 L88,34 Z M218,36 L216,36 C214.945638,36 214.081835,36.8158778 214.005486,37.8507377 L214,38 L214,130 C214,131.054362 214.815878,131.918165 215.850738,131.994514 L216,132 L218,132 L218,36 Z M286,36 L220,36 L220,132 L286,132 C287.054362,132 287.918165,131.184122 287.994514,130.149262 L288,130 L288,38 C288,36.9456382 287.184122,36.0818349 286.149262,36.0054857 L286,36 Z M196,114 C192.686292,114 190,116.686292 190,120 C190,123.313708 192.686292,126 196,126 C199.313708,126 202,123.313708 202,120 C202,116.686292 199.313708,114 196,114 Z M106,114 C102.686292,114 100,116.686292 100,120 C100,123.313708 102.686292,126 106,126 C109.313708,126 112,123.313708 112,120 C112,116.686292 109.313708,114 106,114 Z M76,114 C72.6862915,114 70,116.686292 70,120 C70,123.313708 72.6862915,126 76,126 C79.3137085,126 82,123.313708 82,120 C82,116.686292 79.3137085,114 76,114 Z M133.049119,115.776813 C131.915764,118.890681 133.521287,122.333735 136.635154,123.46709 C139.749021,124.600445 143.192076,122.994923 144.325431,119.881055 C145.458786,116.767188 143.853263,113.324134 140.739396,112.190779 C137.625528,111.057424 134.182474,112.662946 133.049119,115.776813 Z M216,121 C216.552285,121 217,121.447715 217,122 C217,122.552285 216.552285,123 216,123 C215.447715,123 215,122.552285 215,122 C215,121.447715 215.447715,121 216,121 Z M216,115 C216.512836,115 216.935507,115.38604 216.993272,115.883379 L217,116 L217,118 L216.993272,118.116621 C216.935507,118.61396 216.512836,119 216,119 C215.487164,119 215.064493,118.61396 215.006728,118.116621 L215,118 L215,116 L215.006728,115.883379 C215.064493,115.38604 215.487164,115 216,115 Z M216,107 C216.552285,107 217,107.447715 217,108 C217,108.552285 216.552285,109 216,109 C215.447715,109 215,108.552285 215,108 C215,107.447715 215.447715,107 216,107 Z M155.342991,42.8472789 L155.28388,42.9920937 L134.762671,99.373651 C134.402876,100.36218 134.871161,101.450237 135.813201,101.877965 L135.958016,101.937077 L150.993098,107.409399 C151.981627,107.769194 153.069684,107.300908 153.497412,106.358869 L153.556523,106.214054 L174.077732,49.8324966 C174.437527,48.8439673 173.969242,47.7559106 173.027202,47.3281828 L172.882387,47.2690711 L157.847305,41.7967488 C156.858776,41.4369535 155.770719,41.9052392 155.342991,42.8472789 Z M204,42 L188,42 C186.945638,42 186.081835,42.8158778 186.005486,43.8507377 L186,44 L186,104 C186,105.054362 186.815878,105.918165 187.850738,105.994514 L188,106 L204,106 C205.054362,106 205.918165,105.184122 205.994514,104.149262 L206,104 L206,44 C206,42.9456382 205.184122,42.0818349 204.149262,42.0054857 L204,42 Z M114,42 L98,42 C96.9456382,42 96.0818349,42.8158778 96.0054857,43.8507377 L96,44 L96,104 C96,105.054362 96.8158778,105.918165 97.8507377,105.994514 L98,106 L114,106 C115.054362,106 115.918165,105.184122 115.994514,104.149262 L116,104 L116,44 C116,42.9456382 115.184122,42.0818349 114.149262,42.0054857 L114,42 Z M84,42 L68,42 C66.9456382,42 66.0818349,42.8158778 66.0054857,43.8507377 L66,44 L66,104 C66,105.054362 66.8158778,105.918165 67.8507377,105.994514 L68,106 L84,106 C85.0543618,106 85.9181651,105.184122 85.9945143,104.149262 L86,104 L86,44 C86,42.9456382 85.1841222,42.0818349 84.1492623,42.0054857 L84,42 Z M216,97 C216.512836,97 216.935507,97.3860402 216.993272,97.8833789 L217,98 L217,100 L216.993272,100.116621 C216.935507,100.61396 216.512836,101 216,101 C215.487164,101 215.064493,100.61396 215.006728,100.116621 L215,100 L215,98 L215.006728,97.8833789 C215.064493,97.3860402 215.487164,97 216,97 Z M216,91 C216.512836,91 216.935507,91.3860402 216.993272,91.8833789 L217,92 L217,94 L216.993272,94.1166211 C216.935507,94.6139598 216.512836,95 216,95 C215.487164,95 215.064493,94.6139598 215.006728,94.1166211 L215,94 L215,92 L215.006728,91.8833789 C215.064493,91.3860402 215.487164,91 216,91 Z M216,83 C216.552285,83 217,83.4477153 217,84 C217,84.5522847 216.552285,85 216,85 C215.447715,85 215,84.5522847 215,84 C215,83.4477153 215.447715,83 216,83 Z M216,73 C216.512836,73 216.935507,73.3860402 216.993272,73.8833789 L217,74 L217,76 L216.993272,76.1166211 C216.935507,76.6139598 216.512836,77 216,77 C215.487164,77 215.064493,76.6139598 215.006728,76.1166211 L215,76 L215,74 L215.006728,73.8833789 C215.064493,73.3860402 215.487164,73 216,73 Z M216,67 C216.512836,67 216.935507,67.3860402 216.993272,67.8833789 L217,68 L217,70 L216.993272,70.1166211 C216.935507,70.6139598 216.512836,71 216,71 C215.487164,71 215.064493,70.6139598 215.006728,70.1166211 L215,70 L215,68 L215.006728,67.8833789 C215.064493,67.3860402 215.487164,67 216,67 Z M216,59 C216.552285,59 217,59.4477153 217,60 C217,60.5522847 216.552285,61 216,61 C215.447715,61 215,60.5522847 215,60 C215,59.4477153 215.447715,59 216,59 Z M216,49 C216.512836,49 216.935507,49.3860402 216.993272,49.8833789 L217,50 L217,52 L216.993272,52.1166211 C216.935507,52.6139598 216.512836,53 216,53 C215.487164,53 215.064493,52.6139598 215.006728,52.1166211 L215,52 L215,50 L215.006728,49.8833789 C215.064493,49.3860402 215.487164,49 216,49 Z M216,45 C216.552285,45 217,45.4477153 217,46 C217,46.5522847 216.552285,47 216,47 C215.447715,47 215,46.5522847 215,46 C215,45.4477153 215.447715,45 216,45 Z" id="Shape" fill="#F65145"></path>
            </g>
        </g>
    </g>
</svg>