<?xml version="1.0" encoding="UTF-8"?>
<svg width="183px" height="183px" viewBox="0 0 183 183" version="1.1" xmlns="http://www.w3.org/2000/svg" xmlns:xlink="http://www.w3.org/1999/xlink">
    <!-- Generator: sketchtool 61.2 (101010) - https://sketch.com -->
    <title>90F88E75-D92E-42B5-A4E3-BAD206A9E508</title>
    <desc>Created with sketchtool.</desc>
    <defs>
        <rect id="path-1" x="0" y="0" width="183" height="183"></rect>
    </defs>
    <g id="Page-1" stroke="none" stroke-width="1" fill="none" fill-rule="evenodd">
        <g id="graphics-PS_Practice_Cat" transform="translate(-528.000000, -728.000000)">
            <g id="04m" transform="translate(528.000000, 728.000000)">
                <mask id="mask-2" fill="white">
                    <use xlink:href="#path-1"></use>
                </mask>
                <use id="Mask" fill="#F8D7D5" xlink:href="#path-1"></use>
                <path d="M80.8246957,39.9111591 L103.377319,48.1196425 C104.415274,48.4974275 104.950449,49.6451122 104.572664,50.683068 L71.7387298,140.89356 C71.3609448,141.931515 70.2132601,142.46669 69.1753043,142.088905 L46.6226814,133.880421 C45.5847256,133.502636 45.0495514,132.354951 45.4273364,131.316996 L78.2612702,41.106504 C78.6390552,40.0685482 79.7867399,39.533374 80.8246957,39.9111591 Z M210,41.0000318 C212.209139,41.0000318 214,42.7908928 214,45.0000318 L214,137.000032 C214,139.209171 212.209139,141.000032 210,141.000032 L140,141.000032 C137.790861,141.000032 136,139.209171 136,137.000032 L136,45.0000318 C136,42.7908928 137.790861,41.0000318 140,41.0000318 L210,41.0000318 Z M132,41.0000318 C133.104569,41.0000318 134,41.8954623 134,43.0000318 L134,139.000032 C134,140.104601 133.104569,141.000032 132,141.000032 L108,141.000032 C106.895431,141.000032 106,140.104601 106,139.000032 L106,43.0000318 C106,41.8954623 106.895431,41.0000318 108,41.0000318 L132,41.0000318 Z M42,41.0000318 C43.1045695,41.0000318 44,41.8954623 44,43.0000318 L44,139.000032 C44,140.104601 43.1045695,141.000032 42,141.000032 L18,141.000032 C16.8954305,141.000032 16,140.104601 16,139.000032 L16,43.0000318 C16,41.8954623 16.8954305,41.0000318 18,41.0000318 L42,41.0000318 Z M12,41.0000318 C13.1045695,41.0000318 14,41.8954623 14,43.0000318 L14,139.000032 C14,140.104601 13.1045695,141.000032 12,141.000032 L-12,141.000032 C-13.1045695,141.000032 -14,140.104601 -14,139.000032 L-14,43.0000318 C-14,41.8954623 -13.1045695,41.0000318 -12,41.0000318 L12,41.0000318 Z M142,43.0000318 L140,43.0000318 C138.945638,43.0000318 138.081835,43.8159096 138.005486,44.8507695 L138,45.0000318 L138,137.000032 C138,138.054394 138.815878,138.918197 139.850738,138.994546 L140,139.000032 L142,139.000032 L142,43.0000318 Z M210,43.0000318 L144,43.0000318 L144,139.000032 L210,139.000032 C211.054362,139.000032 211.918165,138.184154 211.994514,137.149294 L212,137.000032 L212,45.0000318 C212,43.94567 211.184122,43.0818667 210.149262,43.0055176 L210,43.0000318 Z M120,121.000032 C116.686292,121.000032 114,123.686323 114,127.000032 C114,130.31374 116.686292,133.000032 120,133.000032 C123.313708,133.000032 126,130.31374 126,127.000032 C126,123.686323 123.313708,121.000032 120,121.000032 Z M30,121.000032 C26.6862915,121.000032 24,123.686323 24,127.000032 C24,130.31374 26.6862915,133.000032 30,133.000032 C33.3137085,133.000032 36,130.31374 36,127.000032 C36,123.686323 33.3137085,121.000032 30,121.000032 Z M0,121.000032 C-3.3137085,121.000032 -6,123.686323 -6,127.000032 C-6,130.31374 -3.3137085,133.000032 0,133.000032 C3.3137085,133.000032 6,130.31374 6,127.000032 C6,123.686323 3.3137085,121.000032 0,121.000032 Z M57.0491191,122.776845 C55.9157641,125.890713 57.5212866,129.333767 60.635154,130.467122 C63.7490214,131.600477 67.1920755,129.994954 68.3254306,126.881087 C69.4587856,123.76722 67.8532631,120.324166 64.7393957,119.19081 C61.6255283,118.057455 58.1824742,119.662978 57.0491191,122.776845 Z M140,128.000032 C140.552285,128.000032 141,128.447747 141,129.000032 C141,129.552317 140.552285,130.000032 140,130.000032 C139.447715,130.000032 139,129.552317 139,129.000032 C139,128.447747 139.447715,128.000032 140,128.000032 Z M140,122.000032 C140.512836,122.000032 140.935507,122.386072 140.993272,122.883411 L141,123.000032 L141,125.000032 L140.993272,125.116653 C140.935507,125.613992 140.512836,126.000032 140,126.000032 C139.487164,126.000032 139.064493,125.613992 139.006728,125.116653 L139,125.000032 L139,123.000032 L139.006728,122.883411 C139.064493,122.386072 139.487164,122.000032 140,122.000032 Z M140,114.000032 C140.552285,114.000032 141,114.447747 141,115.000032 C141,115.552317 140.552285,116.000032 140,116.000032 C139.447715,116.000032 139,115.552317 139,115.000032 C139,114.447747 139.447715,114.000032 140,114.000032 Z M79.3429912,49.8473107 L79.2838795,49.9921256 L58.7626709,106.373683 C58.4028757,107.362212 58.8711613,108.450269 59.8132011,108.877997 L59.9580159,108.937108 L74.9930978,114.409431 C75.9816272,114.769226 77.0696838,114.30094 77.4974116,113.3589 L77.5565233,113.214086 L98.0777319,56.8325284 C98.4375272,55.8439991 97.9692416,54.7559424 97.0272018,54.3282146 L96.882387,54.2691029 L81.8473051,48.7967806 C80.8587757,48.4369853 79.770719,48.905271 79.3429912,49.8473107 Z M128,49.0000318 L112,49.0000318 C110.945638,49.0000318 110.081835,49.8159096 110.005486,50.8507695 L110,51.0000318 L110,111.000032 C110,112.054394 110.815878,112.918197 111.850738,112.994546 L112,113.000032 L128,113.000032 C129.054362,113.000032 129.918165,112.184154 129.994514,111.149294 L130,111.000032 L130,51.0000318 C130,49.94567 129.184122,49.0818667 128.149262,49.0055176 L128,49.0000318 Z M38,49.0000318 L22,49.0000318 C20.9456382,49.0000318 20.0818349,49.8159096 20.0054857,50.8507695 L20,51.0000318 L20,111.000032 C20,112.054394 20.8158778,112.918197 21.8507377,112.994546 L22,113.000032 L38,113.000032 C39.0543618,113.000032 39.9181651,112.184154 39.9945143,111.149294 L40,111.000032 L40,51.0000318 C40,49.94567 39.1841222,49.0818667 38.1492623,49.0055176 L38,49.0000318 Z M8,49.0000318 L-8,49.0000318 C-9.0543618,49.0000318 -9.91816512,49.8159096 -9.99451426,50.8507695 L-10,51.0000318 L-10,111.000032 C-10,112.054394 -9.18412221,112.918197 -8.14926234,112.994546 L-8,113.000032 L8,113.000032 C9.0543618,113.000032 9.91816512,112.184154 9.99451426,111.149294 L10,111.000032 L10,51.0000318 C10,49.94567 9.18412221,49.0818667 8.14926234,49.0055176 L8,49.0000318 Z M140,104.000032 C140.512836,104.000032 140.935507,104.386072 140.993272,104.883411 L141,105.000032 L141,107.000032 L140.993272,107.116653 C140.935507,107.613992 140.512836,108.000032 140,108.000032 C139.487164,108.000032 139.064493,107.613992 139.006728,107.116653 L139,107.000032 L139,105.000032 L139.006728,104.883411 C139.064493,104.386072 139.487164,104.000032 140,104.000032 Z M140,98.0000318 C140.512836,98.0000318 140.935507,98.386072 140.993272,98.8834107 L141,99.0000318 L141,101.000032 L140.993272,101.116653 C140.935507,101.613992 140.512836,102.000032 140,102.000032 C139.487164,102.000032 139.064493,101.613992 139.006728,101.116653 L139,101.000032 L139,99.0000318 L139.006728,98.8834107 C139.064493,98.386072 139.487164,98.0000318 140,98.0000318 Z M140,90.0000318 C140.552285,90.0000318 141,90.4477471 141,91.0000318 C141,91.5523166 140.552285,92.0000318 140,92.0000318 C139.447715,92.0000318 139,91.5523166 139,91.0000318 C139,90.4477471 139.447715,90.0000318 140,90.0000318 Z M140,80.0000318 C140.512836,80.0000318 140.935507,80.386072 140.993272,80.8834107 L141,81.0000318 L141,83.0000318 L140.993272,83.1166529 C140.935507,83.6139916 140.512836,84.0000318 140,84.0000318 C139.487164,84.0000318 139.064493,83.6139916 139.006728,83.1166529 L139,83.0000318 L139,81.0000318 L139.006728,80.8834107 C139.064493,80.386072 139.487164,80.0000318 140,80.0000318 Z M140,74.0000318 C140.512836,74.0000318 140.935507,74.386072 140.993272,74.8834107 L141,75.0000318 L141,77.0000318 L140.993272,77.1166529 C140.935507,77.6139916 140.512836,78.0000318 140,78.0000318 C139.487164,78.0000318 139.064493,77.6139916 139.006728,77.1166529 L139,77.0000318 L139,75.0000318 L139.006728,74.8834107 C139.064493,74.386072 139.487164,74.0000318 140,74.0000318 Z M140,66.0000318 C140.552285,66.0000318 141,66.4477471 141,67.0000318 C141,67.5523166 140.552285,68.0000318 140,68.0000318 C139.447715,68.0000318 139,67.5523166 139,67.0000318 C139,66.4477471 139.447715,66.0000318 140,66.0000318 Z M140,56.0000318 C140.512836,56.0000318 140.935507,56.386072 140.993272,56.8834107 L141,57.0000318 L141,59.0000318 L140.993272,59.1166529 C140.935507,59.6139916 140.512836,60.0000318 140,60.0000318 C139.487164,60.0000318 139.064493,59.6139916 139.006728,59.1166529 L139,59.0000318 L139,57.0000318 L139.006728,56.8834107 C139.064493,56.386072 139.487164,56.0000318 140,56.0000318 Z M140,52.0000318 C140.552285,52.0000318 141,52.4477471 141,53.0000318 C141,53.5523166 140.552285,54.0000318 140,54.0000318 C139.447715,54.0000318 139,53.5523166 139,53.0000318 C139,52.4477471 139.447715,52.0000318 140,52.0000318 Z" id="Shape" fill="#F65145" mask="url(#mask-2)"></path>
            </g>
        </g>
    </g>
</svg>