<?xml version="1.0" encoding="UTF-8"?>
<svg width="352px" height="168px" viewBox="0 0 352 168" version="1.1" xmlns="http://www.w3.org/2000/svg" xmlns:xlink="http://www.w3.org/1999/xlink">
    <!-- Generator: sketchtool 61.2 (101010) - https://sketch.com -->
    <title>9E3519B1-3F49-4605-B53B-5AD5C65DEF47</title>
    <desc>Created with sketchtool.</desc>
    <g id="Page-1" stroke="none" stroke-width="1" fill="none" fill-rule="evenodd">
        <g id="graphics-PS_Practice_Cat" transform="translate(-80.000000, -944.000000)">
            <g id="05d" transform="translate(80.000000, 944.000000)">
                <rect id="Rectangle" fill="#909099" x="0" y="0" width="352" height="168"></rect>
                <path d="M178,150 C179.656854,150 181,151.343146 181,153 C181,154.656854 179.656854,156 178,156 C176.343146,156 175,154.656854 175,153 C175,151.343146 176.343146,150 178,150 Z M152,150 C153.656854,150 155,151.343146 155,153 C155,154.656854 153.656854,156 152,156 C150.343146,156 149,154.656854 149,153 C149,151.343146 150.343146,150 152,150 Z M126,150 C127.656854,150 129,151.343146 129,153 C129,154.656854 127.656854,156 126,156 C124.343146,156 123,154.656854 123,153 C123,151.343146 124.343146,150 126,150 Z M98,104 L96.0384331,155.000739 C96.0169723,155.558721 95.5583949,156 95,156 C94.4416051,156 93.9830277,155.558721 93.9615669,155.000739 L92,104 L98,104 Z M276,104 L274.038433,155.000739 C274.016972,155.558721 273.558395,156 273,156 C272.441605,156 271.983028,155.558721 271.961567,155.000739 L270,104 L276,104 Z M169,143 C172.706366,143 175.94178,145.01638 177.669112,148.012006 C176.948068,148.058111 176.270165,148.257516 175.66569,148.577214 C174.276678,146.485438 171.928733,145.085788 169.249179,145.003807 L169,145 L153,145 L153,148 L151,148 L151,145 L135,145 C132.217198,145 129.766255,146.420857 128.333064,148.576678 C127.729705,148.257447 127.051639,148.058025 126.332014,148.010848 C128.014594,145.092037 131.13117,143.102476 134.720095,143.003842 L135,143 L169,143 Z M152,93 C153.656854,93 155,94.3431458 155,96 L155,141 L149,141 L149,96 C149,94.3431458 150.343146,93 152,93 Z M128,104 L128,123 C128,123.512836 128.38604,123.935507 128.883379,123.993272 L129,124 L129,125 C129,123.343146 130.343146,122 132,122 L147,122 L147,128 L132,128 C130.402319,128 129.096339,126.75108 129.005093,125.176273 L129,125.001 L129,126 C127.402319,126 126.096339,124.75108 126.005093,123.176273 L126,123 L126,110 L125,110 C123.343146,110 122,108.656854 122,107 C122,105.343146 123.343146,104 125,104 L128,104 Z M179,104 C180.656854,104 182,105.343146 182,107 C182,108.656854 180.656854,110 179,110 L178,110 L178,123 C178,124.597681 176.75108,125.903661 175.176273,125.994907 L175,126 L175,125.001 L174.994907,125.176273 C174.903661,126.75108 173.597681,128 172,128 L157,128 L157,122 L172,122 C173.597681,122 174.903661,123.24892 174.994907,124.823727 L175,125 L175,124 C175.512836,124 175.935507,123.61396 175.993272,123.116621 L176,123 L176,104 L179,104 Z M152,67 C164.150264,67 174,76.8497355 174,89 L174,111 C174,113.761424 171.761424,116 169,116 L157,116 L157,96 C157,93.3112453 154.877693,91.1181819 152.21689,91.0046195 L152,91 C149.311245,91 147.118182,93.1223067 147.00462,95.7831104 L147,96 L147,116 L135,116 C132.238576,116 130,113.761424 130,111 L130,89 C130,76.8497355 139.849736,67 152,67 Z M128,96 L128,102 L91,102 C89.3431458,102 88,100.656854 88,99 C88,97.3431458 89.3431458,96 91,96 L128,96 Z M277,96 C278.656854,96 280,97.3431458 280,99 C280,100.656854 278.656854,102 277,102 L176,102 L176,96 L277,96 Z M246,86 L248,94 L224,94 L226,86 L246,86 Z M77.4461177,75.0320743 L96.4137864,93.9998932 L93.5857864,93.9998932 L76.0320743,76.4461177 C76.6144298,76.1019785 77.1019785,75.6144298 77.4461177,75.0320743 Z M275,24 C277.761424,24 280,26.2385763 280,29 L280,79 C280,81.7614237 277.761424,84 275,84 L197,84 C194.238576,84 192,81.7614237 192,79 L192,29 C192,26.2385763 194.238576,24 197,24 L275,24 Z M74,71 C75.1045695,71 76,71.8954305 76,73 C76,74.1045695 75.1045695,75 74,75 C72.8954305,75 72,74.1045695 72,73 C72,71.8954305 72.8954305,71 74,71 Z M275,27 L197,27 C195.945638,27 195.081835,27.8158778 195.005486,28.8507377 L195,29 L195,71 C195,72.0543618 195.815878,72.9181651 196.850738,72.9945143 L197,73 L275,73 C276.054362,73 276.918165,72.1841222 276.994514,71.1492623 L277,71 L277,29 C277,27.9456382 276.184122,27.0818349 275.149262,27.0054857 L275,27 Z M92.1097408,53.4764515 C92.3646166,54.1178479 92.7806297,54.6777032 93.3078054,55.1060425 L77.4461177,70.9679257 C77.1019785,70.3855702 76.6144298,69.8980215 76.0320743,69.5538823 L92.1097408,53.4764515 Z M115.506097,45.8786797 C116.610666,45.8786797 117.506097,46.7741102 117.506097,47.8786797 C117.506097,48.4091126 117.295383,48.9178205 116.92031,49.2928932 L98.2928932,67.9203102 C97.5118446,68.7013588 96.2455147,68.7013588 95.4644661,67.9203102 C95.0893933,67.5452375 94.8786797,67.0365296 94.8786797,66.5060967 L94.8786797,55.1923882 C94.8786797,54.6619552 95.0893933,54.1532473 95.4644661,53.7781746 L102.778175,46.4644661 C103.153247,46.0893933 103.661955,45.8786797 104.192388,45.8786797 L115.506097,45.8786797 Z M92.0502525,34.5649712 L101.949747,44.4644661 L93.4644661,52.9497475 L83.5649712,43.0502525 C82.7839226,42.2692039 82.7839226,41.002874 83.5649712,40.2218254 L89.2218254,34.5649712 C90.002874,33.7839226 91.2692039,33.7839226 92.0502525,34.5649712 Z" id="Shape" fill="#E6E6EB" fill-rule="nonzero"></path>
            </g>
        </g>
    </g>
</svg>