<?xml version="1.0" encoding="UTF-8"?>
<svg width="183px" height="183px" viewBox="0 0 183 183" version="1.1" xmlns="http://www.w3.org/2000/svg" xmlns:xlink="http://www.w3.org/1999/xlink">
    <!-- Generator: sketchtool 61.2 (101010) - https://sketch.com -->
    <title>F18DB7EA-6044-4B46-990D-B0B4E000BECB</title>
    <desc>Created with sketchtool.</desc>
    <defs>
        <rect id="path-1" x="0" y="0" width="183" height="183"></rect>
    </defs>
    <g id="Page-1" stroke="none" stroke-width="1" fill="none" fill-rule="evenodd">
        <g id="graphics-PS_Practice_Cat" transform="translate(-528.000000, -944.000000)">
            <g id="05m" transform="translate(528.000000, 944.000000)">
                <mask id="mask-2" fill="white">
                    <use xlink:href="#path-1"></use>
                </mask>
                <use id="Mask" fill="#909099" xlink:href="#path-1"></use>
                <path d="M138,165 C139.656854,165 141,166.343146 141,168 C141,169.656854 139.656854,171 138,171 C136.343146,171 135,169.656854 135,168 C135,166.343146 136.343146,165 138,165 Z M112,165 C113.656854,165 115,166.343146 115,168 C115,169.656854 113.656854,171 112,171 C110.343146,171 109,169.656854 109,168 C109,166.343146 110.343146,165 112,165 Z M86,165 C87.6568542,165 89,166.343146 89,168 C89,169.656854 87.6568542,171 86,171 C84.3431458,171 83,169.656854 83,168 C83,166.343146 84.3431458,165 86,165 Z M58,119 L56.0384331,170.000739 C56.0169723,170.558721 55.5583949,171 55,171 C54.4416051,171 53.9830277,170.558721 53.9615669,170.000739 L52,119 L58,119 Z M236,119 L234.038433,170.000739 C234.016972,170.558721 233.558395,171 233,171 C232.441605,171 231.983028,170.558721 231.961567,170.000739 L230,119 L236,119 Z M129,158 C132.706366,158 135.94178,160.01638 137.669112,163.012006 C136.948068,163.058111 136.270165,163.257516 135.66569,163.577214 C134.276678,161.485438 131.928733,160.085788 129.249179,160.003807 L129,160 L113,160 L113,163 L111,163 L111,160 L95,160 C92.2171982,160 89.7662553,161.420857 88.3330642,163.576678 C87.7297045,163.257447 87.0516391,163.058025 86.3320137,163.010848 C88.0145943,160.092037 91.1311698,158.102476 94.7200952,158.003842 L95,158 L129,158 Z M112,108 C113.656854,108 115,109.343146 115,111 L115,156 L109,156 L109,111 C109,109.343146 110.343146,108 112,108 Z M88,119 L88,138 C88,138.512836 88.3860402,138.935507 88.8833789,138.993272 L89,139 L89,140 C89,138.343146 90.3431458,137 92,137 L107,137 L107,143 L92,143 C90.4023191,143 89.0963391,141.75108 89.0050927,140.176273 L89,140.001 L89,141 C87.4023191,141 86.0963391,139.75108 86.0050927,138.176273 L86,138 L86,125 L85,125 C83.3431458,125 82,123.656854 82,122 C82,120.343146 83.3431458,119 85,119 L88,119 Z M139,119 C140.656854,119 142,120.343146 142,122 C142,123.656854 140.656854,125 139,125 L138,125 L138,138 C138,139.597681 136.75108,140.903661 135.176273,140.994907 L135,141 L135,140.001 L134.994907,140.176273 C134.903661,141.75108 133.597681,143 132,143 L117,143 L117,137 L132,137 C133.597681,137 134.903661,138.24892 134.994907,139.823727 L135,140 L135,139 C135.512836,139 135.935507,138.61396 135.993272,138.116621 L136,138 L136,119 L139,119 Z M112,82 C124.150264,82 134,91.8497355 134,104 L134,126 C134,128.761424 131.761424,131 129,131 L117,131 L117,111 C117,108.311245 114.877693,106.118182 112.21689,106.00462 L112,106 C109.311245,106 107.118182,108.122307 107.00462,110.78311 L107,111 L107,131 L95,131 C92.2385763,131 90,128.761424 90,126 L90,104 C90,91.8497355 99.8497355,82 112,82 Z M88,111 L88,117 L51,117 C49.3431458,117 48,115.656854 48,114 C48,112.343146 49.3431458,111 51,111 L88,111 Z M237,111 C238.656854,111 240,112.343146 240,114 C240,115.656854 238.656854,117 237,117 L136,117 L136,111 L237,111 Z M206,101 L208,109 L184,109 L186,101 L206,101 Z M37.4461177,90.0320743 L56.4137864,108.999893 L53.5857864,108.999893 L36.0320743,91.4461177 C36.6144298,91.1019785 37.1019785,90.6144298 37.4461177,90.0320743 Z M235,39 C237.761424,39 240,41.2385763 240,44 L240,94 C240,96.7614237 237.761424,99 235,99 L157,99 C154.238576,99 152,96.7614237 152,94 L152,44 C152,41.2385763 154.238576,39 157,39 L235,39 Z M34,86 C35.1045695,86 36,86.8954305 36,88 C36,89.1045695 35.1045695,90 34,90 C32.8954305,90 32,89.1045695 32,88 C32,86.8954305 32.8954305,86 34,86 Z M235,42 L157,42 C155.945638,42 155.081835,42.8158778 155.005486,43.8507377 L155,44 L155,86 C155,87.0543618 155.815878,87.9181651 156.850738,87.9945143 L157,88 L235,88 C236.054362,88 236.918165,87.1841222 236.994514,86.1492623 L237,86 L237,44 C237,42.9456382 236.184122,42.0818349 235.149262,42.0054857 L235,42 Z M52.1097408,68.4764515 C52.3646166,69.1178479 52.7806297,69.6777032 53.3078054,70.1060425 L37.4461177,85.9679257 C37.1019785,85.3855702 36.6144298,84.8980215 36.0320743,84.5538823 L52.1097408,68.4764515 Z M75.5060967,60.8786797 C76.6106662,60.8786797 77.5060967,61.7741102 77.5060967,62.8786797 C77.5060967,63.4091126 77.295383,63.9178205 76.9203102,64.2928932 L58.2928932,82.9203102 C57.5118446,83.7013588 56.2455147,83.7013588 55.4644661,82.9203102 C55.0893933,82.5452375 54.8786797,82.0365296 54.8786797,81.5060967 L54.8786797,70.1923882 C54.8786797,69.6619552 55.0893933,69.1532473 55.4644661,68.7781746 L62.7781746,61.4644661 C63.1532473,61.0893933 63.6619552,60.8786797 64.1923882,60.8786797 L75.5060967,60.8786797 Z M52.0502525,49.5649712 L61.9497475,59.4644661 L53.4644661,67.9497475 L43.5649712,58.0502525 C42.7839226,57.2692039 42.7839226,56.002874 43.5649712,55.2218254 L49.2218254,49.5649712 C50.002874,48.7839226 51.2692039,48.7839226 52.0502525,49.5649712 Z" id="Shape" fill="#E6E6EB" fill-rule="nonzero" mask="url(#mask-2)"></path>
            </g>
        </g>
    </g>
</svg>