<?xml version="1.0" encoding="UTF-8"?>
<svg width="352px" height="168px" viewBox="0 0 352 168" version="1.1" xmlns="http://www.w3.org/2000/svg" xmlns:xlink="http://www.w3.org/1999/xlink">
    <!-- Generator: sketchtool 61.2 (101010) - https://sketch.com -->
    <title>D84E7300-3865-4216-93FF-B49D62CC3F8E</title>
    <desc>Created with sketchtool.</desc>
    <defs>
        <rect id="path-1" x="0" y="0" width="352" height="168"></rect>
    </defs>
    <g id="Page-1" stroke="none" stroke-width="1" fill="none" fill-rule="evenodd">
        <g id="graphics-PS_Practice_Cat" transform="translate(-80.000000, -1160.000000)">
            <g id="06d" transform="translate(80.000000, 1160.000000)">
                <mask id="mask-2" fill="white">
                    <use xlink:href="#path-1"></use>
                </mask>
                <use id="Mask" fill="#22D66A" xlink:href="#path-1"></use>
                <path d="M205,40 C206.656854,40 208,41.3431458 208,43 L208,125 C208,126.656854 206.656854,128 205,128 L199,128 L199,132.585786 C199,133.690356 198.104569,134.585786 197,134.585786 C196.469567,134.585786 195.960859,134.375073 195.585786,134 L194,132.414214 L192.414214,134 C191.633165,134.781049 190.366835,134.781049 189.585786,134 C189.210714,133.624927 189,133.116219 189,132.585786 L189,128 L147,128 C145.343146,128 144,126.656854 144,125 L144,43 C144,41.3431458 145.343146,40 147,40 L205,40 Z M194,109 C190.134007,109 187,112.134007 187,116 C187,118.699036 188.527549,121.041294 190.765275,122.209402 L190.999264,122.326019 L191,132.585786 L194,129.585786 L197,132.585786 L196.999733,122.326496 C199.364824,121.203086 201,118.792501 201,116 C201,112.134007 197.865993,109 194,109 Z M205,42 L147,42 C146.447715,42 146,42.4477153 146,43 L146,125 C146,125.552285 146.447715,126 147,126 L189,126 L189,124 L148,124 L148,44 L204,44 L204,124 L199,124 L199,126 L205,126 C205.552285,126 206,125.552285 206,125 L206,43 C206,42.4477153 205.552285,42 205,42 Z M194,111 C196.761424,111 199,113.238576 199,116 C199,118.761424 196.761424,121 194,121 C191.238576,121 189,118.761424 189,116 C189,113.238576 191.238576,111 194,111 Z M194,113 C192.343146,113 191,114.343146 191,116 C191,117.656854 192.343146,119 194,119 C195.656854,119 197,117.656854 197,116 C197,114.343146 195.656854,113 194,113 Z M130,56 C131.104569,56 132,56.8954305 132,58 L132,110 C132,111.104569 131.104569,112 130,112 L54,112 C52.8954305,112 52,111.104569 52,110 L52,58 C52,56.8954305 52.8954305,56 54,56 L130,56 Z M298,56 C299.104569,56 300,56.8954305 300,58 L300,110 C300,111.104569 299.104569,112 298,112 L222,112 C220.895431,112 220,111.104569 220,110 L220,58 C220,56.8954305 220.895431,56 222,56 L298,56 Z M290,60 L230,60 L229.995862,60.2249383 C229.880323,63.3597859 227.359786,65.8803227 224.224938,65.9958615 L224,66 L224,102 L224.224938,102.004138 C227.359786,102.119677 229.880323,104.640214 229.995862,107.775062 L230,108 L290,108 L290.004138,107.775062 C290.119677,104.640214 292.640214,102.119677 295.775062,102.004138 L296,102 L296,66 L295.775062,65.9958615 C292.565575,65.8775718 290,63.2383969 290,60 Z M73,85 L71,85 L71,92 L111,92 L111,102 L109,102 L112,107 L115,102 L113,102 L113,85 L111,85 L111,90 L99,90 L99,85 L97,85 L97,90 L86,90 L86,85 L84,85 L84,90 L73,90 L73,85 Z M184,104 L168,104 L168,106 L184,106 L184,104 Z M288.252268,62 L288.32683,62.2697567 C289.091866,64.8590137 291.132522,66.9064272 293.729403,67.673267 L294,67.7479969 L294,100.252268 C291.28371,100.951793 289.120016,103.042974 288.326733,105.729403 L288.252003,106 L231.747732,106 C231.048207,103.28371 228.957026,101.120016 226.270597,100.326733 L226,100.252003 L226,67.7477323 C228.71629,67.0482074 230.879984,64.9570256 231.673267,62.2705975 L231.747997,62 L288.252268,62 Z M192,100 L160,100 L160,102 L192,102 L192,100 Z M68,66 L64,66 C62.9456382,66 62.0818349,66.8158778 62.0054857,67.8507377 L62,68 L62,100 C62,101.054362 62.8158778,101.918165 63.8507377,101.994514 L64,102 L108,102 L108,98 L66,98 L66,84 L70,84 L70,82 L66,82 L66,70 L78,70 L78,82 L74,82 L74,84 L83,84 L83,82 L80,82 L80,70 L90,70 L90,82 L87,82 L87,84 L96,84 L96,82 L92,82 L92,70 L104,70 L104,82 L100,82 L100,84 L110,84 L110,82 L106,82 L106,70 L118,70 L118,82 L114,82 L114,84 L118,84 L118,98 L116,98 L116,102 L120,102 C121.054362,102 121.918165,101.184122 121.994514,100.149262 L122,100 L122,68 C122,66.9456382 121.184122,66.0818349 120.149262,66.0054857 L120,66 L116,66 L116,68 L108,68 L108,66 L102,66 L102,68 L94,68 L94,66 L88,66 L88,68 L82,68 L82,66 L76,66 L76,68 L68,68 L68,66 Z M272,96 L248,96 L248,98 L272,98 L272,96 Z M272,92 L248,92 L248,94 L272,94 L272,92 Z M169.257779,53.5863793 L169.145271,53.7323913 L167.354744,56.2084317 C167.211616,56.4063567 167.001938,56.5438846 166.76644,56.5974988 L166.646729,56.6172042 L163.607151,56.9298262 C162.254596,57.0689371 161.173025,58.0977493 160.954255,59.4244472 L160.929826,59.6071514 L160.617204,62.6467289 C160.592214,62.8897009 160.479392,63.1136426 160.302252,63.2778224 L160.208432,63.3547436 L157.732391,65.1452709 C156.630599,65.9420224 156.208338,67.3737852 156.682226,68.6321243 L156.752422,68.8025652 L158.001472,71.5912275 C158.101317,71.8141423 158.11558,72.0644929 158.044263,72.2952465 L158.001472,72.4087725 L156.752422,75.1974348 C156.196618,76.4383379 156.54681,77.8894116 157.586379,78.742221 L157.732391,78.8547291 L160.208432,80.6452564 C160.406357,80.7883842 160.543885,80.9980624 160.597499,81.2335596 L160.617204,81.3532711 L160.929826,84.3928486 C161.068937,85.7454043 162.097749,86.8269749 163.424447,87.0457451 L163.607151,87.0701738 L166.646729,87.3827958 C166.889701,87.4077856 167.113643,87.5206083 167.277822,87.6977478 L167.354744,87.7915683 L169.145271,90.2676087 C169.942022,91.3694008 171.373785,91.7916623 172.632124,91.3177738 L172.802565,91.2475777 L175.591227,89.9985275 C175.814142,89.8986833 176.064493,89.8844198 176.295247,89.9557371 L176.408773,89.9985275 L179.197435,91.2475777 C180.438338,91.8033819 181.889412,91.4531898 182.742221,90.4136207 L182.854729,90.2676087 L184.645256,87.7915683 C184.788384,87.5936433 184.998062,87.4561154 185.23356,87.4025012 L185.353271,87.3827958 L188.392849,87.0701738 C189.745404,86.9310629 190.826975,85.9022507 191.045745,84.5755528 L191.070174,84.3928486 L191.382796,81.3532711 C191.407786,81.1102991 191.520608,80.8863574 191.697748,80.7221776 L191.791568,80.6452564 L194.267609,78.8547291 C195.369401,78.0579776 195.791662,76.6262148 195.317774,75.3678757 L195.247578,75.1974348 L193.998528,72.4087725 C193.898683,72.1858577 193.88442,71.9355071 193.955737,71.7047535 L193.998528,71.5912275 L195.247578,68.8025652 C195.803382,67.5616621 195.45319,66.1105884 194.413621,65.257779 L194.267609,65.1452709 L191.791568,63.3547436 C191.593643,63.2116158 191.456115,63.0019376 191.402501,62.7664404 L191.382796,62.6467289 L191.070174,59.6071514 C190.931063,58.2545957 189.902251,57.1730251 188.575553,56.9542549 L188.392849,56.9298262 L185.353271,56.6172042 C185.110299,56.5922144 184.886357,56.4793917 184.722178,56.3022522 L184.645256,56.2084317 L182.854729,53.7323913 L182.742221,53.5863793 C181.930022,52.5963135 180.575179,52.2315329 179.376049,52.6791616 L179.197435,52.7524223 L176.408773,54.0014725 C176.185858,54.1013167 175.935507,54.1155802 175.704753,54.0442629 L175.591227,54.0014725 L172.802565,52.7524223 C171.561662,52.1966181 170.110588,52.5468102 169.257779,53.5863793 Z M181.068704,54.7259611 L181.160022,54.8135672 L181.234078,54.9043512 L183.024605,57.3803916 C183.487018,58.0198418 184.180979,58.4491525 184.953871,58.5802095 L185.14865,58.6067092 L188.188227,58.9193311 C188.620294,58.9637694 188.969402,59.2805756 189.061927,59.6961238 L189.080669,59.8117729 L189.393291,62.8513504 C189.474027,63.6363369 189.86036,64.3551115 190.464175,64.8550559 L190.619608,64.9753947 L193.095649,66.765922 C193.44761,67.0204399 193.591544,67.4693564 193.463899,67.8754941 L193.422305,67.9850201 L192.173255,70.7736824 C191.852921,71.4888675 191.826227,72.2981884 192.093172,73.0290628 L192.173255,73.2263176 L193.422305,76.0149799 C193.599854,76.4113795 193.500046,76.8721195 193.186433,77.1600224 L193.095649,77.234078 L190.619608,79.0246053 C189.980158,79.4870182 189.550848,80.1809793 189.41979,80.9538707 L189.393291,81.1486496 L189.080669,84.1882271 C189.036231,84.6202935 188.719424,84.9694021 188.303876,85.0619269 L188.188227,85.0806689 L185.14865,85.3932908 C184.363663,85.474027 183.644889,85.8603597 183.144944,86.4641748 L183.024605,86.6196084 L181.234078,89.0956488 C180.97956,89.4476101 180.530644,89.5915439 180.124506,89.4638986 L180.01498,89.4223051 L177.226318,88.1732549 C176.511132,87.8529213 175.701812,87.8262269 174.970937,88.0931715 L174.773682,88.1732549 L171.98502,89.4223051 C171.588621,89.5998537 171.127881,89.5000457 170.839978,89.1864328 L170.765922,89.0956488 L168.975395,86.6196084 C168.512982,85.9801582 167.819021,85.5508475 167.046129,85.4197905 L166.85135,85.3932908 L163.811773,85.0806689 C163.379706,85.0362306 163.030598,84.7194244 162.938073,84.3038762 L162.919331,84.1882271 L162.606709,81.1486496 C162.525973,80.3636631 162.13964,79.6448885 161.535825,79.1449441 L161.380392,79.0246053 L158.904351,77.234078 C158.55239,76.9795601 158.408456,76.5306436 158.536101,76.1245059 L158.577695,76.0149799 L159.826745,73.2263176 C160.147079,72.5111325 160.173773,71.7018116 159.906828,70.9709372 L159.826745,70.7736824 L158.577695,67.9850201 C158.400146,67.5886205 158.499954,67.1278805 158.813567,66.8399776 L158.904351,66.765922 L161.380392,64.9753947 C162.019842,64.5129818 162.449152,63.8190207 162.58021,63.0461293 L162.606709,62.8513504 L162.919331,59.8117729 C162.963769,59.3797065 163.280576,59.0305979 163.696124,58.9380731 L163.811773,58.9193311 L166.85135,58.6067092 C167.636337,58.525973 168.355111,58.1396403 168.855056,57.5358252 L168.975395,57.3803916 L170.765922,54.9043512 C171.02044,54.5523899 171.469356,54.4084561 171.875494,54.5361014 L171.98502,54.5776949 L174.773682,55.8267451 C175.488868,56.1470787 176.298188,56.1737731 177.029063,55.9068285 L177.226318,55.8267451 L180.01498,54.5776949 C180.37174,54.4179012 180.780615,54.4827663 181.068704,54.7259611 Z M276,80 L244,80 L244,84 L276,84 L276,80 Z M178,63 L175,63 C175,65.1421954 173.316032,65.8910789 171.19964,65.9951047 L171,66 L171,68 L174,68 L173.999071,78.9990711 L171,79 L171,81 L181,81 L181,79 L177.999071,78.9990711 L178,63 Z M284,70 L236,70 L236,78 L284,78 L284,70 Z" id="Shape" fill="#F8D7D5" mask="url(#mask-2)"></path>
            </g>
        </g>
    </g>
</svg>