<?xml version="1.0" encoding="UTF-8"?>
<svg width="183px" height="183px" viewBox="0 0 183 183" version="1.1" xmlns="http://www.w3.org/2000/svg" xmlns:xlink="http://www.w3.org/1999/xlink">
    <!-- Generator: sketchtool 61.2 (101010) - https://sketch.com -->
    <title>4485B076-EA66-4668-BF35-FD1F92645288</title>
    <desc>Created with sketchtool.</desc>
    <defs>
        <rect id="path-1" x="0" y="0" width="183" height="183"></rect>
    </defs>
    <g id="Page-1" stroke="none" stroke-width="1" fill="none" fill-rule="evenodd">
        <g id="graphics-PS_Practice_Cat" transform="translate(-528.000000, -1160.000000)">
            <g id="06m" transform="translate(528.000000, 1160.000000)">
                <mask id="mask-2" fill="white">
                    <use xlink:href="#path-1"></use>
                </mask>
                <use id="Mask" fill="#22D66A" xlink:href="#path-1"></use>
                <path d="M120,44 C121.656854,44 123,45.3431458 123,47 L123,129 C123,130.656854 121.656854,132 120,132 L114,132 L114,136.585786 C114,137.690356 113.104569,138.585786 112,138.585786 C111.469567,138.585786 110.960859,138.375073 110.585786,138 L109,136.414214 L107.414214,138 C106.633165,138.781049 105.366835,138.781049 104.585786,138 C104.210714,137.624927 104,137.116219 104,136.585786 L104,132 L62,132 C60.3431458,132 59,130.656854 59,129 L59,47 C59,45.3431458 60.3431458,44 62,44 L120,44 Z M109,113 C105.134007,113 102,116.134007 102,120 C102,122.699036 103.527549,125.041294 105.765275,126.209402 L105.999264,126.326019 L106,136.585786 L109,133.585786 L112,136.585786 L111.999733,126.326496 C114.364824,125.203086 116,122.792501 116,120 C116,116.134007 112.865993,113 109,113 Z M120,46 L62,46 C61.4477153,46 61,46.4477153 61,47 L61,129 C61,129.552285 61.4477153,130 62,130 L104,130 L104,128 L63,128 L63,48 L119,48 L119,128 L114,128 L114,130 L120,130 C120.552285,130 121,129.552285 121,129 L121,47 C121,46.4477153 120.552285,46 120,46 Z M109,115 C111.761424,115 114,117.238576 114,120 C114,122.761424 111.761424,125 109,125 C106.238576,125 104,122.761424 104,120 C104,117.238576 106.238576,115 109,115 Z M109,117 C107.343146,117 106,118.343146 106,120 C106,121.656854 107.343146,123 109,123 C110.656854,123 112,121.656854 112,120 C112,118.343146 110.656854,117 109,117 Z M45,60 C46.1045695,60 47,60.8954305 47,62 L47,114 C47,115.104569 46.1045695,116 45,116 L-31,116 C-32.1045695,116 -33,115.104569 -33,114 L-33,62 C-33,60.8954305 -32.1045695,60 -31,60 L45,60 Z M213,60 C214.104569,60 215,60.8954305 215,62 L215,114 C215,115.104569 214.104569,116 213,116 L137,116 C135.895431,116 135,115.104569 135,114 L135,62 C135,60.8954305 135.895431,60 137,60 L213,60 Z M205,64 L145,64 L144.995862,64.2249383 C144.880323,67.3597859 142.359786,69.8803227 139.224938,69.9958615 L139,70 L139,106 L139.224938,106.004138 C142.359786,106.119677 144.880323,108.640214 144.995862,111.775062 L145,112 L205,112 L205.004138,111.775062 C205.119677,108.640214 207.640214,106.119677 210.775062,106.004138 L211,106 L211,70 L210.775062,69.9958615 C207.565575,69.8775718 205,67.2383969 205,64 Z M-12,89 L-14,89 L-14,96 L26,96 L26,106 L24,106 L27,111 L30,106 L28,106 L28,89 L26,89 L26,94 L14,94 L14,89 L12,89 L12,94 L1,94 L1,89 L-1,89 L-1,94 L-12,94 L-12,89 Z M99,108 L83,108 L83,110 L99,110 L99,108 Z M203.252268,66 L203.32683,66.2697567 C204.091866,68.8590137 206.132522,70.9064272 208.729403,71.673267 L209,71.7479969 L209,104.252268 C206.28371,104.951793 204.120016,107.042974 203.326733,109.729403 L203.252003,110 L146.747732,110 C146.048207,107.28371 143.957026,105.120016 141.270597,104.326733 L141,104.252003 L141,71.7477323 C143.71629,71.0482074 145.879984,68.9570256 146.673267,66.2705975 L146.747997,66 L203.252268,66 Z M107,104 L75,104 L75,106 L107,106 L107,104 Z M-17,70 L-21,70 C-22.0543618,70 -22.9181651,70.8158778 -22.9945143,71.8507377 L-23,72 L-23,104 C-23,105.054362 -22.1841222,105.918165 -21.1492623,105.994514 L-21,106 L23,106 L23,102 L-19,102 L-19,88 L-15,88 L-15,86 L-19,86 L-19,74 L-7,74 L-7,86 L-11,86 L-11,88 L-2,88 L-2,86 L-5,86 L-5,74 L5,74 L5,86 L2,86 L2,88 L11,88 L11,86 L7,86 L7,74 L19,74 L19,86 L15,86 L15,88 L25,88 L25,86 L21,86 L21,74 L33,74 L33,86 L29,86 L29,88 L33,88 L33,102 L31,102 L31,106 L35,106 C36.0543618,106 36.9181651,105.184122 36.9945143,104.149262 L37,104 L37,72 C37,70.9456382 36.1841222,70.0818349 35.1492623,70.0054857 L35,70 L31,70 L31,72 L23,72 L23,70 L17,70 L17,72 L9,72 L9,70 L3,70 L3,72 L-3,72 L-3,70 L-9,70 L-9,72 L-17,72 L-17,70 Z M187,100 L163,100 L163,102 L187,102 L187,100 Z M187,96 L163,96 L163,98 L187,98 L187,96 Z M84.257779,57.5863793 L84.1452709,57.7323913 L82.3547436,60.2084317 C82.2116158,60.4063567 82.0019376,60.5438846 81.7664404,60.5974988 L81.6467289,60.6172042 L78.6071514,60.9298262 C77.2545957,61.0689371 76.1730251,62.0977493 75.9542549,63.4244472 L75.9298262,63.6071514 L75.6172042,66.6467289 C75.5922144,66.8897009 75.4793917,67.1136426 75.3022522,67.2778224 L75.2084317,67.3547436 L72.7323913,69.1452709 C71.6305992,69.9420224 71.2083377,71.3737852 71.6822262,72.6321243 L71.7524223,72.8025652 L73.0014725,75.5912275 C73.1013167,75.8141423 73.1155802,76.0644929 73.0442629,76.2952465 L73.0014725,76.4087725 L71.7524223,79.1974348 C71.1966181,80.4383379 71.5468102,81.8894116 72.5863793,82.742221 L72.7323913,82.8547291 L75.2084317,84.6452564 C75.4063567,84.7883842 75.5438846,84.9980624 75.5974988,85.2335596 L75.6172042,85.3532711 L75.9298262,88.3928486 C76.0689371,89.7454043 77.0977493,90.8269749 78.4244472,91.0457451 L78.6071514,91.0701738 L81.6467289,91.3827958 C81.8897009,91.4077856 82.1136426,91.5206083 82.2778224,91.6977478 L82.3547436,91.7915683 L84.1452709,94.2676087 C84.9420224,95.3694008 86.3737852,95.7916623 87.6321243,95.3177738 L87.8025652,95.2475777 L90.5912275,93.9985275 C90.8141423,93.8986833 91.0644929,93.8844198 91.2952465,93.9557371 L91.4087725,93.9985275 L94.1974348,95.2475777 C95.4383379,95.8033819 96.8894116,95.4531898 97.742221,94.4136207 L97.8547291,94.2676087 L99.6452564,91.7915683 C99.7883842,91.5936433 99.9980624,91.4561154 100.23356,91.4025012 L100.353271,91.3827958 L103.392849,91.0701738 C104.745404,90.9310629 105.826975,89.9022507 106.045745,88.5755528 L106.070174,88.3928486 L106.382796,85.3532711 C106.407786,85.1102991 106.520608,84.8863574 106.697748,84.7221776 L106.791568,84.6452564 L109.267609,82.8547291 C110.369401,82.0579776 110.791662,80.6262148 110.317774,79.3678757 L110.247578,79.1974348 L108.998528,76.4087725 C108.898683,76.1858577 108.88442,75.9355071 108.955737,75.7047535 L108.998528,75.5912275 L110.247578,72.8025652 C110.803382,71.5616621 110.45319,70.1105884 109.413621,69.257779 L109.267609,69.1452709 L106.791568,67.3547436 C106.593643,67.2116158 106.456115,67.0019376 106.402501,66.7664404 L106.382796,66.6467289 L106.070174,63.6071514 C105.931063,62.2545957 104.902251,61.1730251 103.575553,60.9542549 L103.392849,60.9298262 L100.353271,60.6172042 C100.110299,60.5922144 99.8863574,60.4793917 99.7221776,60.3022522 L99.6452564,60.2084317 L97.8547291,57.7323913 L97.742221,57.5863793 C96.9300216,56.5963135 95.5751788,56.2315329 94.3760491,56.6791616 L94.1974348,56.7524223 L91.4087725,58.0014725 C91.1858577,58.1013167 90.9355071,58.1155802 90.7047535,58.0442629 L90.5912275,58.0014725 L87.8025652,56.7524223 C86.5616621,56.1966181 85.1105884,56.5468102 84.257779,57.5863793 Z M96.0687036,58.7259611 L96.1600224,58.8135672 L96.234078,58.9043512 L98.0246053,61.3803916 C98.4870182,62.0198418 99.1809793,62.4491525 99.9538707,62.5802095 L100.14865,62.6067092 L103.188227,62.9193311 C103.620294,62.9637694 103.969402,63.2805756 104.061927,63.6961238 L104.080669,63.8117729 L104.393291,66.8513504 C104.474027,67.6363369 104.86036,68.3551115 105.464175,68.8550559 L105.619608,68.9753947 L108.095649,70.765922 C108.44761,71.0204399 108.591544,71.4693564 108.463899,71.8754941 L108.422305,71.9850201 L107.173255,74.7736824 C106.852921,75.4888675 106.826227,76.2981884 107.093172,77.0290628 L107.173255,77.2263176 L108.422305,80.0149799 C108.599854,80.4113795 108.500046,80.8721195 108.186433,81.1600224 L108.095649,81.234078 L105.619608,83.0246053 C104.980158,83.4870182 104.550848,84.1809793 104.41979,84.9538707 L104.393291,85.1486496 L104.080669,88.1882271 C104.036231,88.6202935 103.719424,88.9694021 103.303876,89.0619269 L103.188227,89.0806689 L100.14865,89.3932908 C99.3636631,89.474027 98.6448885,89.8603597 98.1449441,90.4641748 L98.0246053,90.6196084 L96.234078,93.0956488 C95.9795601,93.4476101 95.5306436,93.5915439 95.1245059,93.4638986 L95.0149799,93.4223051 L92.2263176,92.1732549 C91.5111325,91.8529213 90.7018116,91.8262269 89.9709372,92.0931715 L89.7736824,92.1732549 L86.9850201,93.4223051 C86.5886205,93.5998537 86.1278805,93.5000457 85.8399776,93.1864328 L85.765922,93.0956488 L83.9753947,90.6196084 C83.5129818,89.9801582 82.8190207,89.5508475 82.0461293,89.4197905 L81.8513504,89.3932908 L78.8117729,89.0806689 C78.3797065,89.0362306 78.0305979,88.7194244 77.9380731,88.3038762 L77.9193311,88.1882271 L77.6067092,85.1486496 C77.525973,84.3636631 77.1396403,83.6448885 76.5358252,83.1449441 L76.3803916,83.0246053 L73.9043512,81.234078 C73.5523899,80.9795601 73.4084561,80.5306436 73.5361014,80.1245059 L73.5776949,80.0149799 L74.8267451,77.2263176 C75.1470787,76.5111325 75.1737731,75.7018116 74.9068285,74.9709372 L74.8267451,74.7736824 L73.5776949,71.9850201 C73.4001463,71.5886205 73.4999543,71.1278805 73.8135672,70.8399776 L73.9043512,70.765922 L76.3803916,68.9753947 C77.0198418,68.5129818 77.4491525,67.8190207 77.5802095,67.0461293 L77.6067092,66.8513504 L77.9193311,63.8117729 C77.9637694,63.3797065 78.2805756,63.0305979 78.6961238,62.9380731 L78.8117729,62.9193311 L81.8513504,62.6067092 C82.6363369,62.525973 83.3551115,62.1396403 83.8550559,61.5358252 L83.9753947,61.3803916 L85.765922,58.9043512 C86.0204399,58.5523899 86.4693564,58.4084561 86.8754941,58.5361014 L86.9850201,58.5776949 L89.7736824,59.8267451 C90.4888675,60.1470787 91.2981884,60.1737731 92.0290628,59.9068285 L92.2263176,59.8267451 L95.0149799,58.5776949 C95.3717395,58.4179012 95.7806149,58.4827663 96.0687036,58.7259611 Z M191,84 L159,84 L159,88 L191,88 L191,84 Z M93,67 L90,67 C90,69.1421954 88.3160315,69.8910789 86.1996403,69.9951047 L86,70 L86,72 L89,72 L88.9990711,82.9990711 L86,83 L86,85 L96,85 L96,83 L92.9990711,82.9990711 L93,67 Z M199,74 L151,74 L151,82 L199,82 L199,74 Z" id="Shape" fill="#F8D7D5" mask="url(#mask-2)"></path>
            </g>
        </g>
    </g>
</svg>