<?xml version="1.0" encoding="UTF-8"?>
<svg width="352px" height="168px" viewBox="0 0 352 168" version="1.1" xmlns="http://www.w3.org/2000/svg" xmlns:xlink="http://www.w3.org/1999/xlink">
    <!-- Generator: sketchtool 61.2 (101010) - https://sketch.com -->
    <title>DD55F35B-43BD-4BD0-BEA4-A64F2240AF0F</title>
    <desc>Created with sketchtool.</desc>
    <g id="Page-1" stroke="none" stroke-width="1" fill="none" fill-rule="evenodd">
        <g id="graphics-PS_Practice_Cat" transform="translate(-80.000000, -1592.000000)">
            <g id="08d" transform="translate(80.000000, 1592.000000)">
                <rect id="Rectangle-Copy-3" fill="#F65145" x="0" y="0" width="352" height="168"></rect>
                <path d="M146.038198,52.0188108 L147.057861,52.0667436 C147.555666,52.0926274 148.036999,52.1255704 148.50892,52.1843971 C150.848916,52.4763519 152.899136,53.0689765 154.883993,53.7596457 C157.498513,54.6616553 159.923481,55.7728266 162.270013,56.9711485 C164.620903,58.1760068 166.92386,59.3917589 169.174527,60.6641589 L173.498336,63.1202924 C174.220086,63.528395 174.944011,63.9347776 175.672535,64.3377998 C175.762299,64.3874575 171.778031,68.6213388 170.193721,70.6114341 L169.843587,71.0616504 C168.08358,73.3595573 165.230086,77.4989961 165.127445,77.4495856 C162.582274,76.2243709 160.216508,74.8517085 157.766502,73.4970975 C155.232595,72.0961502 152.615896,70.7278844 149.421823,70.0524666 C147.715849,69.69297 145.744064,69.6428584 144.007587,69.8389474 C142.327757,70.0263214 140.769939,70.6080522 139.519327,71.246431 C136.887376,72.5863728 134.902519,74.5036879 133.475426,77.0092702 C132.765148,78.2533462 132.194311,79.686975 131.887105,81.3166929 C131.562469,83.0248463 131.573363,85.0314909 131.904535,86.6982478 C132.222635,88.3257869 132.747718,89.7507006 133.477605,91.0187431 C134.19442,92.2671767 135.063748,93.4088507 136.059444,94.3478993 C138.079161,96.2434268 140.639213,97.6944857 144.025017,98.1738145 C147.717903,98.692667 150.991558,97.6601617 153.547229,96.5583429 C153.638262,96.5190961 159.401992,98.6465798 162.110619,99.7838606 L163.03832,100.183847 C166.123824,101.536799 171.417122,104.018421 171.351723,104.092784 C168.163529,107.71798 164.468405,110.674033 159.888621,112.893565 C156.424381,114.573395 152.30869,115.752108 147.419536,115.974342 C145.778925,116.04842 144.066414,115.952555 142.436696,115.808756 C140.942062,115.67803 139.464857,115.37736 138.06391,115.013506 C133.915537,113.941552 130.449119,112.250829 127.431526,110.096028 C123.424774,107.233128 120.036791,103.494364 117.70551,99.0801816 C115.363335,94.6354966 113.594176,89.1210369 113.979818,82.1881997 C114.162834,78.9374791 114.803392,76.1137969 115.685793,73.5254215 C116.568193,70.9392249 117.692437,68.6493406 119.082491,66.5577241 C121.158856,63.4246569 123.594717,60.7142705 126.566556,58.491928 C129.551467,56.2586917 132.821796,54.4568512 136.883018,53.260708 C138.850445,52.6789772 141.064073,52.2475813 143.47161,52.0841738 C144.247251,52.0340621 145.262557,51.9817717 146.038198,52.0188108 Z M146.012284,75.2034426 L148.147419,75.3549008 C150.946863,75.5833715 157.744955,76.3980425 165.337576,79.509379 C169.648725,81.2760199 174.266689,83.5978621 178.476067,85.5674676 C179.890087,86.2298128 181.269247,86.9400909 182.665837,87.6046149 C185.459016,88.9293054 188.234766,90.308465 191.027945,91.6767308 C193.814588,93.0428178 196.649164,94.3936534 199.540388,95.6028692 L201.158566,96.2817935 C202.808675,96.9667775 204.55591,97.6416506 206.41222,98.0518035 C207.312051,98.2544288 208.168306,98.3263282 209.227187,98.2544288 C211.127072,98.1193453 212.73936,97.6465528 214.162095,96.9776713 C215.294826,96.4455698 216.313821,95.7574247 217.234602,95 L238.169591,95 C236.630279,99.2591966 234.308351,102.776652 231.535584,105.801678 C228.64436,108.956533 225.077718,111.523121 220.887949,113.353285 C218.794154,114.268368 216.495554,115.028757 213.915894,115.473226 C211.334055,115.917694 208.375289,116.174789 205.486244,115.821829 C202.82379,115.497192 200.431504,114.819596 198.150335,114.050491 C195.884417,113.283565 193.714365,112.418594 191.609676,111.481724 C183.197456,107.747317 175.299425,103.503079 166.935138,99.7425268 C162.736653,97.8535357 158.433588,96.0756617 153.855998,94.6246027 C151.542148,93.892537 149.093213,93.2846609 146.400257,92.9665609 C145.005846,92.8053322 143.491603,92.8510863 141.966466,92.8510863 L137.210217,92.8510863 C136.214521,91.8183506 135.345193,90.5917047 134.69592,89.1406458 C134.061899,87.7244471 133.6,86.0162937 133.6,83.9943977 C133.6,81.9964682 134.061899,80.3318901 134.71335,78.8612223 C135.193647,77.772807 135.827157,76.7532516 136.564914,75.872946 L136.993067,75.3850396 C137.095711,75.2715823 137.202228,75.1645807 137.277759,75.148603 C137.439859,75.1172288 137.641962,75.1070321 137.851594,75.1038947 L138.271277,75.1028489 C140.849848,75.1028489 143.573132,75.0463753 146.012284,75.2034426 L146.012284,75.2034426 Z M113.520623,75 L113.37949,75.5356217 C112.782979,77.8787282 112.386023,80.507677 112.332358,83.3761456 L112.326134,84.0423306 L112.332689,84.7084609 C112.389163,87.5722777 112.806126,90.1416775 113.412118,92.467558 L113.555239,93 L89.0002393,93 C84.1183986,93 80.1443432,89.1132237 80.0038441,84.2653643 L80,83.9997607 L80.003837,83.7344055 C80.1416526,78.9748503 83.9748503,75.1416526 88.7344055,75.003837 L88.9997607,75 L113.520623,75 Z M195.949396,75.0268406 L261.794121,75.0148749 L263.478106,75.0268406 L263.478106,75.0268406 C264.635031,75.09544 265.730951,75.3388576 266.606816,75.7305385 C269.182118,76.890091 271.058037,78.9746302 271.774851,81.9775172 C272.334794,84.3276028 271.772672,86.7285847 270.92949,88.2930955 C270.029659,89.9593991 268.722398,91.189764 267.070893,92.0372995 C266.269107,92.4511093 265.312628,92.7985325 264.190563,92.9268799 C263.077213,93.0552274 261.754701,92.9755634 260.464871,92.9755634 L197.256657,92.9755634 C196.998317,92.9755634 196.851139,92.9292735 196.700785,92.8624998 L196.511518,92.7741908 C192.206353,90.7617591 188.239517,88.7706708 184.010448,86.6583908 L184.011973,86.6427883 L184.046049,86.5726261 C184.42685,85.8780578 187.790347,81.0555374 195.949396,75.0268406 Z M263,77 C259.134007,77 256,80.1340068 256,84 C256,87.8659932 259.134007,91 263,91 C266.865993,91 270,87.8659932 270,84 C270,80.1340068 266.865993,77 263,77 Z M208.054627,52.0188108 C208.588425,52.044956 209.102614,52.0471347 209.610266,52.0667436 C211.150655,52.138643 212.549423,52.3456258 213.91551,52.5983628 C217.517012,53.2628868 220.569465,54.5461807 223.338678,56.0582451 C224.722195,56.8142773 226.04035,57.6727116 227.229956,58.6095814 C231.964418,62.3309158 235.677037,66.8035862 237.927828,73 L217.07908,73 C215.98316,72.0609514 214.747799,71.4490564 213.353388,70.8455379 C211.762888,70.1592262 209.854288,69.6668248 207.605801,69.7169365 C205.289771,69.7735844 203.350668,70.0655392 201.596761,70.5949796 C199.842853,71.1244201 198.289392,71.8259831 196.744646,72.6495571 C193.76845,74.231342 191.199684,76.3077072 188.811755,78.508262 C187.611254,79.6150757 186.515334,80.8112189 185.384554,81.970323 C184.249417,83.1337847 183.197072,84.3974697 182.303777,85.7940594 L177.576512,83.3995234 C174.077479,81.6362035 170.627419,79.9555901 166.851961,78.4211113 C167.080731,77.9766428 167.154809,77.937425 167.433692,77.5147442 L167.871079,76.8845358 L167.871079,76.8845358 L168.311735,76.2575955 C170.05257,73.7432982 171.926309,71.3422968 173.908988,69.0742002 C176.549653,66.0522501 179.43652,63.2939309 182.667632,60.7774548 C184.251595,59.5464513 185.966285,58.398241 187.785556,57.3676842 C192.347894,54.7793088 197.393919,52.8576361 203.91279,52.1843971 C205.16776,52.053671 206.732115,51.9578053 208.054627,52.0188108 Z" id="Shape" fill="#BCF2D2" fill-rule="nonzero"></path>
            </g>
        </g>
    </g>
</svg>