<?xml version="1.0" encoding="UTF-8"?>
<svg width="183px" height="183px" viewBox="0 0 183 183" version="1.1" xmlns="http://www.w3.org/2000/svg" xmlns:xlink="http://www.w3.org/1999/xlink">
    <!-- Generator: sketchtool 61.2 (101010) - https://sketch.com -->
    <title>DA1B469B-25DD-4E65-9B34-7AD2FAD3D06D</title>
    <desc>Created with sketchtool.</desc>
    <defs>
        <rect id="path-1" x="0" y="0" width="183" height="183"></rect>
    </defs>
    <g id="Page-1" stroke="none" stroke-width="1" fill="none" fill-rule="evenodd">
        <g id="graphics-PS_Practice_Cat" transform="translate(-528.000000, -1592.000000)">
            <g id="08m" transform="translate(528.000000, 1592.000000)">
                <mask id="mask-2" fill="white">
                    <use xlink:href="#path-1"></use>
                </mask>
                <use id="Mask" fill="#F65145" xlink:href="#path-1"></use>
                <path d="M45.038198,60.0188108 L46.057861,60.0667436 C46.5556657,60.0926274 47.036999,60.1255704 47.5089199,60.1843971 C49.8489159,60.4763519 51.8991358,61.0689765 53.8839927,61.7596457 C56.4985133,62.6616553 58.9234811,63.7728266 61.2700134,64.9711485 C63.6209031,66.1760068 65.92386,67.3917589 68.1745265,68.6641589 L72.4983358,71.1202924 C73.2200862,71.528395 73.9440109,71.9347776 74.6725349,72.3377998 C74.7622989,72.3874575 70.7780307,76.6213388 69.193721,78.6114341 L68.8435874,79.0616504 C67.0835805,81.3595573 64.2300865,85.4989961 64.1274448,85.4495856 C61.5822744,84.2243709 59.2165079,82.8517085 56.7665016,81.4970975 C54.2325954,80.0961502 51.615896,78.7278844 48.4218234,78.0524666 C46.7158487,77.69297 44.7440644,77.6428584 43.0075869,77.8389474 C41.3277575,78.0263214 39.7699389,78.6080522 38.5193266,79.246431 C35.8873758,80.5863728 33.902519,82.5036879 32.4754265,85.0092702 C31.7651484,86.2533462 31.1943114,87.686975 30.8871052,89.3166929 C30.5624689,91.0248463 30.5733627,93.0314909 30.9045353,94.6982478 C31.2226353,96.3257869 31.7477182,97.7507006 32.4776052,99.0187431 C33.1944196,100.267177 34.0637477,101.408851 35.0594443,102.347899 C37.0791615,104.243427 39.6392129,105.694486 43.0250171,106.173814 C46.7179031,106.692667 49.9915579,105.660162 52.5472294,104.558343 C52.6382624,104.519096 58.4019918,106.64658 61.1106188,107.783861 L62.0383201,108.183847 C65.1238238,109.536799 70.4171222,112.018421 70.351723,112.092784 C67.1635286,115.71798 63.4684048,118.674033 58.8886208,120.893565 C55.424381,122.573395 51.3086899,123.752108 46.4195363,123.974342 C44.7789247,124.04842 43.0664137,123.952555 41.4366958,123.808756 C39.9420615,123.67803 38.4648574,123.37736 37.0639101,123.013506 C32.9155374,121.941552 29.4491189,120.250829 26.4315263,118.096028 C22.4247735,115.233128 19.0367906,111.494364 16.7055097,107.080182 C14.363335,102.635497 12.594176,97.1210369 12.9798178,90.1881997 C13.1628343,86.9374791 13.8033918,84.1137969 14.6857925,81.5254215 C15.5681932,78.9392249 16.6924371,76.6493406 18.0824905,74.5577241 C20.1588557,71.4246569 22.5947173,68.7142705 25.5665558,66.491928 C28.5514668,64.2586917 31.8217963,62.4568512 35.8830183,61.260708 C37.8504451,60.6789772 40.0640725,60.2475813 42.4716102,60.0841738 C43.2472513,60.0340621 44.2625568,59.9817717 45.038198,60.0188108 Z M45.012284,83.2034426 L47.147419,83.3549008 C49.9468625,83.5833715 56.7449551,84.3980425 64.3375764,87.509379 C68.6487255,89.2760199 73.2666892,91.5978621 77.4760674,93.5674676 C78.8900873,94.2298128 80.2692469,94.9400909 81.6658366,95.6046149 C84.4590161,96.9293054 87.2347655,98.308465 90.027945,99.6767308 C92.8145882,101.042818 95.6491643,102.393653 98.5403884,103.602869 L100.158566,104.281793 C101.808675,104.966777 103.55591,105.641651 105.41222,106.051804 C106.312051,106.254429 107.168306,106.326328 108.227187,106.254429 C110.127072,106.119345 111.73936,105.646553 113.162095,104.977671 C114.294826,104.44557 115.313821,103.757425 116.234602,103 L137.169591,103 C135.630279,107.259197 133.308351,110.776652 130.535584,113.801678 C127.64436,116.956533 124.077718,119.523121 119.887949,121.353285 C117.794154,122.268368 115.495554,123.028757 112.915894,123.473226 C110.334055,123.917694 107.375289,124.174789 104.486244,123.821829 C101.82379,123.497192 99.4315041,122.819596 97.1503349,122.050491 C94.8844171,121.283565 92.714365,120.418594 90.6096759,119.481724 C82.1974558,115.747317 74.2994248,111.503079 65.9351377,107.742527 C61.7366533,105.853536 57.4335882,104.075662 52.8559984,102.624603 C50.5421476,101.892537 48.0932133,101.284661 45.4002571,100.966561 C44.0058461,100.805332 42.4916029,100.851086 40.9664659,100.851086 L36.2102172,100.851086 C35.2145206,99.8183506 34.3451925,98.5917047 33.6959199,97.1406458 C33.0618986,95.7244471 32.6,94.0162937 32.6,91.9943977 C32.6,89.9964682 33.0618986,88.3318901 33.71335,86.8612223 C34.1936471,85.772807 34.8271573,84.7532516 35.5649136,83.872946 L35.9930667,83.3850396 C36.0957109,83.2715823 36.2022284,83.1645807 36.277759,83.148603 C36.4398593,83.1172288 36.6419617,83.1070321 36.851594,83.1038947 L37.2712768,83.1028489 C39.8498478,83.1028489 42.5731324,83.0463753 45.012284,83.2034426 L45.012284,83.2034426 Z M12.5206233,83 L12.37949,83.5356217 C11.7829793,85.8787282 11.386023,88.507677 11.3323583,91.3761456 L11.3261335,92.0423306 L11.3326888,92.7084609 C11.3891631,95.5722777 11.8061258,98.1416775 12.4121175,100.467558 L12.5552393,101 L-11.9997607,101 C-16.8816014,101 -20.8556568,97.1132237 -20.9961559,92.2653643 L-21,91.9997607 L-20.996163,91.7344055 C-20.8583474,86.9748503 -17.0251497,83.1416526 -12.2655945,83.003837 L-12.0002393,83 L12.5206233,83 Z M94.9493963,83.0268406 L160.794121,83.0148749 L162.478106,83.0268406 L162.478106,83.0268406 C163.635031,83.09544 164.730951,83.3388576 165.606816,83.7305385 C168.182118,84.890091 170.058037,86.9746302 170.774851,89.9775172 C171.334794,92.3276028 170.772672,94.7285847 169.92949,96.2930955 C169.029659,97.9593991 167.722398,99.189764 166.070893,100.0373 C165.269107,100.451109 164.312628,100.798533 163.190563,100.92688 C162.077213,101.055227 160.754701,100.975563 159.464871,100.975563 L96.2566566,100.975563 C95.998317,100.975563 95.8511391,100.929273 95.7007851,100.8625 L95.5115182,100.774191 C91.2063532,98.7617591 87.2395168,96.7706708 83.0104484,94.6583908 L83.0119733,94.6427883 L83.0460489,94.5726261 C83.4268502,93.8780578 86.790347,89.0555374 94.9493963,83.0268406 Z M162,85 C158.134007,85 155,88.1340068 155,92 C155,95.8659932 158.134007,99 162,99 C165.865993,99 169,95.8659932 169,92 C169,88.1340068 165.865993,85 162,85 Z M107.054627,60.0188108 C107.588425,60.044956 108.102614,60.0471347 108.610266,60.0667436 C110.150655,60.138643 111.549423,60.3456258 112.91551,60.5983628 C116.517012,61.2628868 119.569465,62.5461807 122.338678,64.0582451 C123.722195,64.8142773 125.04035,65.6727116 126.229956,66.6095814 C130.964418,70.3309158 134.677037,74.8035862 136.927828,81 L116.07908,81 C114.98316,80.0609514 113.747799,79.4490564 112.353388,78.8455379 C110.762888,78.1592262 108.854288,77.6668248 106.605801,77.7169365 C104.289771,77.7735844 102.350668,78.0655392 100.596761,78.5949796 C98.8428532,79.1244201 97.2893922,79.8259831 95.7446463,80.6495571 C92.7684503,82.231342 90.1996838,84.3077072 87.811755,86.508262 C86.6112543,87.6150757 85.5153344,88.8112189 84.3845543,89.970323 C83.2494166,91.1337847 82.197072,92.3974697 81.3037775,93.7940594 L76.5765124,91.3995234 C73.0774793,89.6362035 69.6274193,87.9555901 65.8519607,86.4211113 C66.0807313,85.9766428 66.1548093,85.937425 66.4336915,85.5147442 L66.8710791,84.8845358 L66.8710791,84.8845358 L67.3117347,84.2575955 C69.0525697,81.7432982 70.9263094,79.3422968 72.9089876,77.0742002 C75.5496534,74.0522501 78.4365199,71.2939309 81.6676316,68.7774548 C83.2515953,67.5464513 84.9662851,66.398241 86.7855557,65.3676842 C91.3478941,62.7793088 96.3939189,60.8576361 102.91279,60.1843971 C104.16776,60.053671 105.732115,59.9578053 107.054627,60.0188108 Z" id="Shape" fill="#BCF2D2" fill-rule="nonzero" mask="url(#mask-2)"></path>
            </g>
        </g>
    </g>
</svg>