<?xml version="1.0" encoding="UTF-8"?>
<svg width="48px" height="48px" viewBox="0 0 48 48" version="1.1" xmlns="http://www.w3.org/2000/svg" xmlns:xlink="http://www.w3.org/1999/xlink">
    <!-- Generator: sketchtool 61.2 (101010) - https://sketch.com -->
    <title>2A1F1C26-ED5B-4FB9-BDC2-B09AD70C165E</title>
    <desc>Created with sketchtool.</desc>
    <g id="Page-1" stroke="none" stroke-width="1" fill="none" fill-rule="evenodd">
        <g id="desktop-touch-article_18/28-320" transform="translate(-16.000000, -7992.000000)">
            <g id="Group-15" transform="translate(0.000000, 7396.000000)">
                <g id="Component/Doc-list-touch/Normal" transform="translate(0.000000, 580.000000)">
                    <g id="Group-17">
                        <g id="Group-15-Copy" transform="translate(16.000000, 16.000000)">
                            <g id="icon/XL/document/zip">
                                <g id="icon">
                                    <g id="Group">
                                        <rect id="Rectangle" x="0" y="0" width="48" height="48"></rect>
                                    </g>
                                </g>
                                <path d="M10,4 L31.5857864,4 C31.8510029,4 32.1053568,4.10535684 32.2928932,4.29289322 L39.7071068,11.7071068 C39.8946432,11.8946432 40,12.1489971 40,12.4142136 L40,42 C40,43.1045695 39.1045695,44 38,44 L10,44 C8.8954305,44 8,43.1045695 8,42 L8,6 C8,4.8954305 8.8954305,4 10,4 Z" id="Rectangle" fill="#F2F2F4"></path>
                                <path d="M32,4 L40,12 L34,12 C32.8954305,12 32,11.1045695 32,10 L32,4 L32,4 Z" id="Rectangle" fill="#909099"></path>
                                <rect id="Rectangle" fill="#909099" x="22" y="6" width="4" height="2" rx="1"></rect>
                                <rect id="Rectangle" fill="#909099" x="22" y="10" width="4" height="2" rx="1"></rect>
                                <rect id="Rectangle" fill="#909099" x="22" y="14" width="4" height="2" rx="1"></rect>
                                <path d="M22.8154514,18 L25.2058182,18.0002798 L25.2262895,18.0011192 C25.6398988,18.0237396 25.956858,18.3773736 25.9342125,18.7909816 C25.8733367,19.9040823 25.9785992,20.7237551 26.25,21.25 L26.6232942,21.9727116 C27.1988236,23.1041742 28,24.8149414 28,26 C28,28.209139 26.209139,30 24,30 C21.790861,30 20,28.209139 20,26 C20,24.5198596 21.2489722,22.2142765 21.75,21.25 C22.0002068,20.7684529 22.1097486,20.0397415 22.0786257,19.0638661 L22.0654959,18.75 L22.0654959,18.75 C22.0654959,18.3703268 22.347633,18.0565502 22.7136869,18.0068564 L22.8154514,18 Z M24,24 C22.8954305,24 22,24.8954305 22,26 C22,27.1045695 22.8954305,28 24,28 C25.1045695,28 26,27.1045695 26,26 C26,24.8954305 25.1045695,24 24,24 Z" id="Shape" fill="#909099"></path>
                            </g>
                        </g>
                    </g>
                </g>
            </g>
        </g>
    </g>
</svg>