<?xml version="1.0" encoding="UTF-8"?>
<svg width="24px" height="24px" viewBox="0 0 24 24" version="1.1" xmlns="http://www.w3.org/2000/svg" xmlns:xlink="http://www.w3.org/1999/xlink">
    <!-- Generator: sketchtool 61.2 (101010) - https://sketch.com -->
    <title>019C37B4-F9AD-4631-AE3A-116702C77FD8</title>
    <desc>Created with sketchtool.</desc>
    <g id="Page-1" stroke="none" stroke-width="1" fill="none" fill-rule="evenodd">
        <g id="desktop-default-article1-1280" transform="translate(-392.000000, -7880.000000)">
            <g id="Group-19" transform="translate(176.000000, 7356.000000)">
                <g id="Group-20" transform="translate(204.000000, 512.000000)">
                    <g id="Buttons/Light/Icon-left">
                        <g id="Group-2" transform="translate(12.000000, 4.000000)">
                            <g id="Group" transform="translate(0.000000, 8.000000)">
                                <g id="icon/M/upload/attach">
                                    <g id="icon">
                                        <g id="Group">
                                            <rect id="Rectangle" x="0" y="0" width="24" height="24"></rect>
                                        </g>
                                    </g>
                                    <path d="M9.37867966,18.1568542 L9.37867966,8.96446609 C9.37867966,7.79289322 10.3284271,6.84314575 11.5,6.84314575 C12.6715729,6.84314575 13.6213203,7.79289322 13.6213203,8.96446609 L13.6213203,19.2175144 C13.6213203,21.365398 11.8801167,23.1066017 9.73223305,23.1066017 C7.58434944,23.1066017 5.84314575,21.365398 5.84314575,19.2175144 L5.84314575,7.55025253 C5.84314575,4.4260582 8.37580567,1.89339828 11.5,1.89339828 C14.6241943,1.89339828 17.1568542,4.4260582 17.1568542,7.55025253 L17.1568542,18.863961 L17.1568542,18.863961" id="Path" stroke="#1A1A1A" stroke-width="1.7" stroke-linecap="round" stroke-linejoin="round" transform="translate(11.500000, 12.500000) rotate(-135.000000) translate(-11.500000, -12.500000) "></path>
                                </g>
                            </g>
                        </g>
                    </g>
                </g>
            </g>
        </g>
    </g>
</svg>