<?xml version="1.0" encoding="UTF-8"?>
<svg width="216px" height="56px" viewBox="0 0 216 56" version="1.1" xmlns="http://www.w3.org/2000/svg" xmlns:xlink="http://www.w3.org/1999/xlink">
    <!-- Generator: sketchtool 61.2 (101010) - https://sketch.com -->
    <title>FB193177-3D47-402F-8AAA-1710B892BBDE</title>
    <desc>Created with sketchtool.</desc>
    <g id="Page-1" stroke="none" stroke-width="1" fill="none" fill-rule="evenodd">
        <g id="desktop-obhod-managers-1280" transform="translate(-984.000000, -144.000000)">
            <g id="Components/Obhod-rate-big/4" transform="translate(984.000000, 144.000000)">
                <g id="Group-11-Copy">
                    <g id="Group-6">
                        <rect id="Rectangle" stroke="#22D66A" stroke-width="3" x="1.5" y="1.5" width="213" height="53" rx="26.5"></rect>
                        <text id="Оценка" font-family="SegoeUI-Bold, Segoe UI" font-size="14" font-weight="bold" line-spacing="20" fill="#22D66A">
                            <tspan x="20" y="31">Оценка</tspan>
                        </text>
                        <g id="icon/M/Obhod/Star/Light/Green" transform="translate(80.000000, 16.000000)">
                            <g id="icon">
                                <g id="Group">
                                    <rect id="Rectangle" x="0" y="0" width="24" height="24"></rect>
                                    <polygon id="Star" fill="#22D66A" points="12 16.69 5.53436222 21.2991869 7.91996755 13.7256829 1.53837832 9.00081306 9.47840127 8.92931709 12 1.4 14.5215987 8.92931709 22.4616217 9.00081306 16.0800325 13.7256829 18.4656378 21.2991869"></polygon>
                                </g>
                            </g>
                        </g>
                        <g id="icon/M/Obhod/Star/Light/Green" transform="translate(104.000000, 16.000000)">
                            <g id="icon">
                                <g id="Group">
                                    <rect id="Rectangle" x="0" y="0" width="24" height="24"></rect>
                                    <polygon id="Star" fill="#22D66A" points="12 16.69 5.53436222 21.2991869 7.91996755 13.7256829 1.53837832 9.00081306 9.47840127 8.92931709 12 1.4 14.5215987 8.92931709 22.4616217 9.00081306 16.0800325 13.7256829 18.4656378 21.2991869"></polygon>
                                </g>
                            </g>
                        </g>
                        <g id="icon/M/Obhod/Star/Light/Green" transform="translate(128.000000, 16.000000)">
                            <g id="icon">
                                <g id="Group">
                                    <rect id="Rectangle" x="0" y="0" width="24" height="24"></rect>
                                    <polygon id="Star" fill="#22D66A" points="12 16.69 5.53436222 21.2991869 7.91996755 13.7256829 1.53837832 9.00081306 9.47840127 8.92931709 12 1.4 14.5215987 8.92931709 22.4616217 9.00081306 16.0800325 13.7256829 18.4656378 21.2991869"></polygon>
                                </g>
                            </g>
                        </g>
                        <g id="icon/M/Obhod/Star/Light/Green" transform="translate(152.000000, 16.000000)">
                            <g id="icon">
                                <g id="Group">
                                    <rect id="Rectangle" x="0" y="0" width="24" height="24"></rect>
                                    <polygon id="Star" fill="#22D66A" points="12 16.69 5.53436222 21.2991869 7.91996755 13.7256829 1.53837832 9.00081306 9.47840127 8.92931709 12 1.4 14.5215987 8.92931709 22.4616217 9.00081306 16.0800325 13.7256829 18.4656378 21.2991869"></polygon>
                                </g>
                            </g>
                        </g>
                        <g id="icon/M/Obhod/Star/Light/0" transform="translate(176.000000, 16.000000)">
                            <g id="icon">
                                <g id="Group">
                                    <rect id="Rectangle" x="0" y="0" width="24" height="24"></rect>
                                    <polygon id="Star" fill="#F2F2F4" points="12 16.69 5.53436222 21.2991869 7.91996755 13.7256829 1.53837832 9.00081306 9.47840127 8.92931709 12 1.4 14.5215987 8.92931709 22.4616217 9.00081306 16.0800325 13.7256829 18.4656378 21.2991869"></polygon>
                                </g>
                            </g>
                        </g>
                    </g>
                </g>
            </g>
        </g>
    </g>
</svg>