<?xml version="1.0" encoding="UTF-8"?>
<svg width="48px" height="48px" viewBox="0 0 48 48" version="1.1" xmlns="http://www.w3.org/2000/svg" xmlns:xlink="http://www.w3.org/1999/xlink">
    <!-- Generator: sketchtool 61.2 (101010) - https://sketch.com -->
    <title>6F6F154C-104A-4F09-829A-3ED101D4C027</title>
    <desc>Created with sketchtool.</desc>
    <g id="Page-1" stroke="none" stroke-width="1" fill="none" fill-rule="evenodd">
        <g id="desktop-default-article1-1280" transform="translate(-272.000000, -8924.000000)">
            <g id="Group-15" transform="translate(256.000000, 8452.000000)">
                <g id="Component/Doc-list/Normal" transform="translate(16.000000, 456.000000)">
                    <g id="Group-17">
                        <g id="icon/XL/document/other-Copy-14" transform="translate(0.000000, 16.000000)">
                            <g id="icon">
                                <g id="Group">
                                    <rect id="Rectangle" x="0" y="0" width="48" height="48"></rect>
                                </g>
                            </g>
                            <path d="M10,4 L31.5857864,4 C31.8510029,4 32.1053568,4.10535684 32.2928932,4.29289322 L39.7071068,11.7071068 C39.8946432,11.8946432 40,12.1489971 40,12.4142136 L40,42 C40,43.1045695 39.1045695,44 38,44 L10,44 C8.8954305,44 8,43.1045695 8,42 L8,6 C8,4.8954305 8.8954305,4 10,4 Z" id="Rectangle" fill="#F2F2F4"></path>
                            <path d="M32,4 L40,12 L34,12 C32.8954305,12 32,11.1045695 32,10 L32,4 L32,4 Z" id="Rectangle" fill="#D0D0D9"></path>
                            <circle id="Oval" fill="#909099" cx="24" cy="24" r="2"></circle>
                            <circle id="Oval" fill="#909099" cx="30" cy="24" r="2"></circle>
                            <circle id="Oval" fill="#909099" cx="18" cy="24" r="2"></circle>
                        </g>
                    </g>
                </g>
            </g>
        </g>
    </g>
</svg>