<?xml version="1.0" encoding="UTF-8"?>
<svg width="24px" height="24px" viewBox="0 0 24 24" version="1.1" xmlns="http://www.w3.org/2000/svg" xmlns:xlink="http://www.w3.org/1999/xlink">
    <!-- Generator: sketchtool 61.2 (101010) - https://sketch.com -->
    <title>B5839F83-10C6-4883-947F-84542D20E994</title>
    <desc>Created with sketchtool.</desc>
    <g id="Page-1" stroke="none" stroke-width="1" fill="none" fill-rule="evenodd">
        <g id="desktop-default-article1-1280" transform="translate(-350.000000, -9208.000000)">
            <g id="Article/meta/down" transform="translate(272.000000, 9196.000000)">
                <g id="Article/likes">
                    <g id="icon/M/Article/Like/Down/Silver" transform="translate(78.000000, 12.000000)">
                        <g id="Group">
                            <g id="Group-3" transform="translate(12.000000, 12.000000) rotate(180.000000) translate(-12.000000, -12.000000) ">
                                <rect id="Rectangle" x="0" y="0" width="24" height="24"></rect>
                            </g>
                            <path d="M5.2,13.9 C6.12435897,13.9 7.04871795,13.9 7.97307692,13.9 C11.0897652,11.8936085 11.4384615,4.8 13.2038462,4.8 C15.1217949,4.8 15.2089744,7.13333333 13.4653846,11.8 L16.2624771,11.8 C17.9193314,11.8 19.2624771,13.1431458 19.2624771,14.8 C19.2624771,15.0690531 19.2262831,15.3368836 19.1548687,15.5962859 L18.1913059,19.0962859 C17.8329286,20.3980387 16.6490975,21.3 15.2989144,21.3 L5.2,21.3 C4.0954305,21.3 3.2,20.4045695 3.2,19.3 L3.2,15.9 C3.2,14.7954305 4.0954305,13.9 5.2,13.9 Z" id="Rectangle" stroke="#909099" stroke-width="1.6" transform="translate(11.700000, 13.050000) rotate(180.000000) translate(-11.700000, -13.050000) "></path>
                        </g>
                    </g>
                </g>
            </g>
        </g>
    </g>
</svg>