<?xml version="1.0" encoding="UTF-8"?>
<svg width="48px" height="48px" viewBox="0 0 48 48" version="1.1" xmlns="http://www.w3.org/2000/svg" xmlns:xlink="http://www.w3.org/1999/xlink">
    <g id="Page-1" stroke="none" stroke-width="1" fill="none" fill-rule="evenodd">
        <g id="desktop-main-new-icons" transform="translate(-272.000000, -32.000000)">
            <g id="Group-12" transform="translate(272.000000, 32.000000)">
                <circle id="Oval-Copy-4" fill="#909099" cx="24" cy="24" r="24"></circle>
                <g id="index/icon/M/safety-Copy-13" transform="translate(12.000000, 12.000000)">
                    <g id="icon/M/Obhod/Star/Light/Silver-Copy-2">
                        <g id="icon">
                            <g id="Group">
                                <rect id="Rectangle" x="0" y="0" width="24" height="24"></rect>
                                <path d="M6.72766572,3.54441221 C9.63949554,0.632582398 14.3602072,0.632285149 17.2716704,3.54374829 C20.1184343,6.39051225 20.1814115,10.9670071 17.460815,13.8909908 L17.2710064,14.0877529 C16.5596509,14.7991085 16.0632758,15.9895742 15.7818811,17.6591501 L15.7284686,17.9994535 L15.2956638,18.1084495 C12.9837224,18.6526905 10.5704901,18.6165181 8.27200092,17.999923 C8.00123492,16.1514856 7.48623522,14.8476503 6.7270018,14.0884168 C3.81553866,11.1769537 3.81583591,6.45624203 6.72766572,3.54441221 Z M12,4.15 C9.32141896,4.15 7.15,6.32141896 7.15,9 C7.15,9.46944204 7.53055796,9.85 8,9.85 C8.46944204,9.85 8.85,9.46944204 8.85,9 C8.85,7.26030304 10.260303,5.85 12,5.85 C12.469442,5.85 12.85,5.46944204 12.85,5 C12.85,4.53055796 12.469442,4.15 12,4.15 Z" id="Shape" fill="#FFFFFF"></path>
                            </g>
                        </g>
                    </g>
                    <path d="M8,19.5 L8.00778513,19.5019443 C10.6316423,20.1572311 13.376462,20.1565633 16,19.5 L16,19.5 L16,19.5 L16,21 C16,22.1045695 15.1045695,23 14,23 L14,23 L14,23 L13,24 L12,24 L10.997935,24 L10.997935,24 L10,23 C8.8954305,23 8,22.1045695 8,21 L8,19.5 L8,19.5 Z" id="Rectangle" fill="#FFFFFF"></path>
                </g>
            </g>
        </g>
    </g>
</svg>