<?xml version="1.0" encoding="UTF-8"?>
<svg width="48px" height="48px" viewBox="0 0 48 48" version="1.1" xmlns="http://www.w3.org/2000/svg" xmlns:xlink="http://www.w3.org/1999/xlink">
    <!-- Generator: sketchtool 61.2 (101010) - https://sketch.com -->
    <title>CD83A8E2-E9AE-4358-BD52-62B4FBE5F63B</title>
    <desc>Created with sketchtool.</desc>
    <g id="Page-1" stroke="none" stroke-width="1" fill="none" fill-rule="evenodd">
        <g id="desktop-main-new-icons" transform="translate(-352.000000, -32.000000)">
            <g id="Group-5" transform="translate(352.000000, 32.000000)">
                <g id="Group-5-Copy-3" transform="translate(0.000000, 24.000000)">
                    <g id="Group-5-Copy-2">
                        <circle id="Oval-Copy-5" fill="#909099" cx="12" cy="12" r="12"></circle>
                        <path d="M14,17 L12,17 L11.999273,10 L10.7895844,10.6052078 C10.376094,10.811953 9.88079854,10.7067996 9.5856434,10.3646223 L9.5,10.25 C9.25622642,9.88433963 9.35503519,9.39029581 9.72069555,9.14652223 L9.80622577,9.09688711 L9.80622577,9.09688711 L14,7 L14,17 Z" id="Path" fill="#FFFFFF"></path>
                    </g>
                </g>
                <g id="Group-5-Copy-3" transform="translate(24.000000, 24.000000)">
                    <g id="Group-5-Copy-2">
                        <circle id="Oval-Copy-5" fill="#909099" cx="12" cy="12" r="12"></circle>
                        <path d="M14,17 L12,17 L11.999273,10 L10.7895844,10.6052078 C10.376094,10.811953 9.88079854,10.7067996 9.5856434,10.3646223 L9.5,10.25 C9.25622642,9.88433963 9.35503519,9.39029581 9.72069555,9.14652223 L9.80622577,9.09688711 L9.80622577,9.09688711 L14,7 L14,17 Z" id="Path" fill="#FFFFFF"></path>
                    </g>
                </g>
                <g id="Group-5-Copy-3">
                    <g id="Group-5-Copy-2">
                        <circle id="Oval-Copy-5" fill="#909099" cx="12" cy="12" r="12"></circle>
                        <path d="M14,17 L12,17 L11.999273,10 L10.7895844,10.6052078 C10.376094,10.811953 9.88079854,10.7067996 9.5856434,10.3646223 L9.5,10.25 C9.25622642,9.88433963 9.35503519,9.39029581 9.72069555,9.14652223 L9.80622577,9.09688711 L9.80622577,9.09688711 L14,7 L14,17 Z" id="Path" fill="#FFFFFF"></path>
                    </g>
                </g>
                <g id="Group-5-Copy-3" transform="translate(24.000000, 0.000000)">
                    <g id="Group-5-Copy-2">
                        <circle id="Oval-Copy-5" fill="#909099" cx="12" cy="12" r="12"></circle>
                        <path d="M14,17 L12,17 L11.999273,10 L10.7895844,10.6052078 C10.376094,10.811953 9.88079854,10.7067996 9.5856434,10.3646223 L9.5,10.25 C9.25622642,9.88433963 9.35503519,9.39029581 9.72069555,9.14652223 L9.80622577,9.09688711 L9.80622577,9.09688711 L14,7 L14,17 Z" id="Path" fill="#FFFFFF"></path>
                    </g>
                </g>
            </g>
        </g>
    </g>
</svg>