<?xml version="1.0" encoding="UTF-8"?>
<svg width="48px" height="48px" viewBox="0 0 48 48" version="1.1" xmlns="http://www.w3.org/2000/svg" xmlns:xlink="http://www.w3.org/1999/xlink">
    <g id="Page-1" stroke="none" stroke-width="1" fill="none" fill-rule="evenodd">
        <g id="desktop-main-new-icons" transform="translate(-32.000000, -32.000000)">
            <g id="Group-9" transform="translate(32.000000, 32.000000)">
                <circle id="Oval" fill="#909099" cx="24" cy="24" r="24"></circle>
                <g id="index/icon/M/safety-Copy-12" transform="translate(12.000000, 12.000000)">
                    <g id="icon/M/Obhod/Star/Light/Silver-Copy-2">
                        <g id="icon">
                            <g id="Group">
                                <rect id="Rectangle" x="0" y="0" width="24" height="24"></rect>
                                <path d="M15.5,12 C17.9852814,12 20,14.0147186 20,16.5 L20,20 C20,20.5522847 19.5522847,21 19,21 L13.5,21 L12.5,13.5 L14,12 L15.5,12 Z M10,12 L11.5,13.5 L10.5,21 L5,21 C4.44771525,21 4,20.5522847 4,20 L4,16.5 C4,14.0147186 6.01471863,12 8.5,12 L10,12 Z M12,3 C14.209139,3 16,4.790861 16,7 C16,9.209139 14.209139,11 12,11 C9.790861,11 8,9.209139 8,7 C8,4.790861 9.790861,3 12,3 Z" id="Shape" fill="#FFFFFF"></path>
                            </g>
                        </g>
                    </g>
                </g>
            </g>
        </g>
    </g>
</svg>