<?xml version="1.0" encoding="UTF-8"?>
<svg width="48px" height="48px" viewBox="0 0 48 48" version="1.1" xmlns="http://www.w3.org/2000/svg" xmlns:xlink="http://www.w3.org/1999/xlink">
    <g id="Page-1" stroke="none" stroke-width="1" fill="none" fill-rule="evenodd">
        <g id="desktop-main-new-icons" transform="translate(-112.000000, -32.000000)">
            <g id="Group-10" transform="translate(112.000000, 32.000000)">
                <circle id="Oval-Copy-2" fill="#909099" cx="24" cy="24" r="24"></circle>
                <g id="index/icon/M/safety-Copy-11" transform="translate(12.000000, 12.000000)">
                    <g id="icon/M/Obhod/Star/Light/Silver-Copy-2">
                        <g id="icon">
                            <g id="Group">
                                <rect id="Rectangle" x="0" y="0" width="24" height="24"></rect>
                            </g>
                        </g>
                    </g>
                    <path d="M17,7 C17,5.40231912 15.75108,4.09633912 14.1762728,4.00509269 L14,4 L10,4 C8.40231912,4 7.09633912,5.24891996 7.00509269,6.82372721 L7,7 L7,15 C7,15.1570221 6.96380925,15.3055915 6.89931404,15.4378217 L6.9,16 C6.9,17.6530454 8.19384916,19.0038961 9.82408797,19.0950927 L10,19.1 L10.2134797,19.0999576 C10.5428506,18.4474649 11.2191698,18 12,18 C13.1045695,18 14,18.8954305 14,20 C14,21.1045695 13.1045695,22 12,22 C11.2195714,22 10.5435464,21.5529953 10.2139882,20.9010492 L10,20.9 C7.36694514,20.9 5.21895832,18.8231768 5.10477427,16.2182652 L5.1,16 L4.5,16 C3.11928813,16 2,14.8807119 2,13.5 L2,10.5 C2,9.11928813 3.11928813,8 4.5,8 L5,8 L5,7 C5,4.3112453 7.12230671,2.11818189 9.78311038,2.00461951 L10,2 L14,2 C16.6887547,2 18.8818181,4.12230671 18.9953805,6.78311038 L19,7 L19,8 L19.5,8 C20.8807119,8 22,9.11928813 22,10.5 L22,13.5 C22,14.8807119 20.8807119,16 19.5,16 L18,16 C17.4477153,16 17,15.5522847 17,15 L17,7 Z" id="Path" fill="#FFFFFF"></path>
                </g>
            </g>
        </g>
    </g>
</svg>