<?xml version="1.0" encoding="UTF-8"?>
<svg width="48px" height="48px" viewBox="0 0 48 48" version="1.1" xmlns="http://www.w3.org/2000/svg" xmlns:xlink="http://www.w3.org/1999/xlink">
    <!-- Generator: sketchtool 61.2 (101010) - https://sketch.com -->
    <title>B0592DCB-CF03-4BFB-9EF1-93BD14BB2BC6</title>
    <desc>Created with sketchtool.</desc>
    <g id="Page-1" stroke="none" stroke-width="1" fill="none" fill-rule="evenodd">
        <g id="desktop-default-article1-1280" transform="translate(-272.000000, -8764.000000)">
            <g id="Group-15" transform="translate(256.000000, 8452.000000)">
                <g id="Component/Doc-list/Hover" transform="translate(0.000000, 296.000000)">
                    <g id="Group-17" transform="translate(16.000000, 16.000000)">
                        <g id="icon/XL/document/other-Copy-16">
                            <g id="icon">
                                <g id="Group">
                                    <rect id="Rectangle" x="0" y="0" width="48" height="48"></rect>
                                </g>
                            </g>
                            <path d="M10,4 L31.5857864,4 C31.8510029,4 32.1053568,4.10535684 32.2928932,4.29289322 L39.7071068,11.7071068 C39.8946432,11.8946432 40,12.1489971 40,12.4142136 L40,42 C40,43.1045695 39.1045695,44 38,44 L10,44 C8.8954305,44 8,43.1045695 8,42 L8,6 C8,4.8954305 8.8954305,4 10,4 Z" id="Rectangle" fill="#F2F2F4"></path>
                            <path d="M16.0118544,33.0444336 L31.9881456,33.0444336 C33.2698924,33.0444336 34.3089536,34.0834947 34.3089536,35.3652416 C34.3089536,35.7712866 34.2024226,36.1702258 34,36.5222168 C33.366803,37.6232778 31.960909,38.0025565 30.859848,37.3693595 C30.5057258,37.1657113 30.2122373,36.8714152 30.0095628,36.5167349 L21.9845558,22.4729726 C21.3484991,21.3598734 21.7352185,19.9419025 22.8483176,19.3058459 C23.1990592,19.1054221 23.596033,19 24,19 C25.2820131,19 26.3212901,20.039277 26.3212901,21.3212901 C26.3212901,21.7252572 26.215868,22.122231 26.0154442,22.4729726 L17.9904372,36.5167349 C17.3602677,37.6195315 15.9554212,38.0026715 14.8526246,37.372502 C14.4979442,37.1698275 14.2036482,36.8763389 14,36.5222168 C13.3610202,35.4111003 13.7437627,33.9923669 14.8548792,33.3533872 C15.2068702,33.1509646 15.6058094,33.0444336 16.0118544,33.0444336 Z" id="Path-2" stroke="#909099" stroke-width="2"></path>
                            <path d="M32,4 L40,12 L34,12 C32.8954305,12 32,11.1045695 32,10 L32,4 L32,4 Z" id="Rectangle" fill="#F65145"></path>
                        </g>
                    </g>
                </g>
            </g>
        </g>
    </g>
</svg>