<svg xmlns="http://www.w3.org/2000/svg" width="120" height="120" viewBox="0 0 120 120">
    <g fill="none" fill-rule="evenodd">
        <path d="M0 0H120V120H0z"/>
        <path fill="#909099" d="M79 116c1.105 0 2 .895 2 2s-.895 2-2 2H35c-1.105 0-2-.895-2-2s.895-2 2-2h44zm-6-18c2.21 0 4 1.79 4 4v12H37v-12c0-2.21 1.79-4 4-4h32zm-6 4H47v8h20v-8zm4-10c1.105 0 2 .895 2 2s-.895 2-2 2H43c-1.105 0-2-.895-2-2s.895-2 2-2h28zm-5-19.373V90H48V72.626C50.84 73.52 53.863 74 57 74s6.159-.481 9-1.373zM85 14v30c0 15.464-12.536 28-28 28S29 59.464 29 44V14h56zM57 24l-3.668 10.952-11.549.104 9.282 6.872-3.47 11.016L57 46.24l9.405 6.704-3.47-11.016 9.282-6.872-11.55-.104L57 24zm-37.37-8.685L27 19v5.59l-9.606-4.803c-.597-.298-1.276-.389-1.93-.258-1.624.325-2.678 1.905-2.353 3.53l2.22 11.098C16.358 39.3 20.872 43 26.116 43H27v5h-.883c-7.627 0-14.194-5.383-15.69-12.862l-2.22-11.099c-.866-4.332 1.944-8.547 6.277-9.413 1.744-.349 3.555-.106 5.146.69zm79.886-.69c4.251.851 7.036 4.924 6.321 9.17l-.045.244-2.22 11.099c-1.473 7.365-7.864 12.698-15.343 12.858l-.346.004H87v-5h.883c5.244 0 9.758-3.701 10.787-8.843l2.22-11.098c.324-1.625-.73-3.205-2.354-3.53-.654-.131-1.333-.04-1.93.258L87 24.59V19l7.37-3.685c1.59-.795 3.402-1.038 5.146-.69zM87 8c1.105 0 2 .895 2 2s-.895 2-2 2H27c-1.105 0-2-.895-2-2s.895-2 2-2h60z"/>
    </g>
</svg>
