<?xml version="1.0" encoding="UTF-8"?>
<svg width="40px" height="40px" viewBox="0 0 40 40" version="1.1" xmlns="http://www.w3.org/2000/svg" xmlns:xlink="http://www.w3.org/1999/xlink">
    <title>Components/rate-ring/XL/1 Copy</title>
    <g id="Components/rate-ring/XL/1-Copy" stroke="none" stroke-width="1" fill="none" fill-rule="evenodd">
        <g id="Components/rate-ring/4">
            <rect id="Rectangle" x="0" y="0" width="40" height="40"></rect>
            <polygon id="1" fill="#1A1A1A" fill-rule="nonzero" points="24.765625 27 24.765625 24.5585938 21.8847656 24.5585938 21.8847656 12.7617188 15.8300781 13.9824219 15.8300781 16.4824219 18.8085938 15.8378906 18.8085938 24.5585938 15.9082031 24.5585938 15.9082031 27"></polygon>
            <path d="M37.5945456,14.2352368 C38.8018181,17.9508398 38.8018181,21.9532625 37.5945456,25.6688655 C36.387273,29.3844685 34.0347079,32.6224966 30.8740272,34.9188655" id="Path" stroke="#F2F2F4" stroke-width="3"></path>
            <path d="M30.8740272,34.9188655 C27.7133465,37.2152345 23.9068162,38.4520511 20,38.4520511 C16.0931838,38.4520511 12.2866535,37.2152345 9.12597283,34.9188655" id="Path" stroke="#F2F2F4" stroke-width="3"></path>
            <path d="M9.12597283,34.9188655 C5.96529214,32.6224966 3.61272705,29.3844685 2.40545445,25.6688655 C1.19818185,21.9532625 1.19818185,17.9508398 2.40545445,14.2352368" id="Path" stroke="#F2F2F4" stroke-width="3"></path>
            <path d="M2.40545445,14.2352368 C3.61272705,10.5196338 5.96529214,7.2816057 9.12597283,4.98523675 C12.2866535,2.68886781 16.0931838,1.45205115 20,1.45205115" id="Path" stroke="#F2F2F4" stroke-width="3"></path>
            <path d="M20,1.45205115 C23.9068162,1.45205115 27.7133465,2.68886781 30.8740272,4.98523675 C34.0347079,7.2816057 36.387273,10.5196338 37.5945456,14.2352368" id="Path" stroke="#D0D0D9" stroke-width="3" stroke-linecap="round"></path>
        </g>
    </g>
</svg>