<?xml version="1.0" encoding="UTF-8"?>
<svg width="40px" height="40px" viewBox="0 0 40 40" version="1.1" xmlns="http://www.w3.org/2000/svg" xmlns:xlink="http://www.w3.org/1999/xlink">
    <title>Components/rate-ring/XL/3 Copy</title>
    <g id="Components/rate-ring/XL/3-Copy" stroke="none" stroke-width="1" fill="none" fill-rule="evenodd">
        <g id="Components/rate-ring/4">
            <rect id="Rectangle" x="0" y="0" width="40" height="40"></rect>
            <path d="M19.2089844,27.2441406 C20.8951823,27.2441406 22.2167969,26.8632812 23.1738281,26.1015625 C24.1308594,25.3398438 24.609375,24.3046875 24.609375,22.9960938 C24.609375,22.1302083 24.3229167,21.3994141 23.75,20.8037109 C23.1770833,20.2080078 22.3958333,19.8483073 21.40625,19.7246094 L21.40625,19.7246094 L21.40625,19.6757812 C23.2617188,19.2135417 24.1894531,18.0677083 24.1894531,16.2382812 C24.1894531,15.2096354 23.7906901,14.3730469 22.9931641,13.7285156 C22.195638,13.0839844 21.0807292,12.7617188 19.6484375,12.7617188 C18.3398438,12.7617188 17.1940104,13.0091146 16.2109375,13.5039062 L16.2109375,13.5039062 L16.2109375,16.0234375 C17.0963542,15.4179688 18.0078125,15.1152344 18.9453125,15.1152344 C20.3450521,15.1152344 21.0449219,15.6848958 21.0449219,16.8242188 C21.0449219,18.0351562 20.1334635,18.640625 18.3105469,18.640625 L18.3105469,18.640625 L17.1484375,18.640625 L17.1484375,21.0039062 L18.4082031,21.0039062 C19.358724,21.0039062 20.1057943,21.1731771 20.6494141,21.5117188 C21.1930339,21.8502604 21.4648438,22.3320312 21.4648438,22.9570312 C21.4648438,23.5625 21.2451172,24.0345052 20.8056641,24.3730469 C20.3662109,24.7115885 19.7526042,24.8808594 18.9648438,24.8808594 C17.7148438,24.8808594 16.6210938,24.5390625 15.6835938,23.8554688 L15.6835938,23.8554688 L15.6835938,26.5410156 C16.5885417,27.0097656 17.7636719,27.2441406 19.2089844,27.2441406 Z" id="3" fill="#1A1A1A" fill-rule="nonzero"></path>
            <path d="M9.12597283,34.9188655 C5.96529214,32.6224966 3.61272705,29.3844685 2.40545445,25.6688655 C1.19818185,21.9532625 1.19818185,17.9508398 2.40545445,14.2352368" id="Path" stroke="#F2F2F4" stroke-width="3"></path>
            <path d="M2.40545445,14.2352368 C3.61272705,10.5196338 5.96529214,7.2816057 9.12597283,4.98523675 C12.2866535,2.68886781 16.0931838,1.45205115 20,1.45205115" id="Path" stroke="#F2F2F4" stroke-width="3"></path>
            <path d="M20,1.45205115 C23.9068162,1.45205115 27.7133465,2.68886781 30.8740272,4.98523675 C34.0347079,7.2816057 36.387273,10.5196338 37.5945456,14.2352368" id="Path" stroke="#F5A631" stroke-width="3" stroke-linecap="round"></path>
            <path d="M37.5945456,14.2352368 C38.8018181,17.9508398 38.8018181,21.9532625 37.5945456,25.6688655 C36.387273,29.3844685 34.0347079,32.6224966 30.8740272,34.9188655" id="Path" stroke="#F5A631" stroke-width="3" stroke-linecap="round"></path>
            <path d="M30.8740272,34.9188655 C27.7133465,37.2152345 23.9068162,38.4520511 20,38.4520511 C16.0931838,38.4520511 12.2866535,37.2152345 9.12597283,34.9188655" id="Path" stroke="#F5A631" stroke-width="3" stroke-linecap="round"></path>
        </g>
    </g>
</svg>