<?xml version="1.0" encoding="UTF-8"?>
<svg width="40px" height="40px" viewBox="0 0 40 40" version="1.1" xmlns="http://www.w3.org/2000/svg" xmlns:xlink="http://www.w3.org/1999/xlink">
    <title>Components/rate-ring/XL/2 Copy</title>
    <g id="Components/rate-ring/XL/2-Copy" stroke="none" stroke-width="1" fill="none" fill-rule="evenodd">
        <g id="Components/rate-ring/4">
            <rect id="Rectangle" x="0" y="0" width="40" height="40"></rect>
            <path d="M24.53125,27 L24.53125,24.4414062 L18.8476562,24.4414062 L18.8476562,24.3828125 L21.7285156,21.8242188 C23.688151,20.0794271 24.6679688,18.389974 24.6679688,16.7558594 C24.6679688,15.531901 24.2659505,14.5602214 23.4619141,13.8408203 C22.6578776,13.1214193 21.5397135,12.7617188 20.1074219,12.7617188 C18.577474,12.7617188 17.203776,13.155599 15.9863281,13.9433594 L15.9863281,13.9433594 L15.9863281,16.6582031 C17.0865885,15.7011719 18.2389323,15.2226562 19.4433594,15.2226562 C20.8300781,15.2226562 21.5234375,15.8671875 21.5234375,17.15625 C21.5234375,17.7356771 21.3590495,18.2874349 21.0302734,18.8115234 C20.7014974,19.335612 20.1334635,19.985026 19.3261719,20.7597656 L19.3261719,20.7597656 L15.3125,24.5976562 L15.3125,27 L24.53125,27 Z" id="2" fill="#1A1A1A" fill-rule="nonzero"></path>
            <path d="M30.8740272,34.9188655 C27.7133465,37.2152345 23.9068162,38.4520511 20,38.4520511 C16.0931838,38.4520511 12.2866535,37.2152345 9.12597283,34.9188655" id="Path" stroke="#F2F2F4" stroke-width="3"></path>
            <path d="M9.12597283,34.9188655 C5.96529214,32.6224966 3.61272705,29.3844685 2.40545445,25.6688655 C1.19818185,21.9532625 1.19818185,17.9508398 2.40545445,14.2352368" id="Path" stroke="#F2F2F4" stroke-width="3"></path>
            <path d="M2.40545445,14.2352368 C3.61272705,10.5196338 5.96529214,7.2816057 9.12597283,4.98523675 C12.2866535,2.68886781 16.0931838,1.45205115 20,1.45205115" id="Path" stroke="#F2F2F4" stroke-width="3"></path>
            <path d="M20,1.45205115 C23.9068162,1.45205115 27.7133465,2.68886781 30.8740272,4.98523675 C34.0347079,7.2816057 36.387273,10.5196338 37.5945456,14.2352368" id="Path" stroke="#F65145" stroke-width="3" stroke-linecap="round"></path>
            <path d="M37.5945456,14.2352368 C38.8018181,17.9508398 38.8018181,21.9532625 37.5945456,25.6688655 C36.387273,29.3844685 34.0347079,32.6224966 30.8740272,34.9188655" id="Path" stroke="#F65145" stroke-width="3" stroke-linecap="round"></path>
        </g>
    </g>
</svg>