<?xml version="1.0" encoding="UTF-8"?>
<svg width="32px" height="32px" viewBox="0 0 32 32" version="1.1" xmlns="http://www.w3.org/2000/svg" xmlns:xlink="http://www.w3.org/1999/xlink">
    <!-- Generator: sketchtool 61.2 (101010) - https://sketch.com -->
    <title>692D153A-53B8-47EF-9DAE-81C9B645A1B7</title>
    <desc>Created with sketchtool.</desc>
    <g id="Page-1" stroke="none" stroke-width="1" fill="none" fill-rule="evenodd">
        <g id="desktop-obhod-managers-1280" transform="translate(-80.000000, -1728.000000)">
            <g id="Group-20" transform="translate(80.000000, 1392.000000)">
                <g id="Group-8" transform="translate(0.000000, 192.000000)">
                    <g id="Group-8-Copy-12" transform="translate(0.000000, 144.000000)">
                        <g id="Components/rate-ring/L/0">
                            <g id="Components/rate-ring/5" transform="translate(1.000000, 1.000000)">
                                <g id="Group" stroke="#F2F2F4" stroke-linecap="round" stroke-width="2">
                                    <path d="M0.73402174,10.3629025 C1.71271739,7.35078696 3.61986349,4.72582555 6.18212198,2.8642358 C8.74438046,1.00264604 11.8302077,-9.90022878e-15 14.9973333,-9.90022878e-15" id="Path"></path>
                                    <path d="M23.8125447,27.1304309 C21.2502862,28.9920206 18.164459,29.9946667 14.9973333,29.9946667 C11.8302077,29.9946667 8.74438046,28.9920206 6.18212198,27.1304309" id="Path"></path>
                                    <path d="M6.18212198,27.1304309 C3.61986349,25.2688411 1.71271739,22.6438797 0.73402174,19.6317642 C-0.244673913,16.6196487 -0.244673913,13.375018 0.73402174,10.3629025" id="Path"></path>
                                    <path d="M29.2606449,10.3629025 C30.2393406,13.375018 30.2393406,16.6196487 29.2606449,19.6317642 C28.2819493,22.6438797 26.3748032,25.2688411 23.8125447,27.1304309" id="Path"></path>
                                    <path d="M14.9973333,-2.16004992e-14 C18.164459,-2.16004992e-14 21.2502862,1.00264604 23.8125447,2.8642358 C26.3748032,4.72582555 28.2819493,7.35078696 29.2606449,10.3629025" id="Path"></path>
                                </g>
                                <circle id="Oval" fill="#D0D0D9" cx="15" cy="15" r="1.5"></circle>
                                <circle id="Oval" fill="#D0D0D9" cx="20" cy="15" r="1.5"></circle>
                                <circle id="Oval" fill="#D0D0D9" cx="10" cy="15" r="1.5"></circle>
                            </g>
                        </g>
                    </g>
                </g>
            </g>
        </g>
    </g>
</svg>