<?xml version="1.0" encoding="UTF-8"?>
<svg width="40px" height="40px" viewBox="0 0 40 40" version="1.1" xmlns="http://www.w3.org/2000/svg" xmlns:xlink="http://www.w3.org/1999/xlink">
    <title>Components/rate-ring/XL/4 Copy</title>
    <g id="Components/rate-ring/XL/4-Copy" stroke="none" stroke-width="1" fill="none" fill-rule="evenodd">
        <g id="Components/rate-ring/4">
            <rect id="Rectangle" x="0" y="0" width="40" height="40"></rect>
            <path d="M23.5449219,27 L23.5449219,24.0214844 L25.2246094,24.0214844 L25.2246094,21.8242188 L23.5449219,21.8242188 L23.5449219,12.9960938 L20.5078125,12.9960938 L14.6289062,22.0585938 L14.6289062,24.0214844 L20.7324219,24.0214844 L20.7324219,27 L23.5449219,27 Z M20.7324219,21.8242188 L17.1875,21.8242188 L20.1855469,17.1757812 C20.4459635,16.6809896 20.6217448,16.3164062 20.7128906,16.0820312 L20.7128906,16.0820312 L20.7714844,16.0820312 C20.7454427,16.5833333 20.7324219,17.0292969 20.7324219,17.4199219 L20.7324219,17.4199219 L20.7324219,21.8242188 Z" id="4" fill="#1A1A1A" fill-rule="nonzero"></path>
            <path d="M2.40545445,14.2352368 C3.61272705,10.5196338 5.96529214,7.2816057 9.12597283,4.98523675 C12.2866535,2.68886781 16.0931838,1.45205115 20,1.45205115" id="Path" stroke="#F2F2F4" stroke-width="3"></path>
            <path d="M20,1.45205115 C23.9068162,1.45205115 27.7133465,2.68886781 30.8740272,4.98523675 C34.0347079,7.2816057 36.387273,10.5196338 37.5945456,14.2352368" id="Path" stroke="#22D66A" stroke-width="3" stroke-linecap="round"></path>
            <path d="M37.5945456,14.2352368 C38.8018181,17.9508398 38.8018181,21.9532625 37.5945456,25.6688655 C36.387273,29.3844685 34.0347079,32.6224966 30.8740272,34.9188655" id="Path" stroke="#22D66A" stroke-width="3" stroke-linecap="round"></path>
            <path d="M30.8740272,34.9188655 C27.7133465,37.2152345 23.9068162,38.4520511 20,38.4520511 C16.0931838,38.4520511 12.2866535,37.2152345 9.12597283,34.9188655" id="Path" stroke="#22D66A" stroke-width="3" stroke-linecap="round"></path>
            <path d="M9.12597283,34.9188655 C5.96529214,32.6224966 3.61272705,29.3844685 2.40545445,25.6688655 C1.19818185,21.9532625 1.19818185,17.9508398 2.40545445,14.2352368" id="Path" stroke="#22D66A" stroke-width="3" stroke-linecap="round"></path>
        </g>
    </g>
</svg>