<?xml version="1.0" encoding="UTF-8"?>
<svg width="40px" height="40px" viewBox="0 0 40 40" version="1.1" xmlns="http://www.w3.org/2000/svg" xmlns:xlink="http://www.w3.org/1999/xlink">
    <title>Components/rate-ring/XL/5 Copy</title>
    <g id="Components/rate-ring/XL/5-Copy" stroke="none" stroke-width="1" fill="none" fill-rule="evenodd">
        <g id="Components/rate-ring/5">
            <rect id="Rectangle" x="0" y="0" width="40" height="40"></rect>
            <path d="M20,1.45205115 C23.9068162,1.45205115 27.7133465,2.68886781 30.8740272,4.98523675 C34.0347079,7.2816057 36.387273,10.5196338 37.5945456,14.2352368" id="Path" stroke="#22D66A" stroke-width="3" stroke-linecap="round"></path>
            <path d="M37.5945456,14.2352368 C38.8018181,17.9508398 38.8018181,21.9532625 37.5945456,25.6688655 C36.387273,29.3844685 34.0347079,32.6224966 30.8740272,34.9188655" id="Path" stroke="#22D66A" stroke-width="3" stroke-linecap="round"></path>
            <path d="M30.8740272,34.9188655 C27.7133465,37.2152345 23.9068162,38.4520511 20,38.4520511 C16.0931838,38.4520511 12.2866535,37.2152345 9.12597283,34.9188655" id="Path" stroke="#22D66A" stroke-width="3" stroke-linecap="round"></path>
            <path d="M9.12597283,34.9188655 C5.96529214,32.6224966 3.61272705,29.3844685 2.40545445,25.6688655 C1.19818185,21.9532625 1.19818185,17.9508398 2.40545445,14.2352368" id="Path" stroke="#22D66A" stroke-width="3" stroke-linecap="round"></path>
            <path d="M2.40545445,14.2352368 C3.61272705,10.5196338 5.96529214,7.2816057 9.12597283,4.98523675 C12.2866535,2.68886781 16.0931838,1.45205115 20,1.45205115" id="Path" stroke="#22D66A" stroke-width="3" stroke-linecap="round"></path>
            <path d="M19.2480469,27.2441406 C20.9082031,27.2441406 22.2233073,26.7965495 23.1933594,25.9013672 C24.1634115,25.0061849 24.6484375,23.8522135 24.6484375,22.4394531 C24.6484375,21.1634115 24.2415365,20.1477865 23.4277344,19.3925781 C22.6139323,18.6373698 21.4876302,18.2597656 20.0488281,18.2597656 C19.6842448,18.2597656 19.296875,18.2792969 18.8867188,18.3183594 L18.8867188,18.3183594 L18.8867188,15.515625 L24.0039062,15.515625 L24.0039062,12.9960938 L16.25,12.9960938 L16.25,20.8183594 C17.1549479,20.7011719 17.9264323,20.6425781 18.5644531,20.6425781 C20.5240885,20.6425781 21.5039062,21.3359375 21.5039062,22.7226562 C21.5039062,23.3867188 21.2744141,23.9124349 20.8154297,24.2998047 C20.3564453,24.6871745 19.7200521,24.8808594 18.90625,24.8808594 C17.8255208,24.8808594 16.8066406,24.5878906 15.8496094,24.0019531 L15.8496094,24.0019531 L15.8496094,26.6386719 C16.7675781,27.0423177 17.9003906,27.2441406 19.2480469,27.2441406 Z" id="5" fill="#1A1A1A" fill-rule="nonzero"></path>
        </g>
    </g>
</svg>